<mxfile host="65bd71144e">
    <diagram id="pia1LsqTUeTKfzoXCH39" name="Page-1">
        <mxGraphModel dx="701" dy="1717" grid="1" gridSize="10" guides="1" tooltips="1" connect="1" arrows="1" fold="1" page="1" pageScale="1" pageWidth="850" pageHeight="1100" math="0" shadow="0">
            <root>
                <mxCell id="0"/>
                <mxCell id="1" parent="0"/>
                <mxCell id="144" value="" style="shape=image;verticalLabelPosition=bottom;labelBackgroundColor=default;verticalAlign=top;aspect=fixed;imageAspect=0;image=data:image/png,iVBORw0KGgoAAAANSUhEUgAAB4AAAAQ4CAYAAADo08FDAAAAAXNSR0IArs4c6QAAAARzQklUCAgICHwIZIgAAAAJcEhZcwAADsQAAA7EAZUrDhsAAASRaVRYdFhNTDpjb20uYWRvYmUueG1wAAAAAAA8P3hwYWNrZXQgYmVnaW49J++7vycgaWQ9J1c1TTBNcENlaGlIenJlU3pOVGN6a2M5ZCc/Pgo8eDp4bXBtZXRhIHhtbG5zOng9J2Fkb2JlOm5zOm1ldGEvJz4KPHJkZjpSREYgeG1sbnM6cmRmPSdodHRwOi8vd3d3LnczLm9yZy8xOTk5LzAyLzIyLXJkZi1zeW50YXgtbnMjJz4KCiA8cmRmOkRlc2NyaXB0aW9uIHJkZjphYm91dD0nJwogIHhtbG5zOkF0dHJpYj0naHR0cDovL25zLmF0dHJpYnV0aW9uLmNvbS9hZHMvMS4wLyc+CiAgPEF0dHJpYjpBZHM+CiAgIDxyZGY6U2VxPgogICAgPHJkZjpsaSByZGY6cGFyc2VUeXBlPSdSZXNvdXJjZSc+CiAgICAgPEF0dHJpYjpDcmVhdGVkPjIwMjQtMDItMjU8L0F0dHJpYjpDcmVhdGVkPgogICAgIDxBdHRyaWI6RXh0SWQ+ZDlmZGU4NWEtNGQ0MC00ZTQ2LWE5YTAtZmU0YjRhZDA0ZGE1PC9BdHRyaWI6RXh0SWQ+CiAgICAgPEF0dHJpYjpGYklkPjUyNTI2NTkxNDE3OTU4MDwvQXR0cmliOkZiSWQ+CiAgICAgPEF0dHJpYjpUb3VjaFR5cGU+MjwvQXR0cmliOlRvdWNoVHlwZT4KICAgIDwvcmRmOmxpPgogICA8L3JkZjpTZXE+CiAgPC9BdHRyaWI6QWRzPgogPC9yZGY6RGVzY3JpcHRpb24+CgogPHJkZjpEZXNjcmlwdGlvbiByZGY6YWJvdXQ9JycKICB4bWxuczpkYz0naHR0cDovL3B1cmwub3JnL2RjL2VsZW1lbnRzLzEuMS8nPgogIDxkYzp0aXRsZT4KICAgPHJkZjpBbHQ+CiAgICA8cmRmOmxpIHhtbDpsYW5nPSd4LWRlZmF1bHQnPkNyZWF0aW5nIEZsaWdodCBGYXJlIFByZWRpY3Rpb24gTW9kZWwgLSAxPC9yZGY6bGk+CiAgIDwvcmRmOkFsdD4KICA8L2RjOnRpdGxlPgogPC9yZGY6RGVzY3JpcHRpb24+CgogPHJkZjpEZXNjcmlwdGlvbiByZGY6YWJvdXQ9JycKICB4bWxuczpwZGY9J2h0dHA6Ly9ucy5hZG9iZS5jb20vcGRmLzEuMy8nPgogIDxwZGY6QXV0aG9yPjExNTkgQ2hhbmRhbiBDaG91YmV5PC9wZGY6QXV0aG9yPgogPC9yZGY6RGVzY3JpcHRpb24+CgogPHJkZjpEZXNjcmlwdGlvbiByZGY6YWJvdXQ9JycKICB4bWxuczp4bXA9J2h0dHA6Ly9ucy5hZG9iZS5jb20veGFwLzEuMC8nPgogIDx4bXA6Q3JlYXRvclRvb2w+Q2FudmE8L3htcDpDcmVhdG9yVG9vbD4KIDwvcmRmOkRlc2NyaXB0aW9uPgo8L3JkZjpSREY+CjwveDp4bXBtZXRhPgo8P3hwYWNrZXQgZW5kPSdyJz8+naZNwgAAIABJREFUeJzs3Xd41dX9B/BPFjNhLwERQXGgOEABFRmyVEQUd91abbW2WvurWm3Vqq2jVuusbbXFWbcoLkRUnDhRVIaCCAIKKnuEAPn9gb3mkpDcQDDw9fV6Hp4n59xzzvfc701uNO97zskqLi4uDgAAAAAAAAA2e9nVPQEAAAAAAAAAqoYAGAAAAAAAACAhBMAAAAAAAAAACSEABgAAAAAAAEgIATAAAAAAAABAQgiAAQAAAAAAABJCAAwAAAAAAACQEAJgAAAAAAAAgIQQAAMAAAAAAAAkhAAYAAAAAAAAICEEwAAAAAAAAAAJIQAGAAAAAAAASAgBMAAAAAAAAEBCCIABAAAAAAAAEkIADAAAAAAAAJAQAmAAAAAAAACAhBAAAwAAAAAAACSEABgAAAAAAAAgIQTAAAAAAAAAAAkhAAYAAAAAAABICAEwAAAAAAAAQEIIgAEAAAAAAAASQgAMAAAAAAAAkBACYAAAAAAAAICEEAADAAAAAAAAJIQAGAAAAAAAACAhBMAAAAAAAAAACSEABgAAAAAAAEgIATAAAAAAAABAQgiAAQAAAAAAABJCAAwAAAAAAACQEAJgAAAAAAAAgIQQAAMAAAAAAAAkhAAYAAAAAAAAICEEwAAAAAAAAAAJIQAGAAAAAAAASAgBMAAAAAAAAEBCCIABAAAAAAAAEkIADAAAAAAAAJAQAmAAAAAAAACAhBAAAwAAAAAAACSEABgAAAAAAAAgIQTAAAAAAAAAAAkhAAYAAAAAAABICAEwAAAAAAAAQEIIgAEAAAAAAAASQgAMAAAAAAAAkBACYAAAAAAAAICEEAADAAAAAAAAJIQAGAAAAAAAACAhBMAAAAAAAAAACSEABgAAAAAAAEgIATAAAAAAAABAQgiAAQAAAAAAABJCAAwAAAAAAACQEAJgAAAAAAAAgIQQAAMAAAAAAAAkhAAYAAAAAAAAICEEwAAAAAAAAAAJIQAGAAAAAAAASAgBMAAAAAAAAEBCCIABAAAAAAAAEkIADAAAAAAAAJAQAmAAAAAAAACAhBAAAwAAAAAAACSEABgAAAAAAAAgIQTAAAAAAAAAAAkhAAYAAAAAAABICAEwAAAAAAAAQEIIgAEAAAAAAAASQgAMAAAAAAAAkBACYAAAAAAAAICEEAADAAAAAAAAJIQAGAAAAAAAACAhBMAAAAAAAAAACSEABgAAAAAAAEgIATAAAAAAAABAQgiAAQAAAAAAABJCAAwAAAAAAACQEAJgAAAAAAAAgIQQAAMAAAAAAAAkhAAYAAAAAAAAICEEwAAAAAAAAAAJIQAGAAAAAAAASAgBMAAAAAAAAEBCCIABAAAAAAAAEkIADAAAAAAAAJAQAmAAAAAAAACAhBAAAwAAAAAAACSEABgAAAAAAAAgIQTAAAAAAAAAAAkhAAYAAAAAAABICAEwAAAAAAAAQEIIgAEAAAAAAAASQgAMAAAAAAAAkBC51T0BgM3FiqKiWLlyVXVPAwAAAAB+lOrUrlXdUwDYLAiAATL026tvjdvuG17d0wAAAACAH6Wv3ng86uXXre5pAGzybAENAAAAAAAAkBACYAAAAAAAAICEEAADAAAAAAAAJIQAGAAAAAAAACAhBMAAAAAAAAAACSEABgAAAAAAAEgIATAAAAAAAABAQgiAAQAAAAAAABJCAAwAAAAAAACQEAJgAAAAAAAAgIQQAAMAAAAAAAAkhAAYAAAAAAAAICEEwAAAAAAAAAAJIQAGAAAAAAAASAgBMAAAAAAAAEBCCIABAAAAAAAAEkIADAAAAAAAAJAQAmAAAAAAAACAhBAAAwAAAAAAACSEABgAAAAAAAAgIQTAAAAAAAAAAAkhAAYAAAAAAABICAEwAAAAAAAAQEIIgAEAAAAAAAASQgAMAAAAAAAAkBACYAAAAAAAAICEEAADAAAAAAAAJIQAGAAAAAAAACAhBMAAAAAAAAAACSEABgAAAAAAAEgIATAAAAAAAABAQgiAAQAAAAAAABJCAAwAAAAAAACQEAJgAAAAAAAAgIQQAAMAAAAAAAAkhAAYAAAAAAAAICEEwAAAAAAAAAAJIQAGAAAAAAAASAgBMAAAAAAAAEBCCIABAAAAAAAAEkIADAAAAAAAAJAQAmAAAAAAAACAhBAAAwAAAAAAACSEABgAAAAAAAAgIQTAAAAAAAAAAAkhAAYAAAAAAABICAEwAAAAAAAAQEIIgAEAAAAAAAASQgAMAAAAAAAAkBACYAAAAAAAAICEEAADAAAAAAAAJIQAGAAAAAAAACAhBMAAAAAAAAAACSEABgAAAAAAAEgIATAAAAAAAABAQgiAAQAAAAAAABJCAAwAAAAAAACQEAJgAAAAAAAAgIQQAAMAAAAAAAAkRG51TwAAAIBNX738OrHXrh2jQ9vW0ah+QaxatSrmLVwUE6bOiLc+nBQLFy+t1HjZ2dlxcJ/ukZ2VHYuWLI2Rr72TUb+h/XpERMRnM7+Mdz/+pML2e3TsEG1aNo+IiPGffBaTp30R9fPrRt/uu1dqviWNHT8huu68w3r3f+71dyp9vyIiGtUviH126xjt27SMBgX5sXzFivh6/sIY9/GnMW7S1ChaubJUn327dIqmDetHRMSEqdPj4ymfl3uNvNzcGNy7e6r84lvvxzfzF1Y4t47btI3tt94yIiLGjp8YX3w5t8I+zRo1iB6dd17n46uLV8eSZctj1pxvYtJnX5T5/Ab36hZ5eXkVXqss7038NKbOmL1efQEAADZlAmAAAADWqWG9/Dj/1KNicJ/ukZdb9v9CFq1cGU++NDZuvGd4fD7rq4zGHbhPl7jmN6dFRERxcXHsf/qF8en0meX2ycnJjqvOPTUiIpYVrojDzv5jTPpsRrl9jjywdwzps1dERFxzx4MxedoX0bJZ49Q46+MXl9+4Qf3Hnz61UgFws0YN4oKfHhUH7Ns1cnLK3sjrm/kL487hz8U/H3o6VhQVperPOPqg6NKxQ0RE3Hzv8AoD4Nq1aqQ9t6POvSKjAPia3/w0OrRtHRERT740Nn7151sq7LPNVq0yvo8LFi2J+595KW64+9FYXrgiVX/JL06Ievl1MhpjbZfefJcAGAAASCRbQAMAAFCm3XfcNh6/+bIY2r/HOsPfiDWrRofst3c8cctl0alDu4zGPnno/qmvs7Ky4pShAys1t9o1a8TNF/0i8uvUrlS/zc0eHTvEYzddGgf17r7O8DcionGDenHOCUPj3msu+AFnt0bPPTqlwt+IiIH77BGtWzSt0mvUL6gbpx1+QNx15XlRs8b6rfgFAAD4sbACGAAAgFK23KJZ3HH5uamAtXBFUTzw7Esx6vX3YsbsObG6uDhaNG4Ye+68XRwxsGe0btE0Vq5cFVO/qHhF5R4dO8Su26UHxQf36R5//c9DMXfegozn2LZVi7jy16fGLy6/sVLPbdacr+Pcq28rVb9liyZx9vFDU+Wr/vXfmPNt6fmMn/zZBvWf/fW8jOa5VcvmcfsVv4k6tWpGxJrX4L9PvRAjX383Zn45N3Jzc6PNFs2id9ddYmi/HlGnVs2YNvPLjMauSqeWCPMj1qzUPumQAXHZrXdnPMaqVavjsLMvXWucnGjepGEM2GePGNyrW0RE7LbDNnHSIQPi7/ePiIiIi274d5kfTvjT2SenguKHnh0Tr78/oVSb9ydNzXh+AAAAmxMBMAAAAGmysrLiuvN+lgp/585bECf+7ppS2y1/8eXcePujyfH3B56Mk4b0j9q1asTipcsqHP+Uw74PDMe+PyG67rJD1MjLi+MP7hfX/uehSs114D5d4pRDB8btjzyTcZ8Fi5fG8NGvlarfedu2aQHu82PHrXOL4Jkb2L8i2dnZce15P0uFv98uWBQnXHB1TJg6Pa3dtJlfxpi3P4ib7hkel/3yxPj3oyPX63rra8f2W0X3XXeMiIhPp8+M+gX50bRh/Th8wL5xw12PxIJKbHU9/pNpZdY/+8rbsWTJ0jj6wD4REXFgz66pAPipMW+W2eeyX56Y+vr9yZ+V+XoDAAAklS2gAQAASNOv++6x6/btU+Xzrv1XuWftrl69Om5/5Jm46d7HKxy7basWsV+33SJizUrYMy67MRUaH31g76j9XeBZGf938hGxx3fn3CZF3267pa2S/t11t5cKf0v6Zv7COOOPN8RHn077AWb3vZJh/rDho+K+p16IiIg6tWrGMYP2q7LrPPHCG6mvt6zi7aUBAACSRgAMAABAmkHfbbcbETFx6owY8/YHVTb2qUMHRlZWVkRE3Dfi+ViweEk8MurViIhoUJAfhw/YN+OxXhg7LiIicnNz4vrfnRFNGtavsnlWt5KvweRpX8SoN96rxtmUbYumjeLAHntGRMSCRUvisedfjftGjI6ilSsjIuK4wX2jRl7VnNebVeL84yXLllfJmAAAAEklAAYAACBN547bpr5+qQrD30b1C2LIfntHxHfn2T79YkRE3Dn8uSguLo6IiJMPGRDZ2Zn9r+rFN92ZWpncvHHD+Nv5P8+476au5Gvw4ltV9xpUpROH9I/c3JyIiHho5JhYtrww5s5bEE9+ty1zs0YN4uA+3avkWof02Sv19SfTZlbJmAAAAEnlDGAAAABSatWsEc0bN0yVp8yYVWVjH3tQ36hVs0ZERIx48Y34dsGiiFhzju1Lb4+PXnt0itYtmsb+PfaIJ18aW+F4ywoL48zLb4pHb7g4CurWia677BDnnjg0rrnjwSqbc3Uo9RpMr5rX4IB9u0aHtq3LbZOXm9mfCfLr1I4jBvaMiDVbgN89YnTqsTsfey6GfBfYnnzowHjw2TEZjVly2/GIiJo1a8QWTRrFoF7dotcenVL1dzz6bEbjAQAA/FgJgAEAAEgpqFM7rbxo8dJSbbZq2TweveGSMvtPmjYjjv7Nn0rV16yRFz8Z1CdVvvPxUWmP3/nYyFTId8qhAzMKgCPWhMfnX3d73HzRWRERcdrhB8a7H38az2+CWyZnau3XYOHiJVUy7tatW8TWrVtUyVhH7d8rCurWiYiIF958P2bMnpN67IPJU2PcxCmx6/btY9utWkWvPXeJF998v9zxcnKy46Hr/1DhdW+8d3iVbkkOAACQRMnYGwsAAIAqsXLVqrRyXl7pzw3n5GRHvfw6Zf7LXyu8/J9D+/WIxg3qRUTE2x9Njo8+nZb2+Jh3xsfUGbMjIqLTdu2i687bZTznZ195O25/+OmIiMjKyoqrz/1pbLlFs4z7b2oyeQ2qU05Odhw/pF+qPGz4c6Xa3PnYyNTXPx26/wZf84NJU+OE310Tf7vzkQ0eCwAAIOk2rf+LBAAAoFotXLI0ilauTG0F3Lh+vVJtvpm3MG2b5SYN6sVJhw5Y55hZWVlx8iHfP35nGYFhRMRdj4+Ki888LiIiTj3sgBg7flLG8776jgei03btYo+dtov6BXXjpgvPjCPOuSzj/puSBYuXxoqioqiRlxcREU0a1q+Scf9+/4i48e5Hy21TkF833rjvhnLbDOrZLVo2bRwREZ98PjNee++jUm2eeuWtOO+bo6J544bRdZcdYqdt28aHn0wrd9wLrrs9VhStjIiI3JycaNuqeRx9YO9oUJAfHbdpG3vu1CFefffDcscAAABAAAwAAEAJq1atjikzZsf2W28ZERE7bdu2VJsFi5fEbQ+MSJU7bNWq3AC4b7fd0rYevvD0Y+KC044p1S4v5/tNqnrtuUu0b9My4/NvV61aHWf/6ZZ47OY/RtOG9aPjNm3j4jOPz6jvpmb16tUxdcaXsX27Na/BzttuXSXjrlq1Kgq/C1jXpWZRUYXjnDJ0YOrrVs2bxMt3X19mu/r5dVNfnzp0/zj7ylvLHffJl8bG0uWFaXXPv/FePHT9HyInJzvOPObg+PCTafHc6+9WOEcAAIAfM1tAAwAAkKbkKsv9uu8WNWvkbdB4J5cIDCMimjduGFs0Kf2v5ErXrKysOOXQgWsPVa6vvp0fZ195a6xatToiIo4Y2DN67L7TBs29urxc4jXo2323qF2rZjXO5nvdd90xdmy/Vapcp1bNMl/LLZo0jFo1a6Ta7d9jz2jdvEmlrzdu4pR468PvV4KfetgBG/YEAAAAfgSsAAYAACDN/c+8FCcdMiCys7OjQUF+/PLYIWlbPldGpw5rtmWOiChcURRj3v6gwj77ddstsrOz4+A+e8V1wx6OufMWZHy9se9PiL8Oezj+7+TDIyJS5w5vbh589qU45dA1r0FB3Trx6+OHxhX/uLfcPi2bNo458+bHypWrym23IU497PvzfCdMnR5ffDm33PZbt24R27RpFTk52XHikP5x+W3lP4eyPPTsy6nvoc4dt42tW7eIz774stLjAAAA/FgIgAEAAEgzdcbsuO2BJ+PnRx0UERGnHzEoCotWxt//OyJWZLBFcEk/Pfz7wPCJF16P86+7vcI+/7z0nOjdddeoWSMvjhvcN/467OFKXfO2B0bEbju0j77dd69Uv03J1Bmz4x8PPhU/O3JQREScdOiAWLGyKG6469FS2zjXyMuLwwf0iHNPPDz+eOvd8djzr26UOW27Vavo2aVTRKzZpvrnf7yhwgB4523bxqM3XhoREYcP7Bk33vNYLFi8tFLXferlN+P3P/9J5NepHRERQ/v1iL/8e/0+kAAAAPBjIAAGAACglOvveiR279ghuu68ZuXlL38yJI4c2DNeeuuD+Gzml7G8cEXUq1snWrdoGrvt0L7MMVq3aBr99+qSKg8b/lxG177r8VHRu+uuERFx9KA+cev9I2LZWmfDVuS31/4zHrvh0mjTslml+m1Krr/rkdhjp+2ic8dtI2JNEH9Y/31jzNvjY9acryM3NyfabNEsuu2yYzSslx8REScd0n+jBcCnDv0+zB/1xnsVhr8REeM/mRbjJk6JXbdvH3Vr14qjD+wTf79/RIX9Slq2vDCefOnNOHL/nhERMWS/veKvwx6O1atXV+4JAAAA/Eg4AxgAAIBSVq1aHSdecHVaaNu8ccM4YmDPOO+UI+PiM46Lc04YGocP2De2adMq1abk9sMnHzowcnLW/G/n2PGTYsLU6Rlde8w741Nb/DYsyI/D+veo9PwXLl4aZ15+YywvXFHpvpuKlStXxfHnXxkPj3w5Vde4Qb04pO/eceYxB8fpRwyK/XvsmQp/V65cFY+Pfn2jzKVZowZxUO9uqXKmYX5ExJ0l2h43uG/k5Vb+s+gPPvtS6usWTRrFPpvp2c4AAAA/BAEwAAAAZSpauTIuu/XuOOLXl8fwF16P+YsWl9num/kLY9Tr78bvbxwWx19wdURE1M+vkxbc3jl8ZKWufdcTo1Jfn/zdecSVNWHq9Lj0lrsq3W9TUli0Ms7767/ipAuvidFvvBfLygi0Z8yeE8MeGxl9Tz0vbn/kmY0yj+MG940aeXkRETHxsxkx9v0JGfd9+uW3Uuc4N2/cMAaXCJIzNW7ilPjk85mp8uEDKv+hAAAAgB+LrOLi4uLqngTA5uDsK26I2+4bXt3TAACoVi2bNo7GDQoiOzs7li4vjDnfzKv0ma6sv+zs7NiyRdNoUFA3lq8oiq/nLYhv5i+s7mkBAPwgvnrj8aiXX7e6pwGwyXMGMAAAABmbNfebmDX3m+qexo/W6tWr4/NZX8Xn1T0RAAAANlm2gAYAAAAAAABICAEwAAAAAAAAQEIIgAEAAAAAAAASQgAMAAAAAAAAkBACYAAAAAAAAICEEAADAAAAAAAAJIQAGAAAAAAAACAhBMAAAAAAAAAACSEABgAAAAAAAEgIATAAAAAAAABAQgiAAQAAAAAAABJCAAwAAAAAAACQEAJgAAAAAAAAgIQQAAMAAAAAAAAkhAAYAAAAAAAAICEEwAAAAAAAAAAJIQAGAAAAAAAASAgBMAAAAAAAAEBCCIABAAAAAAAAEkIADAAAAAAAAJAQAmAAAAAAAACAhBAAAwAAAAAAACREbnVPAAAA+HGqVbNGbNWyeTTIrxMREfMWLo6vvpkfCxYvqeaZAZuaGnl50bZls2hQkB9Z2Vnx7YJF8dU382Lh4qXVPbVKy8vNjbatmkfDgvzIzsmOJUuXxfTZc2LBZvhcNiXuKwAAfE8ADAAAm7huu+wQw/702/Xq++b4iXHc+VelyvdcfUF06dghVf7DTcPi/qdfrPS46ztO4wb14ugDekX/vbvE9ltvGdnZpTclmjJ9Vrz+/oT479MvxMSpMzKew1l/uilGvvpOxs/h+TuujtbNm6bKx59/ZYwdPykiIkb+88rYqmXzjMcqzzlX3RpPjXkzo7bZ2dkx4Ynb1/ta2x14UsZtn7jlsuiwVeuIiFi0dGn0OuE3sXjpsoz7Z/p9ubp4dSxetjzmzV8UH306LV5864N45uU3o7Bo5Tr7/PK4Q+LMowZnPJeSpsyYFQf87MJK9cn0eqtWr4pFS5bF7LnfxriJU+Kx51+NcROnlNk209eyuLg4lhUWxsLFS2PytC9i7AcT49HnX41v5i9cZ58NeU+IiNj72LPj63kLMp7nylWrYuGSpbFg0eKYPmtOvPXR5HjlnQ9jwtTpGV1v7fs7YszYOPeqv1fYr3atmnH4gH3jwH27xi7btYvc3Jy0x4uLi2PiZzNizNsfxD1PjI5Zc79JPTa4V7e45v9Oz2h+FSn5PbX2vZ8zb0H0OPbsCseokZcXQ/ruFQf36h67d9w28nJL/znm81lfxcjX3o27Hx8VM+d8XeGYJd8DR499L37+xxsyfUrRc49O8Y9LzkmVH3z2pbjohv9k3P9/Tj5kQJx36lEREVFYVBS9T/xNud+75fnT2SfH0H49IiLiy6+/jZ4nnFthn41xXyt6P/jfz+yCRUvim4WL4oNJU+PtDyfHC2PHxdLlhRWOv6Hv82v/Tqmq3+sAACSLABgAADZx2dnZkZOzfqe3rB2w5uSkj1VWAJuJyo6Tk5Mdpx9+YJxx9OCoVbNGuW3bt2kZ7du0jGMP2i/GvDM+Lrz+jpg999uK55BVueeSm5OTfl+zstY59obILjFuRbKyosquW559O+8cO7Rrkyo3KMiPo/bvFf96+OmMx8j0+zInsqNhQX40LMiPdltuEQf17h7nnnRY/N9f/hlj359Qdp+srPW+D7k5ORU3Ws/r5eRkR+MGedG4Qb3Yadu2cexB+8Wo19+NC667PeYtXJzWtjKvZUFunSioWydaNW8SvbvuGr867pC4+o4H4q7HR5XZfkPeEyIiSn5HZjLPnJzsaFqjfjRtWD+2adMq+nTbLc475cgY+8HEuOGex9b5Oqb6r3V/czL4mRjcq1tc9PNjo1H9gnU/j6ys2KFdm9ihXZs45dD944FnXoor/nFvFK4oiqwNvEcllfyeWvve52ZwjR6dd4orzj45WjZtXG67rVo2j58etn+cNKR//Ovhp+Nvdz0aRSvX/UGJku9T/fbqHKcdcWD844EnK5xPWc9jfX8XlBynTk7NOOaA3nHjvcMrPU6j+gVxcJ+9UmNlZ/BzvNHuawbvB//7mW3domns0qFdHHdQ35i/aHHcO2J03PbAk7Fk2fJ19t3Q9/m1f6dU1e91AACSxX8VAgAAG1WdWjXjX5f+On594mEVhr9r27fzzjH8pj9Wuh/lO/Ww/UvVnTCk/w8SPkdEtGzaOO647NzouvN2P8j1Nqa+3XePYX/+bdStXavKxqxdq2ZcfMZxcfoRg6pszI2ha6ft4+4rz4tfnzC0SkOn3512dPz1/J+XG/6uLTc3J44Z1Cduu7ji1bg/pOMO6ht3XP6bCkPKknJzc+JnRw6K2y/7ddSuVTPjfueecFh07bT9+kyzyhxz0H5lrsKtyE8O7BM1a+Rl3P6HvK+ZalCQH2ccPTgeu/HS6NC2dZWPDwAAlWEFMAAAbGa+XbAo/njLXRm1/Xo9t+KsKllZWfG3C86IHl12Tqv/et6CePi5l+ON9yfEl1/Pi8IVK6JBQUFst3Xr6NF55+i31+6pEOHN8RNjeeGKH3Tet9z3RBR8dzbx2jpt1y4G9+qWKs/5dn7848Gn1jnWh59+vkFzufSWu2LegkUbNEZJO7RrE3vt1rFU/RZNG8Wgnt1i+OjX1mvcz774Mi664d+l6vNyc6Jpowax587bx+De3VMhT80aeXH5r06OgadfEKtWrS537Odeeyceee6VjOaxuJyVd5l64/0JceM9j5Wqr5mXF1s0axz99+4cPbt0StXv2H6r+MVPhsRV//pvueOefNG1Ubgi/Xs5Ozs7GtbLj47btI1D++0TTRvWTz129vGHxNMvvxnTZ88pd9zPZ30VV/6z/GuXVNGZqDfc9WjMLfHekZebEw0K8qNNy2axx04dolWzJqnHsrKy4oyjB0ej+gXrtYXw2s465uA4+dCBaXWFK4ri0VGvxAtvvh8zvpwbywsLo1H9etFxm62id9fdomeXnSPru1WRY8dPjIiI8Z98Fpffdu86r/OLYwZHg4L8VPnhkS/HhM/K3nJ+waLFZdZXZMA+XeLiM49Lq1tWuCLue3J0PP/6u/H57DlRuKIomjZqEN133TGOO2i/aNuqRartXrt1jGt+c1r84vIbM7peTk52XH/BGXHwmX+IOd/OX685b6imDevHQb27ZfzzGrHm7N6jB/XJuP0PfV8/mDQ1Hhz5clpdQd3a0ah+QXTqsHXsun37qJH3fXi9desW8d+/XBiHnfPHmDpjdkbXOPvPt0ThiqLM5jP5s4zaAQDw4yYABgCAzcyy5YUx4qWx1T2NjBx/cL/o3XXXtLpHR70aF980rNRZidNnz40PJk+NB58dE1s0bRTnHD80Du23T9x2/4gfcsoREfHwcy+v87Gh/XqkBcDzFy6O/zz67Eabywtjx8UXX1V8bmWmThn6fbhWXFwc38xfGE2+Cx1PGTpwvQPgxUuXxdgPJq7z8UdHvRp3Dn8uHvjrRanVd1u3bhFddtw2dfbyunw+e0489/q76zWv9fGB+vIuAAAgAElEQVT1vAXlPpf7n34xjj1ov7jkzONTdUcO7BnX/ufBWLly1Tr7vf3hpHWeEfrUmDfjHw+MiHuv+V1st/WWEbEmGBvSZ6+4oYwwuqSFi5dW6f0ZMWZsucFVn267xe9OOzraljgn+6gDesfHUz6Pe598Yb2v26nD1nHWsUPS6iZOnRE/u/T6Uj8D02fPjXETp8Q9I0ZHh61axUU/+0nstuO2cd931586Y3a5z+GkIf3TAuAX3nw/nnnlrfWe+9oaFOTHFb9KP5N7yvRZccrvry31XOYtXByTp30R944YHX/4+U/i6AO/D0MH7tMlBvfuHo+/8HpG123asH5cf8HP47jzr6rwgxUby0mHDKhUAHxgz67RrFGDjNpWx32dPntO3Pfk6HU+3rRh/fjZkYPi+IP7pT6IUC+/Tvzj0nPi4DP/UO520P8zOsPzgwEAIFO2gAYAADaKurVrxa+OPSSt7qkxb8b//eUfFf6he/bcb+O31/4zhv7q0hj/ybSNOMsflxZNGsaBPbumyq+882HamaE7tt+qzNXBVWXC1Onx0Frheqft22+0621Mdz/xfEyZPitVrpdfJ7Zru+UGjblg8dK48Z7081M3xfsz+o334pCzLolxE6ek1Z9z4mEbtBX2eacelbaV9Myvvo6f/PZPFX4AYvLnM+P4C66OEy64Ouav52rdqnb6kYPSAub5ixbHcedfVe5zKVq5Mn5/47B49tV30up/fcLQVLCYiT133j7+7+QjKj/pKrJDuzaV2or6hIP7Zdy2Ou/rusydtyAu+/s98eur/h7FxcWp+rYtm1fquQEAQFUSAAMAABvFoX33iXoltlFesmx5/OHGYZUa4/1JU6t6Wj9qJwwZkHY+57DHn4sHR76cFsiXdT5wVfr085lp5ZJhzuZm8udfpJUbV+LM2nX5tESoHBHRoN6meX8WLVkaZ11xU9r3TsOC/DimElv5ltRhq1alQsNLbrmrwu2qS3r340/W69pVLS83Nw4b0COt7vo7H8l4W+ZLb74zbTvg1i2aRs89OpXTY42S4eOpQ/eP/nt3znDGVe+kQwZk1K5Lxw6xc4etM2pbXfc1U0+8+EbcOfy5tLqThg6s1NnGAABQVQTAAADARtFvr93TyiNefGOTWZ33Y1S3dq04cmDPVHnarK/ixTffj0VLlsZjo15N1e/beefo0Lb1RptH/fy6aeXlm/G2p/Xqpp8TvawKnkv9gvQxN+X7M3vut/Hgs2PS6vp2230drcvXb6/0sHL6rDnxwthx6z236rR7x22jYYkPNiwrXBGPPZ/51upzvp0fz72Wvlp1v7W20i/LPx58Mq181a9Pja1KbNP9Q+rTdddos0WzCtudeEj/jMesrvtaGX+/f0SsKPo+ZG5YkB9ddtquSq8BAACZEAADAAAbxW47bptWHvPO+GqaCRFrzqgtuSK75Eq1YY+nr1o7tcQ5wVUpOzs7Dti3a1rdhKnTN8q1NrbWLZqmBTurV6+OqTO/3OBxD+rVPa08YcqmfX9GrnVubqftto46353xXBmdd+qQVt6c3y9232GbtPIHk6bG4qXLKjXGq+99lFZe+/20LHc9PiqeKHGmbUHdOnHzRWdVywrU7OzsOGFI+eFuq2ZNol/374P/is4srq77Whlz5y2I9z7+NK2u+y47VOk1AAAgE7kVNwEAADYltWvVjIP77JVR22defjMKi1Zu5BmV1rp5k6hds0Za3YQpn2/Ua+6xU4dKBR211yOkqg599+oc8xYsqrDd2x9Ojplzyj4HMycnO04osdJu8dJl8fDI78/inTJ9Vrz67oex9+47RUTEoF7d4tp/PxRfZbi1aibabblFXHDqUbF9u+/Pyf163oIY886HFfbdulWLGLjPHhld55V3P6x0KFQZWVlZ0WP3neLiM49L+357c/yk+Gb+wvUet1H9gjj50IFx7EH7peqKi4vj0edfLafXGvXz62Z8fz6eMi2mz5673vNc27hJU6O4uDh1lmpebm60btE0Jk/7ooKe6dq33iKt/NFGfr/YmLZu1SKtPHE9PuSw9gcj2ma4kvfCv/07dmjfJrZp0yoiIrZvt2VcdtYJ8dtr/1XpOayP1977KHWO+GH9e8T1dz4Si5aUvY33sYP7Rk7OmnUJ02fNiUVLl0bHbdquc+zqvK+VMW7SlOhaIvRtu9a8y9Jvr85p21Ovy5dff1vq7G0AACiLABgAADYzjeoXxLW/PT2jtq+991HMnbdgI8+otIZlnFv67YKyt3/Oy82No/bvVe54n82cHa+8+1G5bSpabba5uuj0YzJqd/afb1lnAHxgjz2jVbMmqfLDz70SS5YtT2tz5+OjUgFwjby8OH5Iv7jmjgcznmf7Ni3joev/UKo+LzcnmjZqEM0aNSj12B9vvTttu9R12a/bbrFft90ymscBp/8uJq91znBl9ei8czxxy2Wl6mvk5sYWzRqXWuG6oqgorvrXfysc966rz4/i1cVpddlZWdGwXn60at4ksrPTN+m6Z8To+DiDILRNy2Zx00W/qLBdRMSlN98Vdz0xKqO2mShcURSLlixLW11e1s9/RRqtdX7ytxsQple3tZ/LvIUVf4BjbfPWer+sVbNG1KlVM+3M5bIsXV4YZ15+Uzx6wyWp79ND+/WItz/+JB54+qVKz6Oy7nlydHTZqUPUyMuLurVrxRED9o3bH3mmVLvatWrGEQP2TZXvfmJUHNS7e6l2JVXnfa2MufPSv3cz+XnI9Hf6M6+8Fb+4/Kb1mhcAAD8uAmAAAKDK1apRo1Tduv7AXrtWjbj4zOPKHW/Ei29UGACzbicP3T/1dXFxcdz1eOkAcPTYcTF91pxo03LNuZ1H7d87br738YyDkTq1asau27fPqG3hiqK49Na74qkxb2bU/odWv6Bu1C+oW3HDWHPu77nX3BbjP5lWYdtdOrTLeA73P/1iXPb3uzNuX52WLC9MC4Dz69Su9Bhrr96vykDuh7b2c1m2fEWlx1i6fHmpupo18jK6L1Omz4rfXXd7XH/BGam6i39+XHz0yefx0afTKj2Xyvhm3sJ48qU345C+e0dExPEH94t/PzYyVq9O3955aL99Uj9jS5cXxkPPvVxhAFzd9zVTa3+4Jr9OrSobGwAAMuUMYAAAoMotX1H6D/N1a/sjeHXoussOsdO2bVPll94eH9PKOKu2uLg47i6xMrR+Qd048oBeVT6fh54dEwNOu6BSqxGLVq6MpcsLM/q3qri44gGrQOGKonhs9Gsx6Izfx8hX36mycceOnxRHn3tFXPi3f1d4Jur/rF69OuP7s2Jl1W8Jn187fUX04nVs+Vue5Wttf1t3M9mivSzLC9Pf/9bnTOQ6tUq/Xy4rzDzwHPHS2LSV3jVr5MVNF54Z9UsE9RvLsOEjU1+3at4k+u/VuVSb4wf3S3392KhXY+Hiir9nNoX7mom1A9/FSyrekj7Tn9+17wEAAKyLFcAAALCZmfnV19HzhHOrexrlKmu754b18ss8C7JwRVGpLWlr5uXFEQN7Vuqa51x5a4x89e2M24+8/aq0bZE3Vb1OODe++KrsrZ0z8dMSq38jIu58bOQ6WkY8OPLlOPuEoalg5cSD+8edw5/LKIicv2hx3HTv42l1dWrWiG3ato7+3XePWt+dCT2wxx7x5oeT4osvMz+Hdtjw5+LKf1a8xXJV+WDS1HiwxBnJ/7Nq9apYunR5zJr7bXz0yWeVPl/7xnuHx4JFS1LlvNycaN2sSQzYp0s0aVg/IiK67LhtDNx3z3j740+iOMMw+6NPP49DfnlJpeZSVWrXqllqxe+8hWVv916eb+cvjDotmqbKjRrW2+C5VZdv1zqzu2GDyj+XRvXTtw1eth7h359uuy923nbr1Mr8LbdoFtf85rQ47ZLrKz2fyvjwk2nx9keTo0vHDhERcdIhA+KZV95KPd5zj07Rbsvvz3zOdEvyTeW+VqRpw/Tt7uctqvjnodtRZ23Wq94BANj0CIABAIAqN3PO17GscEXUrvn9VtA7tt8qps+eU6pt4YqiuPTmu9LqGtbLr3QAXLRyVeUCuR9moWi1at+mZfTco1OqvHr16hjUq1sM6tV1nX0WLl6SCoBbNW8SB/TYM5548Y0Kr7Vk6fL4z6PPlvnYrtu3j//+5cLIzc2J/Dq148pzTomZc76Jse9PqOQz+mFMnz0n7ntydJWP+/CzY8oM8/9296Px0HV/iDYtm0VOTnaccHC/mL9gUdx47/Aqn0NV67Rdu8jKykqVi1aujBnr8YGFKV/MjtYlAuCO7baqkvlVh6lfpK+w337r1pUeY/v26c9/2qyvKj1G0cqV8csrbo7hN/8xdQ5tn267xc+OHBSTpn1R6fEqY9hjz6UC4M4dt41OHbaODyZ/FhERJw0ZkGr3+riP45MMz+zeVO5rRXZZayv8qTNmV/k1AACgIraABgAANopxEz5NK++9247VNJMfr1MOHZgWzmVnZ8eh/faJQ/v1WOe/Fk0apY1x8qEDN3ge4yZOieGjX0ubxznHH7rB4ybFtwsWxU33pYe9px5+wA+yXe+GGrhPl7TyuIlTYtl6rGR858PJaeUenXfeoHlVp/c+/iSt3KlDuyioW7nXcp/dOqaV3/nok3W0LN+sud/Er6+6Ne0M3nOOHxrdOm2/XuNl6tlX346Zc77/IMCJ372PtG/TMvbpvFOqflg5OxKsbVO6r+vSvFGD2H2H9AD49U30gy4AACSbABgAANgonnv93bTyQb27R73NINBKiiYN68fBffba4HF27rB1dN1lhw0e54Fn08/87dKxQ2y7VasNHjcpnnxpbNoW6XVr14qDenevxhlVrGXTxjG0X4+0uudff2+9xhq11vtFm5bNYt8undbRetP27sRP07YrrlWzRhzSd++M+zdtWD/6dt89re75N95dR+uKvfzOh2nbs+fkZMcpa20NX9VWr14ddz/xfKq8/z5donnjhnHSkP6pui++nBvPjx2X8Zib2n0ty+lHHRR5ud9vtjdv4eJ496PJ5fQAAICNQwAMAABsFI+OejUWL12WKufXqR2//9mx1TijH5fjDtovatbIS5Xfm/BpPPDMSxn9K3leZ0Tpc4TXxzsffVJqK9TD+vdYR+sfn8IVRfHkS2PT6g7rv281zaZiBXXrxA0X/SK1XXjEmrNO73vqhfUab/LnM2PsBxPT6i4547hS5wuXZ5ft2q3XtavaypWr4oFn0j/w8Mtjh0SzRg3W0SPdxWcel/az+/msr+KVdz/aoDndeM9j8fLb4zdojMp64OkXU6vB83Jz46yfHJz2oZR7Rjyf8TnXEZvmfS1pcK9ucfzgvml1dzzyTKXPCgcAgKogAAYAADaKRUuWxk33pG9re0jfveOSM49PWyFF1atVs0YcM2i/VLm4uDjOvfq2+N31d2T076wrbo7ps74/r7nnHp1imzYbvlr3wZFj0soH99krcnNzNnjcpHjgmfT7s9O2bWP7dltW02zWreceneLRGy6OXdcKXP/6n4djybLl6z3uVf/6b9pWxW1aNothV/42mjduWG6/tq1axB1X/Cbuvur8qJ9fd72vX5X++eCTaatVGxTkx51X/jZaNm28zj65uTlxyZnHx8B99kirv/Y/D1UqKC1LcXFx/Prqv8esud9s0DiVsWDx0njs+VdT5aMO6B21v/vAwLLlhaXC3Exsavc1Ys1uCxeedkxce97P0uqnzfoq7hz+3AaPDwAA68NfXQAA4Ees687bRW52Zp8LHf7Ca7Fw8dKKG5Zwx6PPRvfddoyeJbZyPfag/aL3nrvE3SOej9fe+zi++HJuLF62LPJr14r6BfmxXdvW0WWnDpW6DukO698jGtbLT5VffPP9mD57Tjk90hUXF8fdT4yK351+TEREZGVlxSlDB8YF192+QfN6bNSrce4Jh6VC3yYN60efPXeNka+9U26/LVs0i95dd83oGkuXLS+1knRz8cHkqTHpsxmx3dbfh76H9983Lvv7PeX2K8ivk/H9iYh49d2PYkVR0Tof33+fPWLOvAWpcl5OdtQvyI+2LZvHnjtvF1tu0axUn/uffjHue3J0xnMoyweTP4sb7n40zj5+aKpulw7tYtTtV8WDI1+OF8eOixlfzY3CwqJo1KAgdmjXJnrtuWv0675bZH/3PnbUAb3jtgdGbNA8qsKCxUvj/Otuj9su/lXqHO5t2rSKZ//557h7xOgY9fo78fmsOVG4oiiaNqof3XfZIY4f3C/at2mZNs4TL7weT415s0rmNG/h4jjr8pvivr/8Lmrk5VXcoQoMGz4qjj6wT6n6x194PRZU8vdJRPXc1y1bNovDB/ZMq8uvUysa168Xu2zXLnbfcdu0lcURaz4AddrF12X8gYh9u3SKwnJ+Jkv6+JNp8dW389f5+Mb+vQ4AwOZBAAwAAD9ig3p1i0G9umXU9tVxH1X6D8WrV6+Osy6/KW75/S9jn847pepbNW8S551yZKXGIjNZWVlx0iED0uqGDR9Z6XEeeu7lOPuEoaktfgf37h5//c9DMbdEMFhZc+ctiJfe/iD267Zbqu6w/j0qDIAH7N05BuzdOaNrTJ0xO/r/9Pz1nmN1e3jky6ngPSJicJ+94sp/3R9FK9e9jWzbls3jn5eek/E1uh/9y3Jfx3NOGLrOx9ZWXFwctz3wZPx12MMZ9ynPTfc+HgV166SdUVu7Vs04fnDfUtvrlmXv3XbcJALgiIjRb7wXF97w77j8rBNTAXXtWjXjp4ftHz89rOJt1ce8Mz7O38APXazt/UlT48//+G9cfOZxVTruunw6fWa88s6Hae//ERHDNmBl7A99X3fp0C526ZD59uLTZn4ZZ1x2Y6kt78tz00W/yLjt2X++JUastV18SRv79zoAAJsHW0ADAAAb1dLlhXHKH66Na//zUCwrXFHp/kUrV8Ynn8/cCDNLpv57d46tWjZPladMn7Ve51wuXLw0hpfYvrVmjbw4LoMAriIPPZu+zXHPPXbJ+AzPH4PHRr+WFvY2rJcffbvvXo0zWre3PpwUx19wdfzl3w+mbd28of78z//Gr6+8NW2r34qsXr06Hnx2TJx+6d+qbB5V4YGnX4rjLrg6vvhybsZ9ilaujJvvHR6nXXxdFK7IbFVoZdz1xKh44oXXq3zcdfnPWh9AGfv+hJg87YsNGnNTvK8LFy+N2x4YEUPOumSDnx8AAGwoK4ABAICNbtWq1XHrf5+I+59+MY7av1f026tzdNxmq9TqrbV9+fW3MW7i1Hh93Ecx8tV3NmjV6Y/NKYcOTCvf+fj6r7S78/H07VuPHtQnbr1/RCxbXrjeY45+c1zMnbcgmjasHxEROTnZMaTv3vGPB55c7zGT5NsFi+L5N8bFwH26pOoOG9Ajnn65arYBXh+rV6+OBUuWxoJFS+LzWV/F2x9OjlfeGR/jP5m20a75+ItvxKg33osj9u8Vg3p2jU4dti7z/WLK9Fnx8jvj487Hn4vpszMPA39IY9+fEP1OPT+G9N07huy3d3TeYZsyz77+4su58eyrb8edw0fFzDlfb9Q5Xfi3f8cO7dtUydneFXnxzfdj2swvo22rFhERMWwD3pNKqs77uqxwRcxftCS+nb8gxk/+LN4cPylGjx0Xi5cuq5LxAQBgQ2UVFxcXV/ckADYHZ19xQ9x23/DqngYAJEatmjVi61Yton5B3aiRmxvLlhfGwqXLYsbsObF0AwJGIHlq1siLdq23iAb18iMrKyvmL1wcX379baVWCW8qauTlRbstW0TDegWRm5Mdi5cuj89nfbVZPpdNifsK8OPw1RuPR738utU9DYBNnhXAAABAtVheuCImTJ1e3dMANgOFK4oS836xoqgoJk6dUd3TSBz3FQAAvucMYAAAAAAAAICEEAADAAAAAAAAJIQAGAAAAAAAACAhBMAAAAAAAAAACSEABgAAAAAAAEgIATAAAAAAAABAQgiAAQAAAAAAABJCAAwAAAAAAACQEAJgAAAAAAAAgIQQAAMAAAAAAAAkhAAYAAAAAAAAICEEwAAAAAAAAAAJIQAGAAAAAAAASAgBMAAAAAAAAEBCCIABAAAAAAAAEkIADAAAAAAAAJAQAmAAAAAAAACAhBAAAwAAAADw/+zdd1gUV9sG8HuXDlJEATFWBBsqasAuaMTY9Y29KyrEEjX2bmLs3agxIljB3gALYuwdW0RRbFERjaCC9Lrl+wN2v122sBgNBu7fdZErzJw588zsmXGZZ845REREVEwwAUxEREREREREREREREREVEwwAUxEREREREREREREREREVEwwAUxEREREREREREREREREVEwwAUxEREREREREREREREREVEwwAUxEREREREREREREREREVEwwAUxEREREREREREREREREVEwwAUxEREREREREREREREREVEwwAUxEREREREREREREREREVEwwAUxEREREREREREREREREVEwwAUxEREREREREREREREREVEwwAUxEREREREREREREREREVEwwAUxEREREREREREREREREVEwwAUxEREREREREREREREREVEwwAUxEREREREREREREREREVEwwAUxEREREREREREREREREVEwwAUxEREREREREREREREREVEzoF3UARET0z9w5uAF6Qr7PQ0RFQyKVwqX7qM+6j9/njoNbneqfdR9ERERERCXd/rALWLp5X1GHQURERJ8AE8BERP9xAoEAJiYmRR0GEZVQaenpn30flqVMYVHKDEK+7EIlSI5IBIlYDCMjo6IOhajIZWVnQ08ohL4+H2FQ8ZaTkwMpAEMDg6IOhUogkUgECzPTog6DiIiIPhE+RSMiIiIiIiIiIiIiIiIiKiaYACYiIiIiIiIiIiIiIiIiKiaYACYiIiIiIiIiIiIiIiIiKiaYACYiIiIiIiIiIiIiIiIiKiaYACYiIiIiIiIiIiIiIiIiKiaYACYiIiIiIiIiIiIiIiIiKiaYACYiIiIiIiIiIiIiIiIiKiaYACYiIiIiIiIiIiIiIiIiKiaYACYiIiIiIiIiIiIiIiIiKiaYACYiIiIiIiIiIiIiIiIiKiaYACYiIiIiIiIiIiIiIiIiKiaYACYiIiIiIiIiIiIiIiIiKiaYACYiIiIiIiIiIiIiIiIiKiaYACYiIiIiIiIiIiIiIiIiKiaYACYiIiIiIiIiIiIiIiIiKiaYACYiIiIiIiIiIiIiIiIiKiaYACYiIiIiIiIiIiIiIiIiKiaYACYiIiIiIiIiIiIiIiIiKiaYACYiIiIiIiIiIiIiIiIiKib0izoAIiKioiYWixEXFwehUAg7OzsIBAL5OqlUiqysLKXyhoaGEApV36ESi8XIyclRuw99fX3o66v+s5uTkwOBQKB2XWZmpta4BQIBjIyM5Ps0MDCQ16mnp6c2Rlm9RkZGSscpk5WVhbdv38LU1BRlypTRun/ZvoRCIfT09DSWkUgkEIlEMDQ0VFknlUrx9u1bCIVClC1bVm1MOTk5EIvF8t81nX/FY5BKpWrXGRsby8vo6+trjZuIiIiIiIiIiIjov4gJYCIiKrHevXuHRYsX40hICKQARCIRrKys0K9fP/w4fjyMjY3xIjoaLVu2VNpOX18fX331Ffr07o3Ro0fLk7d79+3D1KlT1e5r4MCBWLJ4sdIyqVSKb9q0QYUKFbB71y6ldUlJSXCuU0dr/DY2Nvjz9m1MnDQJALBu7VoAwMRJkxAfH4/AgAC1iVJHJyeEBAejYcOG8mURERFYtmwZLl66BFNTU2RkZMDe3h5eXl7wHjFCY8J14qRJkIjF+O233zTGuebXX3Hq1CkcP3ZMviwrKwsrV63Crl27chPdUilMzcwweNAgjB8/Xp7Mlu3j8OHD8t9lifpWHh4YPXo0qlatqrS/5i1aIDY2Vm0st2/dgq2tLZq3aIGJEyeif79+GuMmIiIiIiIiIiIi+i9iApiIiEqkd+/eoWOnTnB2dkZoaCicnJwgFotx/fp1LFu+HAcPHsSAAQPk5S9dvIgKFSoAANLT03Hnzh1MmjwZ2dnZmDx5srxchQoVcOniRZX9qUugnj59Gqmpqbh16xYePnyImjVrytdZWlri0cOH8t8jIiLQu08f3LhxAxbm5hrrlLlw4QLWrluHH8ePL/BcXLlyBYOHDMH3Pj5Yt24drK2tkZWVhbPnzmHJkiWoXauWShJc0bHjxzH7zRvY29urrMvOzkZgYCDKlSsnXyaRSDBw0CCkpKQgYMcONGjQAFKpFDdv3sT0GTMQcfcudmzfrtQbuGvXrli+bBmA3B7MT58+RUBAANp36IBtW7eiadOmSvtdsWIFevbooRKPup7WRAXJzs6GQCBQejFBRtbzX1Mv/+zsbMTGxsLY2Bg2NjZqRxiQ9ebXRNYL3tDQECKRCBKJRG05WQwikQgikUje410dWdyy0QAkEgmys7OVyujp6ak9Zln96giFQhgaGqqtT9M50kQkEuHNmzcwMDBQGZ1BUU5ODt6/fw8LCwuYmZmpLZORkYHYuDiUtrKClZWV1v3pGxignJb9lWT5R6bQNJqEpvKK1I3mIJVK8f79e6SmpaGcnR1MTEzk69S1KUWy9p6ZmVlgW8vKyoJQKJS37+zsbJXrSt2xFSYGRbLrojA+JCYi8cMHlCtXTuk8KJKNomFgYABra2u1ZXS9jhITE/HhwwfY2dnB1NS0ULGWdLJ2oemeCeS2CU3rZdtrG51FKpXK25fivwn5ryFZXZquAdl6AwMDtaOgqLu/59+PrA5t/3bJYtR2LepyXwZyr4WszEzY2tpq/O4bGxuL7OxslC9fXqd/Z7KysqCnp1fsvxdqu2fJPr+Pva9p+vx1aUMybMuq2JaJiIjoU+IcwEREVCL9Mn8+LC0tsdnfH05OTgBykx1NmzbFgf370bNnT6Xysj+s9fX1YWFhAXd3d/zwww84dvy4St2ycoo/6v7I99GkJAQAACAASURBVPP3x6BBg9C9e3ds3rxZZb2ZmZn8R/bwxdTERL5M0wNhAGjWrBk2bNiAq1evaj0PYrEYkyZPho+3N6ZMmSJ/gGxkZIT27doh9PhxtGjRosA6tm7bpnbdkSNH8P79e6Vlu3btQkREBAIDAtCgQQMAuQ+R3NzcsGvnTty6dQuHg4KUttHT05Mfd5kyZdC4cWOsX78egwYOxOgxY5CRkaFUXpg3rHb+H6KP0blLF9RzccGzZ89U1h08eBCOTk5Ym9cDXyYmJgajRo9GjZo10ax5czT8+mvUb9AAy5cvlz9oFYvFaOnujmqOjnj8+LHafWdlZcHVzQ21nZ3x7t07dO7SBY5OTmp/fv75ZwDAsuXL4ejkhNOnT2s8punTp8PRyQl3794FAJz84w+V+qo6OKB+gwaYOGkS4uLi5NvOX7BAYwwdOnbUWp+rqyumTZ+ucl9Q9Pfff2P8jz/CuU4dNG3WDK5ubmjQsCF279mjUnb1mjWo5+ICt0aNUNvZGSNGjEBCQoJ8/fXr19G3Xz/Uql0bLVu2RJ26deHZti1u3ryptL8JEyeiTt26aNqsGdzc3OBSvz4CAwM1xlgSJSUlqXymlatUQeMmTTBlyhSV60NdecWf0NBQedns7GwsX74cDRo2RIOGDdGyZUvUql0bAwYMQEREBAD1bUrxJyEhAZmZmXB0ckK3bt00HserV69QvUYNjPD2li9Td105OTmhXfv2CA4OlpfTJQZ1x+1QrRrq1K2LwUOG4P79+1rP8759++DZti3q1q2Llu7uqF6jBoZ6eamMbBEWFoYmTZvia1dX1HNxQfsOHXDv3j35el2vowMHDqDtt9+ijsL+Bg0ejDdv3miNk/7fkSNH4OjkhPE//qh2/eXLl+Ho5IRv2rRR+wKPrF3NmDlT7fYerVrBMe+7KgBMnTYNjk5OOHLkiErZoKCg3LpmzFBb16pVq+Do5IRp06apXa/u/l7N0REtWrbEb7/9BpFIhA8fPqBxkyao5uiIS5cuqdTx/v17NGjYEE7Vq+P69esq63W5LwPAkydP0LVbN9StWxeubm5wa9RI6fthRmYmli9fjq9dXeHq5oZmzZujRs2a+HnePI0vKQHAocOHUc3RUeM5Kk603bOa5L08+bH3tWqOjqhVuzb6DxiAO3n3aUC3NiTDtpyLbZmIiIg+Fz4JJSKiEic9PR2hoaFYuWKF2jfG9fT0dJob1sDAoMB5ejWJevgQN2/exPp16/Dhwwd07NQJ06dP12neXV3UqlULnTt1wg9jxyLsxAmULVtWbblr167h9evX8PbxUbteW5JZxsPdHbt27sSP48er9BrasmULPD09lR5cHzp8GH379lUbk52dHbp164aDBw6g+3ffFbjv8ePHY+u2bQg7eRL/0/LAn+ifSklJgY+PD44cOVLgdfHXX3+h2//+h8TERLRu3RrNmjVDRno6gkNC8Ovatbh+4wb27N4NfX19DBs2DAsXLsSWrVtVhokHch+AxsfHo2fPnrCzs5Mv79e3LywsLJTKujVqpPS7n78/2rRpo1JnQkKC0rDqimrWqIFvv/0WQG7yOfz6dezbtw8PHz5UGsYdyL32FUcuAABbhRjz15eZmYnr169j586dePToEQ4fOqS2t9u27dtx6NAhtPLwQJMmTZCSmort27dj6tSpqFK5srzHv5+fH1auXAkHBwf4+Pjg9q1bOBEWhqSkJOzfvx9A7gPghw8f4rvvvkPNmjXx9OlT7N69G0O9vHDx4kWUtrLCtu3bcfDgQbRu3RqNGzVCckoKduzYgekzZqBSpUpwd3dXe65KKkNDQ/Tu3RsA8P7dOzyIisLuPXsQFBwMPz8/tPLwUCpvZmaGgQojasg4VKsGILd3Vd9+/XD9+nVUrFgRI7//HhYWFnj06BFOhIVh/vz5OHDggHw7JycnfNO6tUp9itdlxN27uH79OhrluyYAYOvWrUrzyisaMngwLC0tIQUQFxeHY8eOYcwPP8DU1BRt27bVKQbZCx6lSpXCMC+v3GMUifD06VOcPn0af/75J0798YfS9SyTmJiImbNmwcrSEiNGjEC5cuVw/vx5nDp1CmPT0rB/3z4AwJ2ICHw/ciRMTEwwZswYJCcnIzAwEP0HDMD5c+dgbW2t03WUmJiI6TNmoHTp0vD29oadnR3Onz+Ps2fPYvSYMTh86JDa80SF47tpEwDg+fPnCDt5Eh3at1dbLjAwEI3c3NC9e/fPEkdGZiZ2BAQAAA4HBWHq1KmwtbVVW7ZNmzZwrl0bAJCcnIyTf/yBxUuWICU1FdOnTcOihQvx/ciRmD59Ov44dQomCiNOzJk7F4mJifAaOhTNmjVTqVuX+3Jqair69e+P2NhY9O3TB7a2ttgREIBx48bB1sYGzZs3x7Vr1/Dr2rVwdnZGv759YWJigj1798Lf3x8WFhaYOGGCyr7//vtvzJ49+1Oczv+UKlWqqHwfMC9VSun3wt7XxBIJnj55gpN//IE7d+7g9KlTSqMBFdSG/gm25ZLblomIiKhwmAAmIqIS59mzZ8jMzESdAubY1ebFixfw9/dXeYgnEonw/MULlfL5h7L09/NDp06dYGNjAxsbG7i6uiIgMFCnIZt1NXjwYFwLD8e48eM1zgccFRWFypUro7SW4coKUtvZGdk5Odh/4ACGDB4sX37jxg0kJiVh0ODB2LFjh9I+e/XqpbE+FxcXnDhxQqd9m5ubo0aNGoi8d08pAfw+Pl7lczA2MlI7TDWRrh4+eoQZM2dizerVWstNmzYNiYmJmDRpEiYo9AgbPXo0evbsiatXr2JHQAC8hg7FgP79sWbNGhw8eBDTp01TGTpwy9atAAAfhd6KADB6zBhUrVJFaxyXLl1C1MOHqJUvSRsYGIjMrCy129SqXVtpLnOxWIxv2rTB3bt3ERMTg4oVK8rXdercucB5tPPXJ5FI0L5DB9y8eRMxMTGoVKmSyjZeXl7o2LEj6ru4yJdZWFhg0aJFOHPmDJo2bQqxWIz1v/0GQ0ND7Nm9G+XLl4dEIsH/vvsOV69dQ3h4OBo3boxf5s1D+fLllZJtsbGxOHv2LP68fRvffPMNvLy80KljR7go7M/W1hZz587F+fPnmQDOx9jYWOllBYlEAt9Nm7Bw4UKMGTMGly9dUmrH5ubmmDNnjsb6Nm7ciOvXr6O+iwv279+v9G/l69evlXqfA0CdOnU01qf4Upb/5s0qCeD09HTs2btXYywjvL2VrqsWLVpg3LhxOB4aqpQA1haDYqJEse0DwJw5c7B12zacO3cOffr0UdnWysoKmzZtQvNmzeTDkQ7z8kL9Bg1w7do1pKWlwczMDL+tXw+RSIRlS5eiS5cuufszM8PvGzdiR0AAfhw/XqfryMrKCn5+fmjWtKl8fyOGD4dbo0a4efMmUlNTUSpfkogK5/Hjxzh79izc3d1x8+ZN+Pr6akwAA8C06dNRu3ZtlZdrPoX9+/YhISEBHdq3R+iJE9i6bRum5WujMu3atVO6v48fPx6ubm44fPgwpk+bhk6dOqFr164ICQnBqpUrMWvWLADAyZMnceTIEVSpXBkzNfRo1uW+vG/fPsTGxmLwoEFYtGgRAMDV1RWDhwzB2nXr0Lx5c7Ty8MBmf3+0a9dOXk+z5s3RpUsXnDl9WiVpJpVK8eOECUhOTv64E/gfVrt2bczLGyVEk4+9r02ZOhW7d+/GxYsX5S8HAQW3oX+CbbnktmUiIiIqHA4BTUREJU5SUhIAaOwVq8533bujSdOmaNK0KVzq14enpydat2qlMuRWXFwcOnXqpPJz69YteZn4+HgEBQdj2LBh8mXDvLywY8cOrXNwfYxlS5fi5cuXWLtundr1iYmJ8jmFZa5fv45evXrJfzbl9VzRRCqVwnvECGzevBlSqVS+fPOWLfAaOhRChR5+EokEKSkpsLWx0Vifmamp/DPShYWFBZJTUpSWrVq1SuUzmDhpks51EqnjUq8eDhw4gJ07d2osExMTg2vh4ShTpgxGjRyptM7Y2Fj+4PRAXg9VCwsL9OnTBxkZGSpDs14LD8f9+/fRvHlz1M7rvVJYm/39lX7PyclReiGjIHp6ejAxMSlwnmJdCYVC+Zzgmh5c2pcrp5S0AiDvKayXN5R7VFQU4uPj4eLigvLly8vrbp+XWJEN5digQQOVnpbyuvJGerAvV04p+QsAkrweoprmVaX/JxQKMWrkSHi4uyMpKQnBISGF2l6WkJ05c6ZK7/qvvvoKDRs2/Ki4wsLCEBMTo7Rs3/79hfr3xSxvVAsTLfNpF0b5r74CoLntA8A3rVsrXWuyl7cEAoG8zV6+cgV6enpKSemOnToBAC5dvAhAt+sIAFq3aqW0P6lUColEAhMTE63ziJNuNm3aBKlUinHjxqFHjx64efOm0ndCRXXr1kVWVhZ8vv8eqampnzQOiUQCP39/mJubY/Xq1ahevToCAgKQnp6u0/Zly5aFsbGxUttduGABbGxssMnPD5GRkUhOTsbMmTMhFAqxcuVKjaNl6HJfvnT5MgCgQ4cO8jKtWrWCmZkZwsPD5fO2KibMlOpRM+3HJj8/XLlyRe3IGPTxzMzMABQ8apC6NvQx2JbZlomIiEh37AFMREQljqxn0tu3b2FpaanTNitXrJD/gZ+YlIRVq1bhfXw8DAwMlMp99dVXuFbAvLs7AgLg7Oys9GDW09MTJr/8giNHjqBHjx6FORytSpUqBd+NG/Fd9+5o3KiRfOhUmdKlSyMp34MYR0dHTJw4EQCwefNmPHv+vMD9eHp6Yv6CBThz5gzatGmDv//+G5cuXsTyZcuU5nkUCoWwsLBA3Nu3Gut68+aNSi9IbRITE1E3X2/uRQsXKvVCIPoU1q9fj+49emDuTz+hbt26qFevnkqZ+w8eAADqODurTZ64uroCAB5ERUEqlUIgEGDE8OHYtm0btm/fDh9vb/lDwy1btgAAvEeMUKknODgYZfIlJ9u2bStPrgJApUqVcDgoCNOnT5e/8HLk6FHExsWhWrVq+Ouvv1TqjY6Oxq7duwHk9vi5cuUKIiMjMXz4cJXhFa9duwZxvrnp6tWrp5RMTU9Lk/fGz8zMxLVr13DhwgXY2dnJ518vSEZGBnbmzcfbLm846ZcvXwIAKuQl1GQqVqiQuz5f4k/m0aNHuHjxIqysrNCocWOldVevXsWzZ8/w4sULBAQGolKlSuhXQA9n+n/uHh44f+GCfM5emYyMDATkDdWpaNCgQUhOTkZ0dDSEQqH82ijI8+fPVeqzs7OTDzUOABUrVsSrV6+wZetW/DR3LoDcxObWrVs1tn0AOHb0KKzzpmKIi4tDYGAgrK2t4Z2vB74uMUgkEnnbF4tEePL0KTZv3gyBQIAWLVrodKwAsHfvXiQnJ6N169YwNjbGhw8fkJycjHJ2dkr3mILavrrrSCYlJQVHjh5FeloaTpw4gfj4eMyZMwf6ahIPpLt3797hcFAQnJ2d0aRxY5SxtkZgYCA2+vrCT83Ldc2aNoVnmzZYvWYNJk2eDN+NGz9ZLCf/+APPnz/HiBEjUKpUKXgNHYoZM2diz9698iF9FSUojKSSnJSE3Xv2IC0tTSmJVbp0aSxdsgTDhg/HlKlTUcfZGbFxcfD29kbjfPdXbdTdl19GRwMAKuS1ayD3O2T58uXx5MkTvHnzBpUrV1apy9/PDwBUkmkPHz7EsmXL0KlTJ3Ts0AGnT5/WOb7iIDo6Glu3bVNaVrNGDaW/C3S5r2VmZMi/I0jEYjx5+hQBAQGoX7++yjnXpQ19DLblkt2WiYiIqHD4Fx0REZU4DtWqwdTUFPciI3VOQDg4OCgNfbps6VK0dHfH4EGD8PXXX+u87+zsbOzYsQPp6elwdXNTWpeUlAQ/f/9PmgAGAGdnZ8yeNUs+H7DSujp18PLlS8THx8vnH7a2tpY/EDp27BhEGuZKlMtLYg0fPlw+5+i27dvRo2dPmOfrXQzkDjF3PzJSY3WR9+/D2dlZp2NLTEzE48eP8cOYMTqVJ/onbG1tsWHDBvTt2xffjxyJ0OPHVcokJSYCAMpoGGHA1NQUpqamSE9PR1paGkqVKoVKlSqhXbt2CA0NRdjJk+jYoQNev36NsLAwVKtWTW0PjxUrVqgsc3R0VEoAew0dinm//IKAwED5UNRbNm9G1apV4eHhoTYJdvv2bdy+fVtpWeXKldFXzXC1hw4dwqF8c4ROnDBBKQEcdvIkwk6eVCpTsWJF/LZ+vU49iiUSCcb/+CNeREejT+/eaNCgAYDcZBYAlTpkv8vWK0pISMAIb2/k5OTg559+UunVuWv3bvncyEKhEFOnTmUP4EKQvSSVku+loqSkJMxQM3zmoEGDkJh3vVhZWcHQ0FCn/dy5cwd37txRWta0SROlJEXlypXh5OSEPXv2YNLEiShVqhTOnDmDv/76C/Pnz9c4zOmSpUtVlo0aNUrl4bwuMbx9+xYtW7ZUKmNubo4lixejVq1aOh3r7du38dPPP8PU1BRz82KWt/187Vdb29d0Hcm8j49XGtbVpV49dM7rUUwfb+vWrcjKypInpZycnNCyZUuEhYXhxYsXqKJmGP8JEybg9u3bOHbsGPz9/TFCzQtAH8PX1xdCoRBDhwwBAPTs2RNLli6Fv78/hgweLH/xSGbJ0qUq10PTJk2waOFCpWXffvstevTogYMHD+LevXuoVq2ayhDB2mi6L2fkDedemHv8li1bEBQcDCcnJ6VEYHZ2NsaOGwdLS0ssWbwYFy5c0Dm+4uL+/fsq972BAwcqJYB1ua8lJiWpfL7GxsYY+f33KvdwXdtQYbEtl+y2TERERIXDBDAREZU4JsbG6Ny5M3777Td069pV5UFBTk4OxGKx1qEPq1SpgiaNG2Pf/v2FSgAHBwdDIBDg6JEj8qG9ZLKzs/Fd9+64Fh6OJoV421wXivMBK2rk5oZKFSti48aN8jmvPlbvXr2wfPly/Pnnn9i7dy9CgoPVluvVsydmzJyJsWPHKiWrAOD5ixcICQnB2l9/1WmfK1euhLW1tdIwmESfU9MmTTBt6lQsWrwYP06YoDKXY+nSpQHk9vxSJy0tDenp6TAyMlKaW/N7Hx+EhoZi65Yt6NihA7Zt3w6xWIwRw4er3CsAYMeOHSifb07r/PPpuri44Ouvv8aOHTswetQo3Lt3D3ciIvDLvHmIzutBm5+np6d8bj6JRIInT57g53nz0L1HD5w7e1ZpqMNJkyapHH/+ofXr1KmDAf37QyKV4v79+9i9ezdcv/5aZchlTWbOmoXjx4/Dzc0NCxUe1prkDc2blW8uY9kcsKZ562VSU1MxaNAgPH/+HN/7+KBnz54q+5oyeTJGDB+O+IQEbPb3x9y5cyEQCOA1dKhOsZZ0b968AQCVkTVsbGywe9cutdvIrpfExERkZ2frlARWbKMy+T9vABg+bBjOnDmDvXv3Yvjw4di8ZQtsbGzQpXNnjQlgxesqNTUVu3bvxu+//w6pRILZs2cXKgZTU1PMydvm9d9/IyAgAFUqV0br1q0LPEYgtyfZ4CFDkJOTA19fX/kLa/K2rzDfMaC57QOaryOZ8vb2OHb0KHJycnAvMhILFy7Ed9274/y5cwUO60rqZWRkYEdAAMzMzODi4iLvgfjtt9/iwoUL8PPzU/tZCIVCrFu3Du07dMDCRYtQv3591TJ5/yZIFKbdkJFIJLllFL7b/vnnn7hx4wbc3NwgBeSxeHp64uDBgwgNDUXnzp2V6unatSuaNmmCrKwsnDt3DleuXkX79u1ho2YKj1/mzcPJkyeRkpKCxYsW6Txkurb7sqzd6XqPPxwUhJ9+/hlly5bF1i1blL7DL1u2DFFRUdixfbv8nlPStGzZErPzfc/P/4KTLvc1xfu5FMDbuDisXLUKo0aPhrGxMTw9PeVldWlDbMtsy0RERPR5MQFMREQl0uxZs9Cpc2cMGTIEM2bMQK1atZCdnY1r4eFYsXw5+vXrhwEDBmito1evXvh53jzM+/ln+R/nUqkUaWlpKmX19fVhZGQE/82bMWjQII09j7t37w5/P79PngAGcnstt8837JpQKMSqVaswcNAgiMRiDB82DBUqVIBYLEZ0dDSiX77EV/mGWM1PNu+viYkJBgwYAG9vb7h+/bXa4cyA3Df1Q0JC0H/AAPwybx4aN24MqVSKy1euYM7s2fj222/RtWtXpW2ys7ORkJAAIPcBytOnT7Fjxw5cvnIF27dtU3mrPjs7W+3nYGpqKk+mpaelyeuUEQiFKF2I4aepZBo1ahRu3rqFkydP4vXr10rr6tatC4FAgHv37iE9PV3lwV54eDiA3MSoIldXVzRs2BBXr13DrVu3sHv3bpQuXRo9e/VSG0PVqlVRVU3vsfxGDB+OUaNHIzg4GGfOnkWpUqXQu3dvLFfTgxjI7aFYs2ZN+e+1a9fG8xcvsGLFCoSFhWHw4MHydXZ2dkpl1alUqRIGDRok//3Dhw84HBSERo0aKS1XZ8nSpQgMDISzszO2b9um9BC0St79JebVK6VtXuX9rnj/ycrKwrDhwxFx9y769O6tlMjLH6ssiV67Vi24urlh//79TADr6OzZswCg0rtUT09PYzsxNzeHg4MDnj17hvDwcJUes5q2KajdAYCHhweqV6+OLVu3olnz5rhw4QImTpigMnWDovzXVf369REUFIQDBw8qtRtdYjAyMlJq47a2tpg7dy4WLFyIDb/9pnXbmJgYDBgwAElJSVi5YgXaKwwBWtrKCpaWlnj3/j0yMjPlCQp1bR/Qfh0pxip7KcPV1RVRUVHYtWsXLl++rJTQId3t3bdP3sPdU81Lavv278fkyZPVJnGsra2x8fff0aNnT4wcNUolcSSbJiM2NlZlW9mLGIr1bvT1BQDcuHFD7TW20ddXJWnm5uYmb7+DBw9Gk6ZNMe+XX9CiRQvUqFFDqaylpSUsLS2RkpKiNFqONgXdl6tUroyHDx8iJiYGVatWBQCIxWL8/fffMDQ0lM/9DgBnzpzBhAkTYGFhgV07dyr1rI6NjcUmPz+Ymppiy5Yt2LJlC97mvaB17vx5DBw4EEuWLFEanrc4Mjc3L3B0HV3ua/nv57Vq1oSxsTF69OyJg4cOKd0vdGlDbMtsy0RERPR5CYs6ACIioqJgbW2No0eOwL58eXTv0QNVqlaFo5MTpkyZAs+2bdFLQ9JFUadOnSASiRAWFiZf9vr1a9SoWVPl56eff8bVq1fx9OlTDBo4UGOdQ4cMwR+nTiE6b76oT0k2H7BxvmRpo0aNEBwcjJiXL+Hu4YGqDg6oUrUq2nfogPS0NKWh3wriNXQo4hMStA5ZKBAIsCWvl+PYcePgUK0aqjk6YsqUKejXrx9+37BBZZtjx46hnosL6rm4oEXLlpgxcyZsbW0RduIE3PINpQ0A02fMUPs5KPbK/HnePHmdsh93d3edj5VKLoFAgNWrVqFy5cqIiopSWmdvb49WHh5ITEzE+vXrldZlZGRg2fLlAKB2blnZXL8+33+PxMREDBo4UOfeJ5p06NAB5cuXx9q1a3HixAn06tVLqeexLmQPYXUZsrkg/fr2BZA7F7o2vps2Yf369ahWrRp2BgbCwsJCaX2NGjVgY2ODiIgIeRJeLBbjeN6c4y3z5lgVi8UYM2YMrly5gk6dOmHZsmUqParvRETg4cOHSsve5s1TnpOT85FHWnKIRCKsXrMGV65cgbW1Nbp161ao7fv37w8AWLJkCdLT05XWvXjxAtfyXpr4GMO8vBAdHY2RI0fC0NAQA7X8+6vO+/fvkZOT80nafvfvvoORkRFCQ0Px/v17jeXevXuHfv37IzYuDvN+/lntfPYtWrSAWCzGSYXvH0ePHgXw/20fKPg6AnKHchflm8tb3v7zLSfdSCQS+Pv5wcDAAPPnz8fiRYuUfvr17YuMjAxs37FDYx0NGzbEnDlzEBsbiw8fPiitc2vUCABw4MABpeRwRmYm9u3fDyD3ux2QO/friRMn4ODgoBLH4kWL0LhRI9y5c0f+cpI6hoaG6NG9OyQSCXZq6M1fGLrcl1vkJfdk93Qg9yWT9PR0NGnSRD4/9fXr1+GTN/zw9m3bULt2bZV9Va1aFfb29oh59Qoxr14hIT4eQO6IHDGvXvE+/w+9yUveartPampDbMtsy0RERPR5sQcwERGVWGXKlMHyZcuwbOlSJCQkQKinp9L7s2qVKngVE6N2ezMzMzx+9Ej+e/9+/dBfTVJH0V9Pn2pdX6NGDUTnDWemqGHDhhrjWLd2rdbfFTk7O+Opmhhq1awJf39/SCQSxMfHw9jYWO38vQXtu1y5cnj+7JnSst69e6s8wDYwMMDkyZMxefJkJCYmQiAQqAwbqrgPbceU380bNz5JGSJtLC0tscnXF926dUNmvt5ZixcvRtdu3bB23Trcun0bzZo1Q3p6Oo4ePYro6Gh4enqij5qkTseOHVGhQgW8evUKhoaGGJI3v506q1evhkW+a7RJkyYqPV/09fUxdMgQLFq8WKfhjCMjIzF//nwAgFgiwbNnz3D27FlYW1ujVatWSmWDgoLw4P59pWV2dnYYO3asxvo9PDxQrlw5REVF4e7du6hXr55KmXPnz2PBggUAgPLly2PhokVK61euWAE9PT2M/eEHzP3pJ/Tt1w/du3fH7Vu3cOfOHTRv3hyurq4AgOUrVuBEWBiEQiEM9PUxecoUeT0OVati7NixWLlyJS5cuAAPDw/Ud3FBWloagvKGsP9fIZOZJUFGRgYmTJwIIDdBGhUVhdjYWJibm8N340aVFwySk5PV9rru168fnJ2d4T1iBM6dO4dLly7Bo1UrdOjQARbm5nj0+DFOnz6N+vXr49DBg/LtIiIi1NY3c+ZMCIXK7zf3yJsb8q+//sJ3330HW1tbJCUlaTy2Db/9Jk+Spqal4fTp05BKpejevbtSOW0xaGJlZYV27dohJCQEBw8dwvc+PmrLjfD2xosXDQFB1QAAIABJREFUL2BtbY17kZHycw0Abdu2RccOHTBm9GiEhYVh+owZeBAVhaSkJOzcuRPW1tYYmNfTTZfrKOLuXYwbPx5Lly3Dt23borS1NSIjI3Hq1CmULVsWLZo313g8pNmJEyfwIjoa3bp2VXvPTUlJQciRI9i2bRtGfv+9xnqGeXnh5s2bCAkJUVre1tMT9V1ccCciAu3at0e7du0glUoRGhqK58+fw83NDa3z7tf+/v4Qi8Xw8fZW+wKEg4MD+vTtC99Nm9BYy+gzffr0we8bN+Lw4cOYNXPmP3opQpf7cq+ePbFhwwYEBgYiJzsbdnZ22BEQAKFQiLE//AAg9/4z1MsLmZmZqFmjBnbu2qWU1Bs1ciSqV6+O8+fOKe0/ODgYY374AZ06dsTyvJeySLf7WkpKivw7ApD7skjYyZMQCAT43//+p7V+dW2IbZltmYiIiD4vJoCJiKjEEwgEKFOmTFGH8UUQCoVq58T6nKw45DL9Rzk7O2P+ggWYovDADwAqVKiA48eOYcnSpTh27BguX74MILd38LSpUzF69Gi18/rq6elh+LBhmPfLL+jWrZvSfLv5HTp0SO3y/AlgAOjXvz9Wr1mDJk2awMHBQesxPXnyBE+ePAGQe2+0sbFB+3btMGnSJJV4rly5gitXrigtq1GjhtYEsJ6eHnr16oV169Zhz549ahPAMS9fyoeWv3jxosr65cuWQSgUYtiwYUhJTcXGjRuxcuVK6OnpoUP79li2bJm87Mu8uY4lEok8qSvj5uaGsWPH4qe5c7FmzRqcPnMGZ86cAZD7MstPc+dqHc2gpMrJycH+vJ5ZxkZGsC9fHl5Dh8LHx0ftkJnp6enYtn27yvKmTZvC2dkZenp6CAwIyH1AvnMntmzZIq+7VatWKtfXs2fP8Czfi0YAMHHiRJUh102MjdG/f39s2LABw4YNK/DYdu/ZI/9/Y2NjVK5cGT7e3hg+fLjOMegpzFeZX98+fRASEoI9e/ZoTADL2mxCQoL8PMvYlyuHjh06oF69etjk64s5c+fit7zhpOvUqYOVK1bIX2TT5TpyqVcPCxYsQGBAALZt3w6pVAoDAwN4enpi1syZOr0IRv8/f6nss/fdtAkA4OXlpba8ubk5enTvjh0BATh06BCstXwHXZ4356fsvizbT2BgIBYsWICQI0fkbaBUqVIYMGAAZs+aBYFAgMTEROzdtw+WlpYqLzHING/eHNWrV8cff/yBv/76S2Mcjo6OcHV1xc2bN3Hy5El06dJFyxnRTpf7spmZGXbt3IlJkydj7759AIBydnZYuHYtmjZtCiB37vDk5GQAwMNHj/BQ4aVMILfXffXq1T86zpJGl/taWlqavH0DuS/DOTs7Y/SoUWjl4aG1fnVtiG2ZbZmIiIg+L4FU9lchERFp9ePCtfDdHVxwwX9ZxKHfYZbvgScR0b8lLT0dLt1HfdZ97Fo2Ha51aqj07vsvkEgkePfuHYyMjPiyw2eSk5ODd+/ewdLSEmZmZh9dj0QiQUJCAoyMjL6IxFeOSASJWPxJhh/+L0lKSkJaWhrKli0LQ0PDog7niyaVSvH27VsYGBjA2tr6H9WVnp6OlJQUlC1bVmsSu6hkZWdDTyiUD5f6JVm1ahVWrV6N7318MGfOnH913yKRKHd6C4EAtjY2X+Rn9099SExEZmYm7Gxt/5PfAworJycHUgCGWuYrL47Ylr8MIpEIB09exKy124o6FCKt4q6FwKLUx3/vJyIqKb68v56IiIiIiIoJoVCotScv/XMGBgYoX778P65HKBSibNmynyAi+icsLS01TglAygQCwSe7v5iamqr0oCbtxo4di7+ePcP9vKHw3d3d//UY9PX1YW9v/6/v99+Uf3oWKp7YlomIiIg+PSaAiYiIiIiIiIgKQainh/j4eNStUwfde/SARwFD4BIREREREf2bmAAmIiIiIiIiIiqEX9esKeoQiIiIiIiINPoyJ50gIiIiIiIiIiIiIiIiIqJCYwKYiIiIiIiIiIiIiIiIiKiYYAKYiIiIiIiIiIiIiIiIiKiYYAKYiIiIiIiIiIiIiIiIiKiYYAKYiIiIiIiIiIiIiIiIiKiYYAKYiIiIiIiIiIiIiIiIiKiYYAKYiIiIiIiIiIiIiIiIiKiYYAKYiIiIiIiIiIiIiIiIiKiYYAKYiIiIiIiIiIiIiIiIiKiYYAKYiIiIiIiIiIiIiIiIiKiYYAKYiIiIiIiIiIiIiIiIiKiYYAKYiIiIiIiIiIiIiIiIiKiYYAKYiIiIiIiIiIiIiIiIiKiYYAKYiIiIiIiIiIiIiIiIiKiY0C/qAIiI6J8Ti8VFHQIRlVB6Qr5PSERERERERERE9CVhApiI6D/u/YdkGBrydk5ERUMslhZ1CERERERERERERKSAGQMiov+4NsOnFXUIRERERERERERERET0hWACmIiIiIi+aB+SU/EhObmowyD6Vwny/puakVHEkRAVPUHeFSEFR52g4o1tnYqSAAIkpaYXdRhERET0iTABTERERERftDEL1hd1CERERERERERERP8ZwqIOgIiIiIiIiIiIiIiIiIiIPg0mgImIiIiIiIiIiIiIiIiIigkmgImIiIiIiIiIiIiIiIiIigkmgImIiIiIiIiIiIiIiIiIigkmgImIiIiIiIiIiIiIiIiIigkmgImIiIiIiIiIiIiIiIiIign9og6AiIj+mYAl02BkwNs5ERUNsUSCflMWF3UYRERERERERERElIcZAyKi/7i61avA2MioqMMgohJKJBL96/usVqk8wjYx6UxERERE9CkNmbkcl29HFnUYRERE9AkwAUxE9B8nAKCvp1fUYRBRCZWVlVXUIRAREREREREREZECzgFMRERERERERERERERERFRMsAcwEREREZU4qSkSJCWJkJSQg/R0CbKyJBD/+6NZf5EMDAQwNBbAzEwPlqUNYGmpB1MzvjdKRERERERERPRfwQQwEREREZUIqakSxDzPQEK8GGKxtKjD+WLl5EiRkyNFWooEb2NzAAD6+gKUsTVApSpGMDFhMpiIiIiIiIiI6EvGBDARERERFWvpaRI8/ysD8e/YxfdjiURSxP2djbi/s2Fnb4CqjiYwNBQUdVhERERERERERKQGE8BEREREVCxlZUrw/K9MeS9W+jTi3uTgXVwOylc0QsXKRjAwYCKYiIiIiIiIiOhLwgQwERERERU7qakSPLyXhvR0SVGHUixJJMCr6Cwkf8hBzTpmMOaw0EREREREREREXwwmgImI6LNLTU3Fu3fvYGJignLlyimtk0gkyM7O1ritsbExACAzMxMCgQBGRkZqy+lajyKRSIS4uDhIJBLY29tDX19fvlwk0j5UrJ6eHgwMDJCdnQ2JRAIjIyMIBAKIRCKIxWK1cUqlUmRlZUEoFMLQ0FBtvfHx8UhOTkbZsmVhbm6uNQYg97woksWhC9lxqtumMOdAkexzMDAwgJ6enso26j4ndfWok52dDalUqrENyGRlZSE2NhZ6enooV66c/HOVyX/OFBkaGkIoLDiRVVAsmZmZGs9BTk4OxGKxfF/5z4m2dk66iX2djaePMyBh7vezS06W4Pb1VNSsYwrrMvzTgoiIiIiIiIjoS8BX9YmI6LN58OAB+vTti9rOzmjp7g5XNzc0aNgQCxcuRFpaGgDg5B9/wNHJSeNPQkICkpKS4OjkhAYNG2rcly71yMTGxmL8jz+iZq1aaNykCZo2awbnOnUwadIkvH37FvMXLNBal6OTE8b/+CMAoHOXLnB0csKDBw8AAPMXLEA1R0cEBwerxPjq1Ss4OjlhwIABSstzcnKw5tdf4ermBpf69dHS3R21nZ3RqVMnHD16VOMxy86L4k/lKlXQuEkTTJkyBc+ePdP6+fTp0weOTk44dOiQyrrCnANFq1atgqOTE6ZNm6Z2n+o+p6oODqjfoAEmTpqEuLg4tdslJyejnosLqteogZiYGLVl4uPjMXHSJNSpWxfNW7RAk6ZNUdvZGWPGjMHzFy80njPFn9DQUK3nTJdYZPvo2KmT2mTz1GnT4OjkhPDwcLXnpJqjIxyqVYOnpydWrFiBpKSkAmOi/xfzIguPHzL5+28SiaS4H5GGOA61TURERERERET0ReBr+kRE9FnExMSgZ69eSE9PR/fu3VGrVi0kJSbi3Pnz+H3jRjg6OqJPnz7y8k5OTvimdWuVekxMTLT27M1PWz2yuLp264Z3796hYcOGaOXhAQC4Fh6Ovfv2oXz58vi6YUOk5yWoAWDf/v0Qi8Xo1asX9PN6dNavX19rHFOnTUPt2rXh5OSktZxIJEL/AQNw9epVVKhQAT7e3rC2tsbLmBiEhoZi6rRpaNOmjTx+dQwNDdG7d28AwPt37/AgKgq79+xBUHAw/Pz85Meo6E5EBMKvXwcA+G7ahB49eiit/5hzkJGZiR0BAQCAw0FBmDp1KmxtbdXGXLNGDXz77bcAcnvshl+/jn379uHhw4c4fuyYSvmdu3YhNTUVAODn749f5s1TWi+RSDBg4EBERkaiRYsWaNmiBSQSCW7euoUjR4/CwNAQa1avlpc3MzPDwHyJeABwqFZNbbyFiUXm/v37mD17NlasWFFgnQBQsWJFeHh4QCKR4PWrV7h77x7W/PorDh46hAP79+Orr77SqZ6S7MWzTLx8nlXUYZRIUinw6H46AFPYlSu4Rz8REREREREREX0+TAATEdFnsX//fiQnJ2P8uHGYMmWKfPnUqVMRFhYGj3xJyTp16mDOnDlq6ypMAlhbPQAwbfp0vHv3DkOHDMGCBQuU1oWHh6Nq1aqwtbVF165d5csPHT4MsViMBfPnw8zMTKc40tLS8P3IkTh65AhMTU01lvP19cXVq1fRoEED7Nu7VynR+9Pcubhx86bW5C+QO7z1ksWL5b9LJBL4btqEhQsXYsyYMbh86RKsrKxU9gsA7du1w4mwMFy4cAHu7u7y9V27di30Odi/bx8SEhLQoX17hJ44ga3btmHa1Klqy9aqXRtTFdaJxWJ806YN7t69i5iYGFSsWFG+LicnB1u2bIGdnR3Kly+PvXv3YuKECUrHFB4ejsjISDRq1Ah7du9W2ldUVJTKMNDm5uZa24kmusSiaM/evXB1c0NfhZcdNKldq5bS55icnIxp06fjyJEj+PHHH7F///5Cx1uSvHmdzeTvF+Dxg3ToG5ihDIeDJiIiIiIiIiIqMhwCmoiIPov09HQAgL6auV3btWundk7ez+3169e4ePEizM3NlZKPMo0bN9bYY7WwXOrVw+PHj9XuR9GuvGTlrFmzVBK9ZmZmanvvFkQoFGLUyJHwcHdHUlISgkNClNbHxMTg+PHjaNasGeYvWAB9fX15QvhjSSQS+Pn7w9zcHKtXr0b16tUREBAgbwcF0dPTg4mJidr5b0NCQvDmzRsMHDgQ3iNGIC0tDYGBgUpl5O1NXzXpVKtWrQJ7YutKl1hkKlSogDJlymD27NnyIcILw8LCAsuWLkWZMmVw9do1PH78+J+GX2ylp0nw9FFGUYdByO0J/DAyDdnZ0qIOhYiIiIiIiIioxOKr+URE9Fm08fTEJj8/rF69GvcjI9G2bVu4u7vD3t5ebfnnz58jIG/4YBk7Ozv5MMG60lZPZGQkpFIpatWqBQsLi8IdUCGNGzcOW7ZuRVBwMFzd3DB0yBCVMsnJyYiOjoZQKMTXWuY3/ljuHh44f+ECIiIilJb7b94MsViM4cOGwb5cOXTs2BEhISGIevgQtWrW/Kh9nfzjDzx//hwjRoxAqVKl4DV0KGbMnIk9e/dimJeXSvno6Gh58js7OxtXrlxBZGQkhg8frpKE9920CUZGRhg4YABKly4Ne3t7bN22DT4+PjA0NAQANPz6a5QpUwZXrlxB5y5d0KVLF7i3bIlatWqpjTcjI0OlnQDAoEGDtB6nLrHIWFtbY8b06RgwcCB8fHxw/PjxQrc7c3NzNGjQAKdOnUJERASqV69eqO1LArFYigf30iBlvvGLIRYBD++no259MwgERR0NEREREREREVHJwwQwERF9Fk2bNMHatWuxdOlSnAgLw4mwMAC588b+8MMPaN+unVL5O3fu4M6dOyp1FDYBrK2exMREAICNjU1hD6fQ9PT08Nv69Wjfvj1++eUXuLi4oGyZMkplZPFYWVnBQKGndM+ePfGnwjHMnz8f/fv1K3QMdnZ2AICU5GT5sqSkJOzZsweVKlVC27ZtAQDDvLwQEhICX19fpXlyC8PX1xdCoVCe6O7ZsyeWLF0Kf39/DBk8GHp58wbL3L59G7dv31ZaVrlyZZWhki9evIgHDx6gZ8+e8s9t8KBBWLpsGQ4fPiyfR7q0lRUCAwIwe84c3Lp1S94GKlasiCFDhmD4sGFK5zgpKQkzZs5UOQ5tCWBdY1HUsmVLTJo0CcuXL8fEiRPh7++vsX5N5J9jSkqhty0J3sbmID1NUtRhUD6JCSIkJohQmkNBExERERERERH96/hEhoiIPpv/deuGbl274k5EBK5euYKzZ8/i6rVrGDFiBFavWoVevXrJy3p6emL6tGlK22ubO1cTbfWULl0aAPD27dtC1/sxypYtiw0bNqB3nz4YOXIk/DZtUloviycxMRHZ2dnyHqT9+vVD69atcSciAqGhoRCLRB+1/zdv3gAALC0t5csCAwORlpaGAf37I/rlSwBAmbJl4eDggODgYEybNg325coVaj9//vknbty4ATc3N0gBPH/xAkDuZ3Hw4EGEhoaic+fOStsofk4SiQRPnjzBz/PmoXuPHjh39qw86SkbmrrNN9/I623evDn09PSwyc9PKelat25dBAcF4cWLF7h06RIuXrqEU6dOYcGCBXj8+DFWrVwpL2tjY4Pdu3YV6jgLE4uicWPH4tatWzgRFobfN24s1D4B9Z8j5RKLgRfPMos6DNLgrycZcC1jXtRhEBERERERERGVOEwAExHRZyUQCNCgfn00qF8fo0ePxp69ezF58mTs3btXKQFsbm6Omh85/LAibfXUrVcPAoEAUVFRSExMhJWV1T/eX0EaNWqEmTNm4Jf58zFp8mSVWKtUqYIXL17g5s2baNasGQCgR48eAHLnBw4NDf3ofZ89exYA0KBBAwBATk4Otm7dCgDY5OeHTX5+Ktts2bIFs9T0jNVmY15i9MaNG2jZsqXa9fkTwPk/p9q1a+P5ixdYsWIFwsLCMHjwYDx69Ajnzp8HAIwaPVql3kePHuHM2bP4pnVrpeVVqlRBlSpVMHDgQDx//hytWrfGwYMHsXTJEnkZPT29QrW3j40FyL0Gfv31V3To0AFLly6Fg4ODzvtNTEyU95SWfY70/97GZiOHc81+sdLTJPgQz17ARERERERERET/Nj6NISKiz+LBgwdIS0uDm5ub0nJZL0aTj+jd+0/ZlyuHb775BqdPn8bSZcuweNEipfUXLlyAk5OTxnmKP5aPjw9u3rqF48ePq6zr378/Fi1ahEWLF2P/vn0wMTH5x/sTiURYt349rly5Amtra3Tr1g0AEBQUhNi4OHh6eqLNN9+obLdq9Wrs3LkT48eNQ6lSpXTaV3R0NE6cOAEHBwd4jxihsj4oKAjh168jPDwcjRs31lqXrKerkZERgNz5dgHAx9sbVatWVSqbkpqKRYsWwdfXF9+0bo309HQcP34cPXr0gEBh0lFzc3MIBAIYGBhAX//jv/YUJhZ1SltZwXfjRnTv0QOPHz/WaZ8fEhMxedIkJCYmopWHR6ESxyXFq5dZRR0CFSDmZRYTwERERERERERE/zI+jSEios9iw4YNCAoOhqurKxo1agQLc3O8jIlBcHAwBAKBfK5YmYiICMyePVulnpkKvVEzMjIwdtw4lTLzf/lFp3pMTU2xZPFidO3WDQEBAbhz5w7c3d0BADdv3ED49esYP24cpkyZ8tHHrcnKFSsQFRWF58+fKy3/3scHly5dwoULF9CqdWt07tQJNra2SEpKwvm8HqcFycjIwISJEwEA79+/R1RUFGJjY2Fubg7fjRvlyVxZj9/Zs2bB0dFRpZ64uDis+fVX7N69G97e3jrt29/fH2KxGD7e3hg4cKDKegcHB/Tp2xe+mzYpJYAjIyMxf/58AIBYIsGzZ89w9uxZWFtbo1WrVoiLi0NQUBDs7e0xc+ZMtcnb06dO4fLly4iMjERERASmTZ+OX9euRSsPD9jZ2SExMRFHjh6FSCSCt7e3UmI4OTlZbTvp168fnJ2dVc5LYWKpWLGi2nPl4uKCn3/6Se3cwwBwLzISEyZOhEQiwd+vX+P+gwdITk5GtWrVsFJh+GrKlfRBhIx0zv37pUtMECE7WwpDQ0HBhYmIiIiIiIiI6JNgApiIiD6L2bNno3Tp0jgeGoqbN28CyB0Kt06dOpg4YQLatGmjVP7Zs2d49uyZSj0TJ06Enp4egNwhjA8fPqxSZuaMGTrVY2pqCnt7e4QeP45ly5cjJCQE9+7dAwD8H3v3HR9Vlf9//D0zycyQQgoJoYhiCF2qoIAKuICCFBXYBZS+VPe7ChZQVvS3KoqiohQlFAFBARFpCqyIglKkqIAIS1FAKaEnQPqU3x+QWcZJhSQ35fV8PHjonHvuue97Mw9I5pNzTmhoqPr17atBmcxizQ/BwcGaPn26unTp4tVusVg078MPFTt9uj7+6CPPTFNJKleunDp27JjjzNn09HQtXrxYkmS32VSxUiUN6N9fQ4YM8RQjN2zYoH379qlly5aZFn8lqXfv3poydapmzpqlAQMG5DhjNj4+Xos++UQhISHq2rVrpn3uuusu1ahRQ2vXrtWvv/7qaT948KAOHjwo6cr7IjIyUu3vv19PPfWUoqKiNP7115WWlqa+ffpkmaN///7aum2bYmNjNWHCBCUkJOjTJUs0Z+5cud1XlgWuXLmyxowZo2FDh3qdm5SUpDlz5/qM2bx5c58C8Ow5c/KU5ZVXXsniiUl9+vTRjh9+0JIlS3yOnThxwvN1DAwMVEy1aurQoYMGDBigwMDALMcsrU7HpRkdAbl05lS6KlexGh0DAAAAAACg1DC5Mz4hBQBka8S4SYpdsNzoGD52ffa+Ag1YTjkvLsTHK/HyZYWFhRWpQpbb7dbZs2flcrlUvnx5rxmiRklMTFRCQoLCw8Nlt9uNjlMsJSYmKj4+XgEBAQoLCzM6TomXmJSkBl2HF+o1q91cSa8MGMMM4GIiPMJPtzUoOn/3AwAAIHP9xkzQph/3GB0DyNap71eobBA/XwBATpgBDAAocGGhoQoLDTU6ho+MmadFSWBgYJEqkhdHPMOSz2L2o/hbjMRfcBgdAQAAAAAAoFQxGx0AAAAAyAt/P3+jIyAPXE7J5WLRIQAAAAAAgMJCARgAAADFitXCIjbFjZsJ2wAAAAAAAIWGAjAAAACKFYvFYnQE5JHLzQxgAAAAAACAwkIBGAAAAMWK2cS3sMWPyegAAAAAAAAApQafngEAAAAAAAAAAABACUEBGAAAAMWKiw1liyGWgAYAAAAAACgsFIABAABQrDidTqMjII/MJpaABgAAAAAAKCx+RgcAAJROly5d0tmzZxUcHKyIiIhs+7pcLqWlpcnf318WiyXTY9kxmUyy2WxKS0uTy+WSzWaT6U/FCLfbrdTUVJnNZlmtVkny9M+Mn5+f/Pz85HA45HA4vI5ZrVaZzb6/Y5XRN+M+MrJnlkeSUlNT5Xa7ZbfbM82Ql2d47f1kXM/hcMjpdMpms/n0zevzyOprc/r0aTkcDkVFRcnf3z/LTBkyvlZZ5ZfkyZOZ9PR0zz1mNYbb7c70eEpKSpbjZrDZbHK73UpLS5PFYsnynuLi4mS32xUZGZnp1zYtLU0mkynT851Op9LT0z3vMfhKczpy7oQihW2bAQAAAAAACg8fxQAACtXy5cvVvkMH1a5TR/e0bKmGjRqpeYsWmjJlitLT0zM95+2331ZM9eoaPXq0z7Ev165VTPXq2f5p1ry5JKlT586KqV5dv/76q884e/fuVUz16nro4Yc9bRn9M/vz//7f/5MkvfzKKz7HqsXE6O577tHUqVO9isMZfWfPnu2V/bkxYzK971atWyumevV8eYbX3s/evXs9earFxGj58uU+fY8dO6aY6tX16KOP5up5fPzxx55+ycnJevnll1W/fn01adpUzZo3V+3atfXEiBE6depUppmufXY1atZUx44dtWr1aq++3bp3V506dXT+/PlM78/tdqtN27aqV79+pscvXryo+g0aqEbNmvrjjz+8jiUkJOT4Psp472R83YYNG+Y1xh9//KHhjz2mmrVqqcVdd6nx7berYaNGmjBhgs8vKXTq3Fn1GzTQb7/95pNzyZIliqleXZMmTcr0PiClO7J+n6PoMZsls5kZwAAAAAAAAIWFaSUAgELzxhtvaNLkyQoKClKvXr10y8036/z581r39dca//rratasmZo0aeJ1TnJKij6cN0+StHTZMo0aNUrly5f3HK9y003q1bOn5/X6DRt08uRJtWrZUpUqVZIkBQcH31DuXj17qmzZsl5tTe+4w+t1mzZtVLdOHUlXCo1frl2r18aP16XLl/VsJoXra82fP193NG2qrl275pjlep5hTkaNHq06deqoeibF5sx07dpVYWFhXm21a9eWdGUWbbfu3bV7927Vrl1bgwYPltVq1fr167VkyRJt3LhRn3/+uSpWqOB1fr++fRUSEiK3pLi4OK1atUpDhw7VvHnz1LpVK0+/lNRUzZs/X088/rhPrnXr1um3335TQEBAprk/+vhjXb58WZI0Y+ZMvfTvf3uOWW02r/fRvn37tHPXLtWqVUuNGjb0tP/5fZDh119/1YMPPaT4+Hjde++9atGihZKTkrR8xQq9O2mStm3froULFnjNkr506ZKGDBmilStXqkyZMpmOi8w5XQ7ZbCalprKvbHEQXNaScycAAAAAAADkGwrAAIBCsWPHDk2eMkVly5YAMMuNAAAgAElEQVTV6lWrdMstt3iOjR07VqvXrMm0cLn4k090/vx5dWjfXqvXrNHsOXM0etQoz/G6detqwoQJnte9e/fWyZMnNWDAALVt2zZfsj/2j3/o1qpVs+1z//3365FevTyvn3jiCTVp2lRLly7NsQAsSaOffVZ16tRRrVq1suxzvc8wJ4mJiRo6bJg+X7kyy+LptR4bPjzLnFOnTtXu3bvVsmVLfTh3rmcJ48eGD9fYF17Q7Nmz9eKLL2p6bKzXeYMGD/Z6xu3attWQoUO1bNkyrwKwJH344YcaPmyYz1LQsz74IMvM6enp+uCDDxQVFaVKlSpp0aJFenLkSIWGhkqSytjtXu+jqVOnaueuXWrVsqXGjh2b4zMZPXq04uPj9dRTT2nkiBGe9scee0zdu3fXli1b9OG8eRrQv7/Xef/dv1/PjRmjdyZOzPEa8BYa5qdTccwELg5CwviRAwAAAAAAoDCxBDQAoFAsXLhQbrdbgwcP9ipcSlf2fX2gQwefc1wul2bMnKng4GBNnDhRNWrU0Lx585SUlFRYsa9bRESE7Ha7Ll68mGPfevXqKTU1VUOGDvXMUM3M9TzD3GhQv74OHDigUdcU1q/X4k8/lSQ99+yzPvvXPvXkkwoICNDatWsVHx+f7TiVKleWpEyf36lTp7Ry5Uqvtv379+u7777LcrwVK1bo5MmT6t27twYPGqTExETNnz8/V/eUkz/++EPfb92qcuXKafifloW22+2e5/rp4sU+5zaoX1+ffvqpPvroo3zJUppElM96L2gULRGRvntdAwAAAAAAoODw6/gAgELx8549kqSmeZih+uXatTp8+LAGDRqkoKAgDejfX8+NGaOFixZp4IAB151l6dKlioiM9GqLi4vLsv/y5ctVLjzcq61du3aqcM0yxufPndPhI0ckSRcTErRg4UIlJiaqQy6Ksi2aN1fbNm008Z139NTTTyt22rRM+13PM8yNxx9/XB/Mnq1ly5erSdOm6t+vX7b9l69YoS3ff+/V1rNHD6WlpenYsWOy2Wy67bbbfM4LDQ1V9ZgY7dq9WwcPHlTTpk09x04cP37lf9xuxcXF6a233pIk3X333V5jWCwWVahQQTNmzlS3bt087TNnzZLdbld4eHimxeXY6dNls9nU+9FHFRYWpooVK2r2nDkaMmSIz0zivPrl6p7Kt9WtK7vd7nM8Y1b23n375Ha7ZTL9by/UKVOmqGu3bnrhxRdVr1491c9i/2L4Co/wk7+/SenpLANdlAUGWRQUzBLQAAAAAAAAhYkCMACgUGQU5SKvKbxOmDBB065ZCrhTp0569513PK9jY2NlNps9Bcnu3btr/Ouva+bMmerXt6/Xfqp58e6kSXnq/+abb/q0xcTEeBWAx7/+usa//rpXn+bNmunVceNydY2RI0fqxx9/1BdffKGZM2dq0KBBPn2u5xnmhsVi0dQpU9S+fXu99NJLatCggSLKlcuy/+TJk33aOj7wgFJSUiRJ4eHhXkXOa2UU3v9cpO1xzf67GZn69Omjvn36+IzRv39/jRs3Tt9v3apmd96pCxcuaOnSpXr4oYe0a/dun7G/++477d27V927d/c8u759+uj1N97Q0qVL1aNHjyzvNTcSrl6vXEREpscDAgIUEBCgpKQkJSYmKigoyHOsfPnyeu+999SzZ08NHTZMq1etuqEspYnJJFW8yarfD6caHQXZuOlmm9ERAAAAAAAASh0KwACAQhEWFqbjx4/r9OnTqlmzpiTp7nvuUUBAgC5cuKBpsbFKT//ffp4//fSTtm/frqZNm8oteWbXtm3bVkuWLNHq1avVqVOn68oyPTZWla8uMZzht8OH9c9//jPT/h9++KEqVazo1XbzzTd7ve7SpYuaN2um1NRUrV+/Xpu3bFH79u29irXZMZvNmjx5stp36KBxr76qhg0b+vTJ6zPMi4iICL333nv6W48eGjZsmGZMn55l3+mxsT5LUIeHhys5OVmSdO7cOblcLpnNvjtNnD592tP/WiOeeEJRUVFKSEjQZ0uXKiEhQZ06dvRZRlqSevXsqYkTJ2rmjBlqduedmj9/vlJSUjRw4EA9cc3+uxlirxbI2/zlL5730V133SWLxaLpM2bccAE4LCxMknTmzJlMjycmJiopKUk2m82r+JuhebNmGj1qlF597TWNGDlSHdq3v6E8pUmVm+06/keqnA6jkyAz9jJmla/A8s8AAAAAAACFjQIwAKBQ1KtXT3v27NG2bdt0zz33SLpS+GrerJkOHzniNYtVkuf19u3bPf3/fPx6C8A1atRQTEyMV1tmhcYMt956q26tWjXbMZs2bao+V2er9u3bV82aN9e/X3pJd999t6dYm5Pw8HBNe/99deveXcOGD1dqqvfMxrw+w7y64447NOa55/TSyy/rqaefzrJfdHS0atWq5dMeHBysW2+9VYcPH9bOnTvVuHFjr+Pnz5/XoUOHZLfZVKNGDa9jnTp18ozZpm1btWvXTiNGjtTmTZvk7+9dQAoNDVX3bt00/6OPdOjQIc398EM1b9ZMtWvX9sm0f/9+rd+wQZI0/LHHMj3+9Tff6C/33pvl/eakXr16MplM+vnnn5WUlKSAgACv41u3bpWkTJfFzjB8+HDt+OEHffnllzqesRw2cmTxk26uWkaHDyUbHQWZuLWaXVksBgAAAAAAAIAC5Ds1BwCAAtCrZ0+ZTCbNnDVLR67OwszK0aNHtWbNGkVHR+u1V1/1+XPnHXdo586dnsJaUWO1WtWta1e5XC599PHHeTq3cePGGjt2rOLi4nThwgWvY3l5htdryJAheuCBB7Rv377rOr/X1aWcXxs/3mc28hsTJig5OVkdO3VScHBwlmPUrlVLDRs00MmTJ/XVunWZ9hk4cKDcbrf+PmiQ4uLiNGDgwEz7xV6dyTxk8GCf99GYMWOu9LnBwnnFihXVulUrxcfHa8qUKV7HkpOT9caECZKkXr16ZTmGyWTSxLff1i233HLdz760uulmq2x2vqUtakLDLIqMYvYvAAAAAACAEZgBDAAoFI0bN9aTTz6pt956S/e3b68uXbooOjpaKSkp+vnnn736zpw5U06nU0MGD1bv3r19xoqOjlaPnj0VO3267rzzzgLPPnHiRJX9U8GyWbNm2c5A7tGjh96fNk1Lly7Vv8aMkc2W+30wBw4YoB07dmjFihVe7Xl5hjfirTff1L59+3T48OE8nzt48GCtW7dOW7ZsUbv77tMDHTrI32rVt99+q+3bt6tKlSp6YezYHMfp0aOHdu7apUWLFmW6JHJMTIxat2qlb9avV+XKlXX/fff59Dl16pSWLVumihUrasyYMZnO8l731VfatGmT9uzZk+0M3Zy89tpr6vLgg5o0ebJ++PFHtWjRQklJSfr888919OhRtW3bVj3+9rdsxwgJCdH02Fg9+OCDSkllX9vcMpmkuvUC9OP2S5KYbloUWCxSzToBOXcEAAAAAABAgaAADAAoNCNHjFCtWrU0bdo0LVy4UG63W5IUGBioFi1a6OGHHlJ8fLwWffKJQkJC1LVr10zHueuuu1SjRg2tXbtWv/76q6pVq1aguT/77LNM27MrAMfExKhJkybasWOHvvzyS3Xu3DlP15zwxhvat2+fDh486NWem2d4o4KDgzV9+nR16dIlz+f6+/trwYIFmjRpkj5esECTJk/25HvkkUf07OjRPvv/ZubBBx/Uv196Sd98843i4uJUoUIFnz4D//53fbN+vfr16yeLxeJzfPacOUpLS1PfPn2yXOK7f//+2rptm2JjYzX5atbrcdNNN2nVF19o/Ouv64svvtCmTZskXZkdPHrUKD322GMy5WIt3Lp16+rlV17RM888c91ZSqOgshbF1AjQoQMsBV0U1LotkFnZAAAAAAAABjK5Mz45BgBka8S4SYpdsNzoGD52ffa+AgOK30yrtLQ0nTt3TkFBQdkuB4ysFYdneOHCBaWnpysyMjJXBdCSwOVy6cyZM7LZbAoNDTU6ToFLTEpSg67DC/Wa1W6upP9Mf82n/chvKfr9MLOnjVSzdhlFVbIaHQMAAADXod+YCdr04x6jYwDZOvX9CpUNCjQ6BgAUecwABgAYwmq1qmLFikbHKNaKwzMMCwszOkKhM5vNioqKMjpGqVQ12i6LxazDh5gJbIRadQNUvgL7/gIAAAAAABiNAjAAAABKjCq3WOXnb9LBfUlGRyk1zGapdr1AlYvgRwsAAAAAAICigE9pAAAAUKJUrOQve5kg/bLrslxOo9OUbFarSbc1ClJQEHv+AgAAAAAAFBV8UgMAAIASJyzMotvvDFY4s1ILTFQlq26/M5jiLwAAAAAAQBHDJ2IAAAAokcqUMeu2BoG6dNGpw7+mKP68w+hIJUJUBX9VudWugAAKvwAAAAAAAEURBWAAAACUaMFlLarfKFCXL7l06mSqTp9KV3qa2+hYxYrNblJUBasqVLLKXobCLwAAAAAAQFFGARgAijm3pMSkJKNjACilTCaT0RFyLSjYrKDgMqpWo4ziLzh1Oi5Vly65lJbiUno6BeFr+VtNstnNCgmxKDLKqrIhFqMjAQAAAAAAIJcoAANAMXd7938UqwIMgJLF7S78wumvv59QrY4D831ck8kks6l0z251uV2GfE0BAABgPIfTaXQEAACQTygAA0Ax53S5jI4AAIWOD6cAAAAAAACAzJXuKQ4AAAAAAAAAAAAAUIJQAAYAAAAAAAAAAACAEoICMAAAAAAAAAAAAACUEBSAAQAAAAAAAAAAAKCEoAAMAAAAAAAAAAAAACUEBWAAAAAAAAAAAAAAKCH8jA4AAAAA5NbUsY+rbfNGRsdAced0y3Q+We74ZLmT02VKdUppTrlTHTKlOoxOhyLCbTFLVotks8hk85NsflKgVYoIkIKsRscDACDf9X3uDW3dtc/oGAAAIB9QAAaAYq7/w/fJ38Jf5wCM4XK7NGvJmkK7nsVsksXMIja4DskOueMuyXXqknQ2Se6rzaZrupgyOw+llsnhkhwuKSnd96DdT4oKkrl8kExRQYUfDgCAAsD3QgAAlBxUDACgmHui90Oy+vHXOQBjuKVCLQADeZaQIud/z0hnEo1OgpIkxSEdjZfraLzkZ5Y5JkKmW8MkCx+dAwAAAACMR8UAAIo5s8kkm81mdAwApVRiUpLREYDMpTrk/PmUFHfJ6CQo6Rwuuf57WvrtnCy1y0tVQoxOBAAAAAAo5SgAAwAAAChR3L/Hy/nLKZmc7pw7A/klzSnnrpPS8QRZGlSUyvgbnQgAAAAAUEqxgRoAAACAkiHFIeeW3+XaHUfxF8Y5myTnhsNy/x5vdBIAAAAAQCnFDGAAAAAAxd/5ZDm2/SGTw2V0EuDKstC742Q6fVnmJjcZnQYAAAAAUMowAxgAAABA8XY+Wc6tv1P8RZHjjrss15bfjY4BAAAAAChlKAADAAAAKL7iU+Tc+rvEks8ootznkigCAwAAAAAKFQVgAAAAAMXTpTQ5vqf4i6LPfS5Jrm1/GB0DAAAAAFBKUAAGAAAAUPw4XCz7jGLFfTpRrr2njY4BAAAAACgFKAADAAAAKHacPx6XUhxGxwDyxP3beelMotExAAAAAAAlHAVgAAAAAMWK+2i8dJoiGoonx08nJGauAwAAAAAKEAVgAAAAAMVHqpNldFGsmdJ4DwMAAAAAChYFYAAAAADFhuvnk5KT2ZMo3ty/x0vxyUbHAAAAAACUUBSAAQAAABQPl1LljrtsdAogXzj3nzU6AgAAAACghKIADAAAAKBYcB48Z3QEIP+cSZQuphqdAgAAAABQAlEABgAAAFD0pTqkExeNTgHkK+dv542OAAAAAAAogSgAAwAAACjy3Mco/qIEOnlJcrmNTgEAAAAAKGEoAAMAAAAo8lzHEoyOAOQ/p0tiX2sAAAAAQD6jAAwAAACgaEt1SpfYKxUlk/MMBWAAAAAAQP6iAAwAAACgaDuXZHQCoOCc5/0NAAAAAMhfFIABAAAAFGnOc4lGRwAKTmK65HAZnQIAAAAAUIL4GR0AAIBruVwupaWlebX5+fnJz8/3n6yUlBSv12azWVarNdNx/9z3WlarVWZz9r8TldtrpaWlyeX634e4JpNJNpst27GlK/d9+vRpORwORUVFyd/fP8dzEhISdP78eYWGhSksNDTbvNf68/26XC6dOnVKKampqhAVpTJlymSZMbt+Gfdus9lkMpnkcDjkdDozvX+3263U1NRsv2bnzp3TxYsXFRERoeDg4CzvJ6t7zsiRGw6HQw6HI9NzMo5lx2Kx+HzNMt7L/v7+slgsucoBIHOmy2lyGx0CKEDuNIdMfpn/ewgAAAAAQF5RAAYAFClfrl2rQYMGebWZTCZFRUWpQ/v2evKppxQWGqqEhATVve02n/NDQ0PVuHFjjR41SnXr1pWkLPtmiJ02TR07dszyeFbnh4WFqWnTpnp29GjVqFFDktSpc2ft3bvXq19AQICqx8ToH//3f3qgQwevY8nJyXrzzTe1aNEixSckSJLsNps6duqkMc89p6ioKJ/rfvrpp3p/2jTt37/f01a7dm393z/+oQcffDDX9+t0OjVp8mTNnTtXZ8+elXSl2N60SRM98cQTuvvuuyUp1/0y7v0/a9aobt26evmVVzRr1ixNnTJFDz74oFeGY8eOqXmLFmrerJkWL17saU9PT9fU997T/PnzFRcXJ+nK179+vXoaPny4OnXqlOk9ZXbPZrNZFStWVMt77tHw4cMVHR2d5TPp0aOHtm7bpnffeUfdunXzOpZxH9np0qWL3ps61avt7bff1jvvvquePXrozTffzPZ8ANlzJ6bl3AkoztJcUoDRIQAAAAAAJQUFYABAkRQdHa1OV4uyqamp2rptm2bPmaODhw5p4YIFnn5BQUEaOGCAJCnd4dChQ4e0bt06/fTTT/pq7VqvAmpgYKB6P/qo77WqVctVJpvNpqFDhkiSnC6XDh48qLVr12rnzp1a++WXKleunKdvv759FRISIrekuLg4rVq1SkOHDtW8efPUulUrSVdmrHbr3l27d+9W7dq1NWjwYFmtVq1fv15LlizRxo0b9fnnn6tihQqecce9+qref/99BQUFqXfv3rqpcmUdP3FCq1ev1jOjRqlNmza5vt9/v/SSPvjgA0VHR6tvnz4KCAzU/v37tWrVKj39zDPasnmzTCZTrvtlZdTo0apTp46qV6+e7fN1OBx65NFHtWXLFt10000aMniwwsPD9fsff2j16tUaNXq02rRpk+UMZenK7Oa//e1vkqSzZ85o7759WrBwoZYtX64ZM2Z4nv21du7apa3btkmSYqdP9ykA3964sZIS/7f87CeLF8vpdOqvf/2r/K7O7G3YsKHXOckpKfpw3jxJ0tJlyzRq1CiVL18+2/sHkI2U7GfhA8VeutPoBAAAAACAEoQCMACgSKoeE6NRo0Z5XrtcLt3fvr02btyoY8eOeZYEDgoK8uonSWPHjtXsOXO0fv169ejRw9MeHByssWPHXncmm83mc63nn39ec+bO1ddff62//vWvnvZBgwfr1qpVPa/btW2rIUOHatmyZZ4i5NSpU7V79261bNlSH86d61nm+rHhwzX2hRc0e/Zsvfjii5oeGytJ2r59u6ZNm6bg4GCtXrVKVa8Z/4WxY7V582YFBQUp4epM4uzuNy0tTfPnz1dAQIA+X7lSZcuW9Rwb+/zz2rt3r0wmU677ZScxMVFDhw3T5ytXKiAg6+lNsbGx2rJlixo1aqRPFi3yKvS++MIL2r5jR7bFX0my2+0a/9prntcul0ux06dr3Lhx+sc//qFNGzcq9E/LZcdefb7t779fa/7zH3377bdq2bKl53iXLl3UpUsXz+vPli6V0+nUKy+/rMDAwExzLP7kE50/f14d2rfX6jVrNHvOHI3+03sHAIAMbodLudu0AAAAAACAnGW/4SEAAEVExnK+knTp0qVs+1aqXFmSdPHixQLPVfmmm6470+JPP5UkPffssz57HD/15JMKCAjQ2rVrFR8fL0latGiR3G63Bv39717FX0kqU6aM1+zfnKSnpys9PV1+fn4+Bdzw8HDPss657ZedBvXr68CBAz7F8z/7+OrM7n/9618+hd7AwMBMZ+/mxGw2a/iwYWrVsqUSEhK0fMUKr+N//PGHVq1apRYtWujlV16Rn5+fpyB8vVwul2bMnKng4GBNnDhRNWrU0Lx585SUlHRD4wIASi6T02V0BAAAAABACcIMYABAkZSYlKRDhw5JurIE9KZNm7RhwwZFRESoWrVqSk5OlnSl2Hb4yBFJktPh0MFDhzRr1iyZTCaf4mRycrLmXV2W91p9+vTJVSaXy+XJ5HQ6deDAAc2YMUNms1l33HGHV98Tx49f+R+3W3FxcXrrrbckyZMpISFBx44dk81m021Z7GVcPSZGu3bv1sGDB9W0aVP9vGePJOnOO+/MVd7s7jcwMFAtWrTQpk2b1LZdO3Xr2lX3tGypJrffLn9/f0/f3PbLzuOPP64PZs/WsuXL1aRpU/Xv18+nz8WLF3X06FGZzWbd3rhxrsbNi5atWmnDt99q165dXu0zZ82S0+nU3wcOVMUKFfTAAw9oxYoV2vff/6p2rVrXda0v167V4cOHNWjQIAUFBWlA//56bswYLVy0yLNcOQAA13KbTMwABgAAAADkGwrAAIAiaePGjWp9771ebRWiojR58mRZrVZPAfj06dO65557vPoFBwdr/GuvqXbt2l7tCQkJem7MGJ9r5bYAfPnyZZ9MdrtdL77wgk8Rt0fPnl6vLRaL+vTpo75Xr5WxTHN4eHiWSyhHREZKkmcGcMZ/I6+25ySn+31v6lS98MIL+mLVKk2aPFmTJk9W2bJl1a1rV40YMcKzp3Fu+2XFYrFo6pQpat++vV566SU1aNBAEX86J+PeQkNDvQrL3bt31087d3pev/zyy3qkV69c3f+1MvaCvnTNDOyEhAQtXLhQN998s9q1aydJGjhggFasWKHY2Fi9M3Finq8jXVlS2mw2ewrd3bt31/jXX9fMmTPVr29fWa7uGwwAgIeZ8i8AAAAAIP9QAAYAFEl169ZVv6sFNH8/P1WuXFmNGjXyWRo4ICBAY59/XpJ0/MQJzZs3T1VvuUX3/qlQK10pnC74+OMsr9mkaVOvJZpbtGihObNne17b7Xa99NJLkq4sLVy+fHnVr1dPERERPmONeOIJRUVFKSEhQZ8tXaqEhAR16tjRs9RzWFiYJOncuXNyuVwym313ZTh9+rSkK0XijHOOHz+u06dPq2bNmlneR27vt1y5cpo6dapeuXBBGzdu1MZNm7R69WrNnjNH3373ndZ++aWsVmuu+2UnIiJC7733nv7Wo4eGDRumGdOnex3PeB7x8fFKS0vzjNerVy/de++92rlrl1avXi2nw5HjfWfm5MmTkqSQkBBP2/z585WYmKhHH3lER3///coziYhQdHS0li9frtGjR6tihQp5us5PP/2k7du3q2nTpnJLntnpbdu21ZIlS7R69Wp16tTpuu4BKNX8zJKDJXJRcpksFIABAAAAAPmHAjAAoEi6qXLlXM30tNlsXjN4y5cvrxdeeEGvjBun96ZO9eprsVhUK5tlfTt37uyZWSxJ1WNivI5brdZczz7t1KmT51pt2rZVu3btNGLkSG3etEn+/v4KDg7WrbfeqsOHD2vnzp1q/Kdlj8+fP69Dhw7JbrOpRo0akqQGDRpoz5492rJli8+s58zkdL8ZwsLC1LlzZ3Xu3FkvvvCCOnbqpIMHD2rHjh1q0aJFnvtl5Y477tCY557TSy+/rKeeftrrWHBwsKpWraojR454jdetWzdJV/YHXr16dY7XyMo333wjSWrUqJGkK3sbz75a3J8+Y4amz5jhc84HH3ygf2Uygzo7067uH7x9+/ZMv0bTYmMpAAPXwRTgL/fFVKNjAAXGZGV1CAAAAABA/qEADAAoUbo+/LDGjRun1atX6+zZs5nOzs3Kiy+8UCCZateqpYYNGmjnrl36at06dWjfXpLUq2dPvfraa3pt/Hh9/NFHXksfvzFhgpKTk9WtWzcFBwdLknr27KkFCxZo9pw56t69u6Kjoz39L1++rA0bNqhjx465zvXJJ5+oc+fOXrOq7Xa7bDabJKlMQECe+uXGkCFDtOOHH7Rq1SqfY4888oheffVVvfraa1r8ySc+s72vh8Ph0OQpU7R582aFh4frwQcflCQtW7ZMcadOqW3btmrzl7/4nPf2xIn66KOP9MTjjysoKChX1zp69KjWrFmj6OhoDR40yOf4smXLtHXbNm3dujXX+zgDuCrQKlEARgnmtlrYAxgAAAAAkG8oAAMASpTQ0FDdf//9WrFihZZ89pmGDhniOXbx4kU9f3W56Gv16tVLdevWLdBcPXr00M5du7Ro0SJPAXjw4MFat26dtmzZonb33acHOnSQv9Wqb7/9Vtu3b1eVKlX0wtixnjEaNWyoESNG6O2331b7Dh3UqVMnVa5USXFxcVrzn/8oOTlZrVq1ytX9lilTRk8+9ZReevlltWvXTlWrVlV6WprWb9igPXv2qFGjRmrYoIF+++23XPXLi7fefFP79u3T4cOHvdqHDhmijRs36ttvv1Xre+9Vp44dFVm+vBISErRhw4ZcjZ2cnKyRTz4pSTp79qz27dunuLg4BQcHK3baNE8xN2PG7/P/+pdi/jTTW5JOnTqld959VwsWLNDgwYNzde2ZM2fK6XRqyODB6t27t8/x6Oho9ejZU7HTp1MABvIqxC6dvGR0CqDg2PjRHAAAAACQf/gpEwBQ4vTs0UMrVqzQwoULvQrASUlJmjN3rk//5s2bF3gB+MEHH9S/X3pJ33zzjeLi4lShQgX5+/trwYIFmjRpkj5esECTJk+WJAUGBuqRRx7Rs6NHe/b/zfDkyJGqHhOj995/X5988omkK/sR169fX//8v4qTLGoAACAASURBVP9TUFCQEhIScrzfjh076r2pUzV37lwtW7ZM6enpkq7skdu7d2+NHj1aJpNJ0dHRueqXF8HBwZo+fbq6dOni1W6xWDTvww8VO326Pv7oI8Ves09wuXLl1LFjxxwLp+np6Vq8eLEkyW6zqWKlShrQv7+GDBmiKlWqSJI2bNigffv2qWXLlpkWfyWpd+/emjJ1qmbOmqUBAwZ49m7OSnx8vBZ98olCQkLUtWvXTPvcddddqlGjhtauXatff/1V1apVy3ZMAP9jKhcot84YHQMoGCF2mSxmo1MAAAAAAEoQk9vtdhsdAgCKgxHjJil2wXKjY/jY9dn7CszDErwoui5cuKD09HRFRkbmqqianJKi8+fOKSwsTAE38B5IS0vTuXPnZLFYFBERIbM58w+hc9svvyQmJiohIUHh4eGy2+0Fei1cv8SkJDXoOrzQrjftxSfUtnnjnDuixHGuPiA5XUbHAPKdKSZc5lrljY4BAIB6jx6v73ftMzoGkK1T369Q2aBAo2MAQJHHDGAAAIqIsLCwPPUvY7ercuXKN3xdq9WqihUr5lu//BIYGKjAQH6oA3BVVKB0gmWgUfKYK5Y1OgIAAAAAoIRhnSkAAAAARR5FMpRIdr8re1wDAAAAAJCPKAADAAAAKPJM5YPk9uPHF5QspiohRkcAAAAAAJRAfIICAAAAoOizmGSJKWd0CiD/WEyyVOM9DQAAAADIfxSAAQAAABQLpqphktVidAwgX5hjIpjVDgAAAAAoEPy0CQAAAKB48DPLXCPC6BTAjbNaZIoONzoFAAAAAKCEogAMAAAAoNgwVQ2TAq1GxwBuiKVOecliMjoGAAAAAKCEogAMAAAAoFixNKhodATgupnKBUg3hRgdAwAAAABQglEABgAAAFC8hJeRuW6U0SmAvLP7ydykstEpAAAAAAAlHAVgAAAAAMWO6dYwmSqXNToGkGtus0mWO2+W/C1GRwEAAAAAlHAUgAEAAAAUS+ZGlWQKsxsdA8gVv8aVpWD2rwYAAAAAFDwKwAAAAACKLfMdN0vBNqNjANky14qUKgQZHQMAAAAAUEpQAAYAAABQfPmbZbnrFqlcgNFJgEyZG1WSKaac0TEAAAAAAKUIBWAAAAAAxZufWZbmN8tUNczoJMD/+F99X7JXNQAAAACgkPkZHQAAAAAA8oP5tii5w8rI9dMJo6OgtCtrk+WOKpKdH7kBAAAAAIWPn0YBAAAAlBimymVlCSsj539PSycuGR0HpYzbapGlRoSYjQ4AAAAAMBIFYAAAAAAlS4C/LI0rS9VS5Nx/Vjp92ehEKOHcfmZZqkfIVDVUsrDTEgAAAADAWBSAAQAAAJRMIXZZ7rhJSkiR6+BZueMoBCOf2f1krhomc9Uwuf0o/AIAAAAAigYKwAAAAABKthC7zE1uktKcch9LkOt8spSQIiWnG50MxY3FJJW1yxRilzkqSIoMlCS5DY4FAAAAAMC1KAADQDHndruVlJxsdAwApZTZXLgz3l6cPFevz1pUqNdEyWUxmRXg769AP6v8Cvm9jOLD5XYrxZmuJEe6UhwOo+MAAFBgTp45b3QEAACQTygAA0AxN3byPFnYaw6AQdxuV6Fe79T5eInPpQAAAAAAAIAsUQAGgGJu5fotRkcAAAAAAAAAAABFBFPGAAAAAAAAAAAAAKCEoAAMAAAAAAAAAAAAACUEBWAAAAAAAAAAAAAAKCEoAAMAAAAAAAAAAABACUEBGAAAAAAAAAAAAABKCArAAAAAAAAAAAAAAFBCUAAGAAAAAAAAAAAAgBLCz+gAAIAb80DLO+Vn4fd5ABjD5Xbp8/VbC+164SFl5e9nKbTrAQAAAKXB+YSLSnc4jY4BAADyCQVgACjmXn2ivywUgAEYqDALwJ+/928FBwYU2vUAFANut9EJiieTyegEAIAi5Pl352j5N1uMjgEAAPIJBWAAKOZMJqmM3W50DAClVGJSUqFez2w2y2a1ymzmF1+A0sScliq/syfkd+aELIkXZUpJljk91ehYJYLLHiCXzS5nSIQcERWVHlnJ6EgAgEKWkprK99cAAJQwFIABAAAAAEWOJfmy/E8eld/p4/JLOGd0nBLLnJIkc0qS/BLOy/b7AbnNZjnKVZAjqorSom6W24+PDQAAAACguOEnOQAAAABAkWFOTpTt1z2yHf/N6Cilksnlkv+ZE/I/c0K2/T8pLbquUqrWMjoWAAAAACAPKAADAAAAAAxnTk+T7dDPsv1+wOgouMqcnib7/p9kPfJfpdZooNRKtxodCQAAAACQCxSAAQAAAACGsp76Q/afv5fZ6TA6CjJhTk1WmZ+/l/XIf5XUuKWc9kCjIwEAAAAAsmE2OgAAAAAAoPSyH9ilgJ0bKf4WA5ZL8QrctFr+F04bHQUAAAAAkA0KwAAAAAAAQwT8+K3sh/caHQN5YHakK3DbOtmOHTI6CgAAAAAgCxSAAQAAAACFyuRIV9DWtbKeOW50FFynMr9sl33/T0bHAAAAAABkggIwAAAAAKBQBfywXn7xZ42OgRtkP/JfisAAAAAAUARRAAYAAAAAFJqAnRvlT/G3xLAf+a9svx8wOgYAAAAA4BoUgAEAAAAAhcL2+wFZT/1hdAzkszL7fpDl0gWjYwAAAAAArqIADAAAAAAocJbLCSqz7wejY6CABPz0nUxOh9ExAAAAAACiAAwAAAAAKAQBuzYZHQEFyJKcKPuBXUbHAAAAAACIAjAAAAAAoIDZfj8gy+UEo2OggNl+PyDLpXijYwAAAABAqUcBGAAAAABQYMzpabIxM7TUsO/dbnQEAAAAACj1KAADAAAAAAqM9cg+mdkbttTwjz8r/wunjY4BAAAAAKUaBWAAAAAAQIEwO9JlO7Lf6BgoZLZDe4yOAAAAAAClGgVgAAAAAECB8D/1h0wup9ExUMj8zp+SOSXJ6BgAAAAAUGpRAAYAAAAAFAj/E4eNjgCDWE8eNToCAAAAAJRaFIABAAAAAPnO5HDI7zx7wZZWljPHjY4AAAAAAKWWn9EBAAAoTKmpqYqLi5PFYlGFChXk5+f9T2FKSkqW51qtVpnNZqWlpcnlcslms8lkMmXaNzfjXMvtduvs2bO6nJioClFRKlOmjCTJ5XIpLS0t23symUyy2WxyOBxyOBzy9/eXxWLxnJtVztTUVLndbtnt9kzHvXTpks6ePavg4GBFRERkm0GSJ6fVas2yT3p6uufZZeZCfLwS4uMVdc0zuNafn0fGvWcl45lkxmw2y2q1esa0WCzy9/fPciwAQN74xVP8Lc38L5wxOgIAAAAAlFoUgAEApcK5c+c07tVXtXLlSiUnJ0uSAgIC1K5tWz39zDO6tWpVJSQkqO5tt2U5Ruy0aerYsaM6de6svXv36j9r1qhu3bo+/XI7jnSlaPruu+/qo48/1tmzZyVJfn5+uqtFC40aNUon4+I0aNCgbO8tMjJSP/34o15+5RXNmjVL/+/FFzVo0CB9uXatBg0apN69e2v8a6/5nNeqdWsdO3ZMx/74w6t9+fLlen/aNO3Zs8fTVqVKFT36yCMaOnRolkXSbt27a9/evdq2bZvCw8N9jrvdbrVp21ZxcXE6sH+/17F58+YpNjZWR45eWS7SZDKpRYsWGj1qlBo3buzpl3FP17JarYq+9Va1b99egwcPVkhIiOdYxjPJTM2aNbXuq688Y95/331Z9gUA5J2F2b+lnuXieTnL+n5PAAAAAAAoWBSAAQAlnsvl0qO9e2vPnj26++67dc/dd8vlcmnHDz9o5eefy99q1TsTJ3r6BwYGqvejj/qME12tWp6um9M46enp6tmrl7Zt26YqVapo2NChKlu2rPbv3681//mPXn75Zf373/9Wr549Peeu37BBJ0+eVKuWLVWpUiVJUnBwcLY55s+frzuaNlXXrl1zzPzGG29o0uTJCgoKUq9evXTLzTfr/PnzWvf11xr/+utq1qyZmjRpkuX5Kampmjd/vp54/HGfY+vWrdNvv/2mgIAAr/bnn39ec+bOVWRkpIYPG6bIyEj9snevli9fru5//atmzZqle1u39jqnSpUqatWqlVwul44fO6bdP/+sd959V0s++0yfLl6sypUre/Vv1bKlatWq5dVWPioqx+cBALh+lksJRkeAwcyJFykAAwAAAIABKAADAEq8rVu3as+ePbrjjju0cMECr2P79u3zWQY6ODhYY8eOveHr5jTOtGnTtG3bNjVs0ECLFy/2WvL4+PHjOnXqlOrWrasJEyZ42nv37q2TJ09qwIABatu2ba6zjH72WdWpU8enCHqtHTt2aPKUKSpbtqxWr1qlW265xXNs7NixWr1mTbbF3wwffvihhg8b5rMU9KwPPvDpu3nzZs2ZO1fly5fXf9asUWRkpOfY/fffryFDhujpp5/Wls2bvcarU7u216zmixcvavSzz2rlypUaMWKEFi9e7HWdjp066ZFevXLMDgDIP+bLFIBLO0tyotKNDgEAAAAApZA55y4AABRvSUlJkuRT6JWk2rVrq3r16oUdSZK0cNEiSdKYMWN89rutXLmy19LHN6JevXpKTU3VkKFDdfny5azzLFwot9utwYMHexV/pStLMj/QoUOurnfq1CmtXLnSq23//v367rvvfPou/vRTSdKwoUO9ir+S9ECHDmrSpIlOnTqV6bnXKlu2rN54/XWVK1dOW77/XgcOHMhVVgBAwbGkJBodAQYzpSQZHQEAAAAASiVmAAMASrzGt9+ucuXKafPmzerUubM6d+6slvfco9q1a2faPzk5WfPmzfNp79OnT56um904Fy9e1NGjR2U2m3M1q/ZGtGjeXG3btNHEd97RU08/rdhp0zLt9/PVPX+b3kAei8WiChUqaMbMmerWrZunfeasWbLb7QoPD1d8fLyn/ZdffpEk3X777ZmO1+T227Vjxw798ssvatOmTbbXDg4OVqNGjfTVV19p165dqlGjhufY999/L6fD4dW/fv36atCgQZ7vEQAA5I45nfm/AAAAAGAECsAAgBIvLDRU8+fN0/Njx+qHH37Qzp07JV3ZR7Zfv376+8CB8vf39/RPSEjQc2PG+IyT1wJwduNkFEFDQ0N9lkouCCNHjtSPP/6oL774QjNnztSgQYN8+mRkunYm7oQJEzQtNtbzulOnTnr3nXeyvVb//v01btw4fb91q5rdeacuXLigpUuX6uGHHtKu3bu9CsAJCVeWBy1XrlymY0VczXLtOdmJurqv76VLl7zaP/vsM3322WdebU+OHEkBGACAguRy5NwHAAAAAJDvKAADAEqFevXqafmyZTpy5Ig2btyo7zZu1FdffaVXXnlFBw4c0NtvveXpGxkZqQUff3zD18xunLCwMElXCptpaWkFXgQ2m82aPHmy2nfooHGvvqqGDRtmmun48eM6ffq0atasKUm6+557FBAQoAsXLmhabKzSczGTp1fPnpo4caJmzpihZnfeqfnz5yslJUUDBw7UEyNGZHrNM2fOqGrVqj5jnT51SpIUHh6eq/s8efKkJCkkJMSr/amnnlKH9u292iIiInI1JgAAuD4mp9PoCAAAAABQKlEABgCUKlWrVlXVqlXVu3dvHT58WK3vvVdLlizR6+PHe/pYLBbVqlXrhq+V3TjBwcGKjo7Wb7/9pq1bt+qee+654evlJDw8XNPef1/dunfXsOHDlZqa6nW8Xr162rNnj7Zt2+bJ07xZMzVv1kyHjxzxmgmcndDQUHXv1k3zP/pIhw4d0twPP1TzZs0yXXK7fv36nms2bdrU5/i27ds92XISHx+vH3/8UZLUqFEjr2NRUVH58jUFAAC55zZbjI4AAAAAAKWS2egAAAAUtKSkJH366adyu91e7cHBwTKZTLJarfLzK/zfiXrkkUckSePHj1dSUpLXsSNHjuj7rVvz/ZqNGzfW2LFjFRcXpwsXLngd69Wzp0wmk2bOmqUjR47c0HUGDhwot9utvw8apLi4OA0YODDTfj179JDJZNKMmTMVFxfndWz58uXauXOnqlSporvvvjvb612Ij9dTTz2l+Ph4tW7VStHR0TeUHwAA3Di3Ad9fAQAAAACYAQwAKAWWLl2q0c8+q3cnTVLrVq0UFRWl+Ph4rfz8czkcDg0ePFgmk8nT/+LFi3r++ed9xunVq5fq1q3ref36G2/4LDXcr29fVa9ePVfjDB40SOvXr9fGjRvVqnVrdejQQWWDg7X/wAGtW7dODRs21GdLluTXY/AYOGCAduzYoRUrVni1N27cWE8++aTeeust3d++vbp06aLo6GilpKTo559/ztM1YmJi1LpVK32zfr0qV66s+++7L9N+jRs31mOPPaapU6eq3X336eGHH1b5yEj9snevvvjiC9ntdk2cOFEWi/cMop/37NHIJ5+Uy+XSiePH9cvevbp48aKqVaumt65ZzjvDsmXLtPeXX7zaoqKi9M9//tPzevfPP+ufjz/u1ad8ZKTGjh2bp3sHAFzhsgfInJKUc0eUWG6r3egIAAAAAFAqUQAGAJR43bp1U0JCgj5dskRz5s71zASuXLmyxowZo2FDh3r1T0pK0py5c33Gad68uVcB+Ouvv/bpc2/r1p4CcE7jWCwWzZ83T++9957mf/SRPvjgA0mS3WZT69at9cwzz1z/TedgwhtvaN++fTp48KBX+8gRI1SrVi1NmzZNCxcu9DyrwMBAtWjRQg8/9FCurzHw73/XN+vXq1+/fj4F3Gs99+yzqlG9ut5//33PM7BYLLr33ns16plnvJ55hhMnTmjx4sWebDHVqqlDhw4aMGCAAgMDffpv3rxZmzdv9mqrWbOmVwH45MmTWrp0qVefqrfcQgEYAK6TMyiEAnAp5woINjoCAAAAAJRKJvef18MEAGRqxLhJil2w3OgYPnZ99r4CAwKMjlFsJCYmKj4+XgEBAQoLCzM6jpeEhAQlJiYqIiJCVqvV6DhKS0vTuXPnFBQUpODgwvkANykpSQkJCYqMjDRkWW7kXWJSkhp0HV5o1/t+wbsKDykrs5mdTICirsx/f5Tt6H6jY8BAl5v8RY5yUUbHAADkICU1VWMnzdXSdZuMjgLk6NT3K1Q2yPcXvwEA3vhkFQBQqgQGBmY6Q7QoCAkJ8VlS2khWq1UVK1Ys1GsGBAQogF9oAIASwRkWKVEALtWcZYvWL9sBAAAAQGnB1AkAAAAAQL5zhJU3OgIM5AwKkdvf+BVNAAAAAKA0ogAMAAAAAMh3LqtNzqCis7IFCpejXAWjIwAAAABAqUUBGAAAAABQINIrVTU6AgySVvlWoyMAAAAAQKlFARgAAAAAUCDSKlY1OgIM4AgsK2cw+/8CAAAAgFEoAAMAAAAACoTLHqC0CjcbHQOFLC26rtERAAAAAKBUowAMAAAAACgwqTH1jI6AQuQsE6g0lv4GAAAAAENRAAYAAAAAFBhnYFmWgi5FUms2MjoCAAAAAJR6FIABAAAAAAUqpUYDoyOgEDiDQ5UWVcXoGAAAAABQ6lEA/v/s3Xd4VFX+x/HPlHRCCyEJTYSEIhB6laYC0oRd0QUUkG5bkaKCLK67gKKCIlY6KChKC2CjiChKCcUfVZRdqSKEQHqf9vsDMsswk4IGBpL363nyaO49957PnXtHk3znnAMAAAAAuK7s/oHKZF3YYi+zXgtvRwAAAAAAiAIwAAAAAOAGyI6KlqVcqLdj4DrJrNtU1jIh3o4BAAAAABAFYAAAAADADZLZuL1sAaW8HQNFLLvS7cquVsvbMQAAAAAAl1EABgAAAADcEHYfX6W3uEd2P39vR0ERsZYPU2aDVt6OAQAAAAC4AgVgAAAAAMANY/cPVHrze2T38fN2FPxJ1jIhSm/S3tsxAAAAAABXoQAMAAAAALihbEGlldamq2xBwd6Ogj/IUqGS0lvcI4fJ7O0oAAAAAICrUAAGAAAAANxwdv9ApbfuKkv5MG9HwTXKql5X6U07yGE0eTsKAAAAAMADCsAAAAAAAK+wm8xKb363sm6r4+0oKKSMRm2VVbuRt2MAAAAAAPLBXE0AAAAAAK/KqtNY1vCq8j+yR+aURG/HgQc54bcpu3ZD2fyDvB0FAAAAAFAACsAAAAAAAK+zlq2gtNZd5RN3Sv6/7JcpM83bkSDJElpJWZHRspUu5+0oAAAAAIBCogAMALc4h8Oh7Jwcb8cAUEIZjTd2RRGLxSqLxSIZDDe0XwA3Tna5cKW1ClfA2RPyjzst38Tz3o5U4tjNPsoOiVBWlZrKKV3+0kZ+3gSAYs1qs3s7AgAAKEIUgAHgFvfWR+vka+Y/5wC8w+64sX8oeuujtQopU/qG9gnAu/wMZkX5OxTpZ1ddf4eCTN5OVDzFWaRfMo36T45Bx7Md0snfpR9/93YsAMANsvfwUW9HAAAARYiKAQDc4hauXu/tCABww6zYsNXbEQB4mdlokI/RKB+TQWajQWajUSZmBbgmVrtdVrtDFptDFrtdFrtddoe3UwEAAAAAigoFYAAAAADALcNqd8hqtynT6u0kAAAAAADcnG7som0AAAAAAAAAAAAAgOuGAjAAAAAAAAAAAAAAFBMUgAEAAAAAAAAAAACgmKAADAAAAAAAAAAAAADFBAVgAAAAAAAAAAAAACgmKAADAAAAAAAAAAAAQDFh9nYAAAAAAABw8/H3MalaSJDKBPoq2N9HpQJ8VdrPrFIBvjKbDN6OV6SycmxKzbIoJTNHqZkWpWRZlJCWpd8SMrwdDQAAAACuGQVgALjF7Vv1ngyG4vUHOAC3lob3P37D+urWroWqVwm/Yf0BQElT2s+ohhXNqlXOpKqlTd6O43UZFrt+vmjTzwlWHU2weTsOAFw3c5d/LpvN7u0YAACgiFAABoBbnMFgUFBgoLdjACih0jNu7Mio3ne3VqfWTW5onwBQEviknZU55YzMmRe9HeWmEuhjVJNwo5qE+8hu9JG1dFVZylSV3ezv7WgAUKQWrvySAjAAAMUIBWAAAAAAAEogg8Mun8Rf5Zt8Wga7xdtxbnpGu0W+Scfkm3RM1oAQ5YREyeZXxtuxAAAAAMANBWAAAAAAAEoYc+ZF+cUdktGW5e0otyRz5kWZf7uonDLVlBNSSw4D02UDAAAAuHlQAAYAAAAAoATxu3BEvsmnvB2jWPBNPiVzeryyKjWRzaeUt+MAAAAAgCTJ6O0AAAAAAADg+jPYchR4JpbibxEzWjMVcHqHfNLjvB0FAAAAACRRAAYAAAAAoNgzWdIVeHq7TFlJ3o5SLBkcdvmf2ye/i794OwoAAAAAUAAGAAAAAKA4M2clKeD0Dhlt2d6OUuz5Jp1QwNkfvR0DAAAAQAlHARgAAAAAgGLKaMmQ39m9Mjhs3o5SYpgz4hVwdq+3YwAAAAAowSgAAwAAAABQDBlsOQr4fbeMdqu3o5Q45owL8o876O0YAAAAAEoos7cDAACuD7vdrpycnHzbGAwG+fn5yWq1ymp1/cOgr6+vjMaCPyeUlZUlk8kkHx+fPPfn9iNJOTk5MhgMHtvbbDZZLBaZzWaZzWaPx1utVtlsNuf3V3I4HMrOzpbRaJSvr6/H858/f145OTkKDw/3eI785L5Ofn5+MhgMHvdfS7acnBzZ7XZnGx8fH5lMpkJlufpYT3x8fGQwGPJ9Dvz9/V2+z87O1rlz52QymRQeHu68D9Kle1EQPz8/ORwO5eTkuDwXWVlZeV6fxWKRzWbL85nLzWQ2mxUREVGo5/JKOTk5cjgchbrfVqtVcXFxstvtioiIcLn+q2VmZSnu3Dn5+/srPDzcLbPD4XB7fXP7sFqtzuv19F698j1QUN78nskrORwOXbhwQWnp6QoPC1NAQICk/z1Led2f3GdXcn9eAAA3t4Cz/yejteD/f+P68En7XbagCrKUivB2FAAAAAAlDCOAAaCY2rhpkyKjovL9atW6tSRpytSpbvtqRkaqbbt2evfdd92Kw7m2bdumyKgo3X3PPR6LkcnJyYqMilLjJk2c23red5+iGzbUsWPH3NqvWrVKkVFReuutt/I8fsrUqaoZGam1a9e6Hf/bb78pMipKDz/8sMv2Cxcu6Nlnn9Ud9eqpeYsWurNtW91Rr54GDxmigwcLPzKjb9++ioyK0urVqz3uv9ZsPe+7z+U1v616dTWIjtaQoUP1ww8/5Jvl6mM9fX388ccFPgcJCQmSpIsXL2rsuHGq36CB7mzbVq1at9Yd9erpySef1PETJ5z3oqCvX3/91dnnY489Jul/97F7jx4ei8jPjR+vyKgoxcbGumzfv3+/Bg4apFq1a+vOtm3VslUrNYiO1oTnn9eFCxfyv1mXpaSkKLphQ9WqXVunT5/Os925c+f09OjRqlO3rlq2aqXWbdqoXv36GjdunM6fP+/Sdu/everXv79q1aqltu3aqVnz5mrWrJnenDXLWcjt0LGjIqOi3I6VpOeff16RUVFas2aNJM/v1dtr1FCzZs00fsKEfK+1oGdSulTgnT59uho3aaLGTZqoXbt2qnvHHXr44Ye1f/9+vf3224qMilLfvn3lcDjcjp8+fboio6I06JFHPO4HANyc/C4elSk7ydsxSjy/84dlsmZ6OwYAAACAEoYRwABQTFWtUkX9+/Vzfv/td9/p7Nmz6tC+vSpVqiRJCg4OdjnmnnvuUb077pB0qXC2cdMmTXvlFaWmpWnC+PFufcyZO1eSdPz4cW3YuFHdunYtVLbU1FSNHDlSn332mXMU4rV6bvx43XHHHYqKisq33ZkzZ9Srd2/FxcWpcePG6tC+vXx8fXX48GF9/fXXysnJ0ccffVRgf/v271fsrl2SLl13nz59/nS2XD169FC5cuWUlpqqX48d06ZNm7Rp0yY988wzGv300x6P6datmxpGR0uSLiYkaOPGjSpfvrzu7dLF2SYyKkrJycmSpKioKN19111u5wkICJDdbtfDAwbo0KFDatu2rdq1bSu73a49e/fqs88/l4+vr6ZNm+by4AXLdAAAIABJREFUPB05ckT79u9XnTp11LhRI+f20qVL53mdhw8f1qRJkzRjxowCX5PNmzdrxMiRslqt6tK5s6Kjo5Wdna3Y2FgtXbpUlStV0lNPPVXgeT76+GOlpaVJkubNn6/J//63W5vTp0+rV+/eio+PV5MmTdSxQwdJ0s7YWH26fLkqVaqkcePGSZI2btyoRx97TDabTV27dlWD+vWVmpqqzd98oxkzZqhF8+Zq06ZNgbk8qVO7trpcvn9ZWVnatWuXPvroI/3yyy+KWb3abYRvYZ5Ji8Wifv37a9euXapataoee/RRlS5dWr/88ovWb9igKVOmaNmyZdr09dfaGRurjz/+2OVDCkeOHNH7s2crKChIr8+YUeAoYwDAzcGclSjfpOPejgFJBodNvvFHlBnRpODGAAAAAFBEKAADQDFVr149TZ8+3fn9gAEDdPbsWQ0ZMkSdOnXyeMy9996rh/r3d37/9NNPq1nz5oqJiXErAB89elRbtmxR+/bttWfPHs2ZM6fQBWBJ+vmXX/T8xIl6c+bMa7yyS9LT0/XoY4/p888+U2BgYJ7txo8fr7i4OA0ZMkRTJk922Xfy5EmlpKQUqr85c+ZIkrree6/Wb9igrVu3qn379n8qW65RTz2levXqOb///vvvNXzEiHwLimNGj3b++48//qiNGzeqSpUqLvdcktZv2CBJql+/vl544QWP/e/YsUOHDh1SixYt9MmyZS77jhw5IrPZrAB/f5dzv/vuu9q3f786tG+f53k9+eTTT9WseXP169s3zzbp6ekaM3ascnJyNHfuXHXv1s1l/7Zt23THFa9XXiwWixYuXKiwsDBVqlRJn376qcaOGaOyZcu6tBs/YYLi4+M1+JFHNHXqVJd9sbGxuv322yVJaWlpGvfMM7JYLJr9/vvq2bOns93EiRP15Zdf/uHiryTVveMOPffcc87v7Xa7unbrpj179uj06dOqVq2aS/vCPJOzZ8/Wrl271KhhQ61YscLlAxdnzpxRXFycfHx8NPONN9SjZ0+99PLL6tSpk8LCwmSz2fTM5eudMnmyqlat+oevDQBwY/nGH/F2BFzBnBEvc1airP7lvB0FAAAAQAnBFNAAgDxVqFBB/v7+Houkc+fOlcPh0KhRo9SnTx/t2bNHe/fuLfS5G0ZHa+XKlfqoEKNv8zr+6NGjLgWzq505c0bfbd2q0qVL67lnn3Xbf9ttt6lBgwYF9nX69GlncW/K1Kkym83O4tsfzZafdu3a6am//12S9OGSJX/oHNciIyNDkjyuOVu3bt1Cj2QuSJUqVRQSEqJJkybpp59+yrPd+vXrlZCQoDZt2rgVfyXpzjvvVLmririerFu3TmfPntWAAQM0Yvhwpaena+nSpS5tzpw5o++//17BwcEe71fLli1VsWJFSdKGDRuUmJioVi1buhR/pUvraffo0aPATNfCaDQ61xa++j1Y2Gfyk08/lXSpQH31aPvKlSuryeXp1evWravRTz+tlJQUTbpc0J83f772HzigDu3ba8CAAUV6bQCA68cnI16mnFRvx8BVKMoDAAAAuJEoAAMAnBIuXtTxEyd0/MQJ7d+/X89PnKj09HS1bdvWpV18fLxi1qxRvXr11KplSw0dMkQGg0Gz8ymKXu2dd95RaGio/vniizpw4MA1Zx01apTuvPNOrVm7Vos/+MBjm0OHDsnhcKhOnTpu011fi/kLFshms2nY0KGKCA9X9+7d9d3WrTry889/OFtBckdy7t+//w/nvtLx48e1ZMkSl6+NGzdKkpo0baqQkBBt375dPe+7T3PmztWRI0X/R8ry5cvrnbffVk5OjkaOHJnn6OuDhw5Jkpo3a/an+pszd678/Pw04OGH1b17d0VERGjR4sXOdXql/z0jdevWzXf66itztWzZ8k/lyktGerrz/Xfk55+1aPFibd26VWFhYW5F+MI8kykpKTp58qSMRqOaFeK1fPLJJ9UwOlpfffWVZs+Zo9dff13BwcFuo8oBADc3n4tHvR0BHphyUmXKTPB2DAAAAAAlBAVgAIDTK6++qnbt2qldu3bq0bOnli5dqtatWunll15yabdo0SJlZ2dr6JAhki6tL9uuXTtt2LBBJ06cKFRfFStW1HvvvSer1apHH3tMSUlJ15TVZDLp3XfeUXhYmCZPnqz/27fPrU3uOUNDQ53bsrOzVTMy0uXr2LFjefaTnJysTz75RNWqVVPnzp0lyXndeY0CLky2goSFhUmSUgs5RXVB9u3bp+cnTnT5mjdvniSpXNmyWrpkiZo2bap9+/ZpypQp6tyli1q3aaPZc+bIYrEUSQbp0ujmcePG6cTJkxo7dqzHNs77dnnkrSRt3brV5Z61at06336+//57/fTTT7rvvvsUGhoqs9msQQMHKi4uTjExMe59XfGM5MVTrqK0YeNG5/uvc+fOeuGFFxQREaF5lwvZuQr7TObmLVu2rHx9fQvs32QyaebMmfLz89PUqVOVmZmpf734onPNcADAzc+ceUGmnDRvx0AefBN/9XYEAAAAACUEBWAAgFOvXr007eWX9a8XX1THDh3k6+urrl27uhTHMjMz9eGSJQoKClLDhg2dIxa7dOkiu93uLCoWRutWrTT+ued0+vRpjR4zRg6H45ryVqhQQe+9957sdrsee+wxJSYmuuwvV+7SOmvnz593bjObzRo7ZozGjhmjyMhIZWdny26359nH0qVLlZ6erq733quTp07p+IkTCqlQQTVq1NDatWt19ty5P5StILnnLVOIqY4Lo1OnTvp60yaXr9dff925v0GDBlq7Zo1++P57vTJtmnr06KHz589r6tSpGj9hQpFkyDXqqad09913a/2GDXp/9my3/c77Fhfn3Fa9enXnffP19VV2dna+feQWQu+5+27nM3rnnXfKZDJp7hXPqKdnJC+ecuXFaLz0I5anZyt3m9Fkctlev359TXv5Zb300kt66KGHZDAY1KxpUzVs2NClXWGfydy8SUlJLqOe81OrVi098fjjkqRWLVuqbz5rNQMAbj7m5NPejoB8mDMTZLRmejsGAAAAgBLAfbE/AECJ1bx5cw0cOFCSNGjQILVq3Vr/njxZbdu2Ve3atSVJny5f7hxZ2Ony6MMrLV+xQs8884yz+FSQxx9/XHv27tXGjRt15syZa87cokULTXz+eU2eMkXjnnnGZV+DBg1kMBj0888/KyUlRaVLl5bJZNKTTz4pSfr5l190+PDhPM9tsVi0aNEiSdLcefNcCoe5Fi5cqH9MnHjN2QryzTffSJIaN2p0TcflJTg4WHXq1CmwXfXq1VW9enUNGDBAx48fV8e77tKqVav06iuvyMfHp0iyGAwGzZo1S926ddOrr76qGjVquOzPXZd5165dzm3VqlVz3rdFixfLZrPlef5ffvlF3373nSTp8See8Lj/my1bdPddd6lBdLQMBoOOHDmipKQklc2n4J5biN2xc2eB11i2bFmdOnVK5+LinOv45nIWaK/qq1q1as73nyQlJiYqZs0atWjRwrn9Wp7J4OBg1ahRQ8eOHVNsbKzatWtXYG5Jqlq16qV/VqtWqPYAgJuDwW6VT3rBH2iCd5lTziinfKS3YwAAAAAo5hgBDADwyNfXV33uv192u10fffyxpEsjF+fPmycfHx9NmTJF015+2eWrf79+yszM1AcffljofgwGg2a+8YZuu+22P7zu7MiRI9W9e3e34yMiItSxY0elpqbqtddeu+bzrlmzRufi4tSpUye3a5328ssKDQ3VRx99pLS0vKdazCtbfjZt2qT3339fBoNBgwcPvubc1yojI0MrV650G4EdHBwsg8EgX19fmc1F+5mxcmXLas7s2TKZTDp61HWtwnu7dFFISIh2xsbqiy++uOZzz5k7V5I0csQIt3s28XKxPneEcER4uO6++26lpaXpVQ/PyNatW3X27FlJUpfOnRUaGqrdu3dr3bp1Lu3sdrvLa9i8eXNJ0kcffeTS7j//+Y927NghPz8/t5G9V+vfr58k6cMlS5zbrvWZfOihhyRJr7zyijIyMlzOf+LECe2Mjc03AwDg1mHOiPd2BBSCOc3z7DEAAAAAUJQYAQwAyFPfvn31/uzZiomJ0T8mTtTmzZt14uRJ9e7VS0M8FCZTU1O17rPPtHjxYj326KOF7qdMmTKaO2eOevfurawCpvbNy+szZujIkSM6fvy4y/bXXntNvXv31uIPPtC+fft01113KTAoSHFxcdpZwEjO3NGVk/7xD0VGuo/UiIuL05uzZmnZsmUaMWLENWfLNeP111W2bFmlpabq12PHdPToURkMBk2aNEnNmjUr6NILZf/+/Zo0aZLb9okTJyomJkbjJ0zQrLfeUscOHRQWFqakpCR99vnnslqtGjFihAwGQ5HkuFLDhg31rxdf1PNXjaAOCgrSrFmzNHzYMD3+xBPq3KmTGjduLEk6eeqUEhMTVbp0aY/njIuL05o1axQREaGJEyd6LFxv/vprbdu2TYcOHVL9+vX1yrRp6tW7t5YsWaJ9+/apffv2kqQ9u3crdtcuPT1qlJ599lkFBgZq5syZGjZsmJ78+9+1OiZG9evVU2pamrZs2aJjx44pPDxcbdu21Yjhw7Vy5UotW7ZMp06dUssWLZSYmKhVq1fLYrHo73//e76jjSWpQ4cOCg8P15EjR3TgwAFFR0df8zM5Yvhwffvtt/rhhx/UoWNHdevWTaWDg/XL0aPavHmzGjVqpNWrVhV8swAANz1TWsFLFMD7TJZ0yW6RjEUzswoAAAAAeEIBGACQp8jISDVr1kx79uzRxo0bNX/BAknSkCFDPLYPDg5Wn/vv14dLlmj16tXq0aNHofuqV6+epkydqmefffYPZQ0ODtbcuXPVq1cvl+0R4eHasH69ZsyYobXr1mnmm29KurRGa9WqVfXIoEEKCwtzO993332nI0eOqH379h4LbZI0YMAAvfPuu5q/YEGer0l+2XJt2rRJ0qX1iStUqKD77rtPQ4cMcY4iLQrHjh3TsWPH3LaPHTtWffr0UXJyslauWqXFH3zgHMVauXJlTZw48ZqK+ddq4MCB2rN3r1ZdVYTs2KGD1q1bpzfeeEPfbNmiDRs3Sro0Mj0qKkp/+ctfPJ5v0eLFysnJ0aCBA/MctTx48GDF7tqlOXPm6O2331ZERIS++vJLvTZ9utatW6eDBw9KujSN8yODBmn48OEuudbExGj6jBn69ttv9fXXX0u6NH3zpEmT1Lp1a0lSlSpVtGrlSk2eMkXbt2/Xtm3bJEnh4eEaNWqUHh05ssDXxmQy6cEHH9Tbb7+tTz75RImJidf8TJrNZi1dskTvvfeeln70kRYuXChJ8vfzU8eOHf/w+w0AcPMxZad4OwIKyZyZIGuQ+8+fAAAAAFBUDI6r53sEAHg0+qW3NGfZWm/HcLN/9fsKCgz0doxbRmJiorKzsxUaGiqTyeTtODed9PR0JSUlKTAwsNDrOF9vdrtd8fHxMpvNKl++/HUZjZzL4XDowoULstvtqlixYr59Wa1WxcfHyz8gwG093ytlZmXp4oUL8vf3V4UKFa5H7EJLTk5Wenq6KlSoIF9f3yI5Z3pGhhre/3iRnKswZr/4tDq1bnLD+gOAW4NDwb9u9HYIFFJ2+UjllKvp7RgA4KLefcOUbbF6OwZQoLid61S6VJC3YwDATY8RwACAEuVmKWrerIKCghQUdHP9ImU0Gj2O0r4eDAaDQkNDC9XWbDYrIiKiwHYB/v6qUqXKn41WJMqUKaMyZcp4OwYAoIgZ7PzB/lZitKR7OwIAAACAYs7o7QAAAAAAAOBPYGKvW4rRkuHtCAAAAACKOQrAAAAAAADcyigA31IMNou3IwAAAAAo5igAAwAAAABwCzOIAvCtxGDL9nYEAAAAAMUcBWAAAAAAAG5pFIABAAAAAP9DARgAAAAAgFuYw8Cv9gAAAACA/+G3RAAAAAAAgBvFYPZ2AgAAAADFHAVgAAAAAABuZYwAvqXYTT7ejgAAAACgmOO3RAAAAAAAbmUUgG8pdp8gb0cAAAAAUMwx7xAAADdYTk6Ozp07J39/f4WGhspgMHhsY7fbPR7v4+Mjk8nk8RhJ8vX1zbNvi8Uiu90uPz8/j/sTk5KUnJSksLAwBQQEuO232+3OfiTJYDDkeS5JslqtslqtHvcZjUb5+vo6z2kymeTjw4gYAACulcPg/nMBbl4O30BvRwAAAABQzPExYQAAbpDTp0/r8SeeUO06ddTmzjvVpGlTNWrcWNOnT3cpqkpSz/vuU2RUlMevjz/+2OP5+zzwgO644w4lJCR43O9wOHRPp05qEB3ttm/JkiVq27atGjRooLbt2qlW7drq26+ffvzxR5d2GzdtcslSMzJSNWrWVKdOnTRjxgwlJye7tJ8ydWqe19Gte3eXcz722GOFfi0BAIArm2+wtyOgkLhXAAAAAK43RgADAHAD/Prrr+r9l78oKSlJd911l9q0aaPMjAytXbdOs956S7t279Yny5a5jey9//77Va5cOZdtdevWzbOfrOxsLVm6VE+PGuW2b/PmzTp27JgCA11HnUyaNEmLP/hAoaGhevyxxxQaGqrDP/2ktWvX6oEHH9SCBQt0V8eOLsdUrVpVHTp0kN1u15nfftOBgwf15qxZWrV6tVauWKHKlSu7tO/Qvr3q1Knjsq1iWFie1wEAAK6Nzb+MTDmp3o6BQrAFlPd2BAAAAADFHAVgAABugPHjxyspKUnjxo3TmNGjndufeOIJPfDAA9qxY4c+XLJEQwYPdjnuiccfdyucFuTDDz/U44895jYV9IKFC93abt++XYs/+EAVK1bUhvXrFRoa6tx37733auTIkXrmmWe0Y/t2l/PdUbeuXpk2zfl9SkqKxk+YoM8++0yjR4/WihUrXPrp0bOnHurf/5quAwAAFJ49qKKU8pu3Y6AAdp9AOUx5L58BAAAAAEWBKaABALjOTp8+rZ2xsQoJCdHjV01z7O/vr+eee06StPKqoukfFRcXp88++8xl2y+//KLvv//ere2KlSslSY89+qhL8VeSunfrpmbNmikuLs7jsVcqXbq0Xnv1VYWEhGjHzp06evTon7wKAABwLSyBoXIY+BX/ZmcNCvd2BAAAAAAlACOAAQC4zg7/9JMkqX69evL393fb36xZM0nST0eOyOFwyGAwOPetXbdOO3budGnfr29fBQQEeOzLZDIpPDxc8+bPV58+fZzb5y9YIH9/f5UvX15JSUn/y3b4sCSpadOmHs/XrGlT7dmzR4cPH9Y999yT73UGBwercePG+vrrr7V//37VqlXLuW/nzp2yWa0u7aOjo9WwYcN8zwkAAArPGlhBPunnvR0D+bCWqeLtCAAAAABKAArAAABcZ8mXC64hFSp43B8YGKjAwEBlZGQoPT1dpUqVcu57++233dr36N49zwKwJA0ePFgvvfSSdsbGqlXLlkpMTFRMTIz++pe/aP+BAy4F4OTk5EvZQkI8nqvC5VHBVx6Tn7DL6/qmprquQbh69WqtXr3aZdvYMWMoAAMAUISsZapRAL6JWf3Ly2bO+2c4AAAAACgqFIABALjOypUrJ0mKj4/3uD89PV0ZGRny8/NzKf5K0tw5c3Tbbbe5bCtfvny+/fXv108zZ87U/Hnz1KplSy1dulRZWVkaOnSonr5i/eHcbGfOnFF8fLyqV6/udq7zcXGF6jPX2bNnJUllypRx2T5u3Dh169rVZVuFPAriAADgj7EGhMjmX1amrMJ9cAs3liWkprcjAAAAACghKAADAHCdNWjQQAaDQQcPHlRGRoYCAwNd9sfGxkqS6tev73ZsjRo1VKdOnWvqr2zZsnqgTx8t/egj/fe//9UHH36o1q1aqW7dum5to6OjdejQIe3atUvNmzd3279r927nNRQkKSlJP/74oySpcePGLvvCwsKu+ToAAMC1ywmprYAzsd6OgavY/ErL6l+4D9QBAAAAwJ9l9HYAAACKu4iICHXs0EFJSUl65513XPZlZmbqtenTJUn9+/cvsj6HDh0qh8OhYcOH69y5cxoydKjHdv369pXBYNC8+fN17tw5l31r167Vvn37VLVqVbVt2zbf/hKTkjRu3DglJSWpY4cOqlGjRpFdCwAAKDyrf1lZgsK8HQNXyQ69w9sRAAAAAJQgjAAGAOAGmDZtmnr17q233n5be3/8UW3atFFGRoY+//xznTx5Up06dVLfv/2tyPqLjIxUxw4dtOXbb1W5cmXd26WLx3ZNmjTRE088oXfffVedu3TRX//6V1UMDdXhn37SF198IX9/f82cOVMmk8nluIOHDmnM2LGy2+36/cwZHf7pJ6WkpKhmzZp6/fXX3fpZs2aNfjp82GVbWFiYnnrqKef3Bw4e1FOjRrm0qRgaqhdeeOGPvgwAAJRIlgq15ZMe5+0YuMwSVFE2vzIFNwQAAACAIkIBGACAG6BKlSr68osv9Mqrr+qLL77Qtm3bJF0aHTz+uef0xBNPyGAwFGmfQ4cN05Zvv9UjjzziVsC90vMTJqhWVJTef/99LVy4UJJkMpl011136blnn1W9evXcjvn999+1YsUKSVJQUJAia9ZUt27dNGTIEAUFBbm13759u7Zv3+6yrXbt2i4F4LNnzyomJsalTfXbbqMADADANbKZA5QdWld+8Ue8HaXEcxhNyqnAMhgAAAAAbiyDw+FweDsEANwKRr/0luYsW+vtGG72r35fQVetKYubm91uV3x8vPz8/FS2bFlvx3GRkZGh5ORkhYaGymzmc2IoWHpGhhre//gN62/2i0+rU+smN6w/ALiVBf4WK1N2krdjlGhZEY1lCazo7RgAUKB69w1TtsXq7RhAgeJ2rlPpUu4fPAcAuOIvuwAA3GBGo1FhYTfn2nyBgYEK5AMFAAAUC1mVGivg1A4ZbVnejlIi5ZSpRvEXAAAAgFcYvR0AAAAAAAAUPbvRV5mVm8luyHspCFwf1sAKyq5Q19sxAAAAAJRQFIABAAAAACim7D5Byq7UTA4Dv/7fKNaA8sqMaOrtGAAAAABKMH4DBAAAAACgGLP6l1Vm5eZyGBkJfL1ZAysos1Jzb8cAAAAAUMJRAAYAAAAAoJiz+ZVVZqXmspt8vR2l2MoJrszIXwAAAAA3BQrAAAAAAACUADa/Msqo1k45wZW9HaVYsRt9lBnRVNkV63s7CgAAAABIkszeDgAAAAAAAG4Mh9Gs7Ir1ZQuuJL+4gzLasrwd6ZaWU7qKLBVqy27gzysAAAAAbh78hgIAAAAAQAljDSgv223t5JvwH/kkn5LBYfd2pFuK1TdYltA7ZPUv6+0oAAAAAOCGAjAA3OIcDslisXg7BoASymwyeTsCAOAPchiMyg6prZyyt8sn8Zh8U3+Xwc7Plfmx+peTpdztsgaGejsKAAAAAOSJAjAA3OK27ftJ/r4+3o4BoISy2RkxBgC3OofJVzkV6iinQh2ZspNlzrggU3q8TNnJ3o7mdQ6TjyyBobIHVpA1sIIcRn7uBgAAAHDzowAMALe4J6e87e0IAHDDfPz5N/puzwFvxwCAEsHHaFBIkFml/Ywq42+Ur9Hg7UjXncMhpVrsSsm2KznLpqRMm6RT3o4FANedxcYHOwEAKE4oAAMAAOCWsXXvQW9HAAAAAAAAAG5qRm8HAAAAAAAAAAAAAAAUDQrAAAAAAAAAAAAAAFBMUAAGAAAAAAAAAAAAgGKCAjAAAAAAAAAAAAAAFBMUgAEAAAAAAAAAAACgmKAADAAAAAAAAAAAAADFBAVgAAAAAAAAAAAAACgmzN4OAAD4c35Y8oZ8zCZvxwBQQtntDrV+ePQN669i+bIK8Pe7Yf0BAAAAJcHJ3+O8HQEAABQhCsAAcIsLDgpQgL+/t2MAKKGysrNvaH+Tn3pEnVo3uaF9AgCKF4fDIYccrv902L0dCzc5g8Ego8Eog8EggwwyGJhUD8VLvfuGKdti9XYMAABQRCgAA0AxYDTyxwcA3uFwOLwdAQCAAqVnpyolK1mpWanKsd3YDy+h+Ar0DVJp/9Iq5Vda/j4B3o4DAAAAOFEABgAAAAAAxU6WJVPxaeeVmpUsOyN8cR1k5KQrIydd0ln5mHxV2r+MQoMrymz08XY0AAAAlHAUgAEAAAAAQLGRY83WuZTflZKV7O0oKEEsthxdTI9XQvoFVQgKVWhwmIxGk7djAQAAoISiAAwAAAAAAG55NrtNcalnlZh+UQ6xRAG8wyGH4tPPKyHjosLLVFK5wBBvRwIAAEAJRAEYAAAAAADc0tKzU3Uq4YRsDpu3owCSJJvDpjNJp5WQnqBq5W+Tj8nX25EAAABQghi9HQAAAAAAAOCPOpt8Rscv/krxFzelTEu6/nP+F6UyJTkAAABuIArAAAAAAADgluNwOHQm6bQupsd7OwqQL7vDplMJJ5ScmejtKAAAACghmAIaAAAAAADcUhxy6FTCMaVmp3o7ClAoDjl0OvGkbA67yrMuMAAAAK4zCsAAUMxZrVZZrVb5+PjIZDLJbrcrJydHvr6+Mho9TwThcDiUnZ3tPEaSsrKyXNoYjUb5+rqvY5WTkyO73e783mAwyM/Pr8Ccdrtd58+fl9VqVVhYmHx8fFz2Z2dny+FwyM/PTwaDweM5bDabLBaLzGaz89qvvoYrv7+SxWKRzWbL83XJzs7WuXPnZDabFRERkedrl9uv1WrN93pNJpN8fHyUlZWV52t05fXkXtPV9+FKeWXPzePv75/nsbl95fX6ZmRkKO78eZUrW1Zly5Z125/7XOUq6L5f3f5quVnze30KI/fa83turpScnKyEhASVLVdO5Txc55XnjYuLk91uV0REhPP+SJ7v25WysrJc3j9/5j2Tk5OT5zN9tcysLMWdOyd/f3+Fh4c7r8NqtTqfR09y33v5/TcDAIAb7XxqHMVf3JJ+Tzotf7O/An2DvB0FAAAAxRh/xQOAYm7K1KmKjIrSokVnwEtoAAAgAElEQVSLJEnfbd2qyKgovfzyy3keExMTo8ioKM2bP1/SpaJYZFSUy1eNmjXVIDpaQ4cN09GjR53H9rzvPpd2NSMjVat2bfXo0UNffvWVW1+ZmZmaMmWKoqOj1ax5c7Vq3Vp169bV06NHKy4uztluzNixioyK0odLluSZe9jw4YqMitLGjRvdrjv3Grr36OGxiPrc+PGKjIpSbGysy/b9+/dr4KBBqlW7tu5s21YtW7VSg+hoTXj+eV24cMFjjty+8/t6evRoZ6ZWrVt7PM+iRYsUGRWladOm5Xkfrvz6ysPrK0mvTZ+uyKgobd68Oc/XbsKECYqMitKBAwdctm/fvl339+mjWrVrq127dqrfoIHuvucerVy50qXdxk2b3O57jZo11alTJ82YMUPJycn5tr/6KyEhwXm9jZs0yTN3Qfr27avIqCitXr0633YrV67UPZ06qV79+mrXvr0aNGigzl26aO3atS7tzp07p6dHj1adunXVslUrtW7TRvXq19e4ceN0/vx5SdKqVasUGRWlSS+84NbP2bNnFRkVpbvvvtu57VrfM7neeOMNRUZFafz48fle2969e9Wvf3/VqlVLbdu1U7PmzdWsWTO9OWuWfti2TVG1aqlJ06a6ePGi27Hff/+9akZGqmWrVkpMZMpCAMDNISkjQfGp57wdA/jDTiYcV44129sxAAAAUIwxAhgASqiPly3TmDFjFBTk/snzBQsWeDzGz89Pj44cKUmy2e36z3/+o02bNmnfvn3atHGjQkL+N5XZI4MGqUyZMnLoUtHsyy+/1KOPPqolS5aoY4cOki6NhOzzwAM6cOCA6tatq+EjRsjX11fffvutVq1apR9++EGff/65IsLDNXLkSK1bt06LFi3SoIED3UZznjhxQt98842qVaume++9V7G7dnm8hsOHD2vSpEmaMWNGga/R5s2bNWLkSFmtVnXp3FnR0dHKzs5WbGysli5dqsqVKumpp55yO65pkybKSE93fr98xQrZbDY9+OCDMl8eqdmoUaMC+89LUFCQBjz8sNv2GjVr5nvcvPnzdc8997htT0hIUExMjNv2devW6alRo2Q2m9W/Xz9FRUXp7LlzWrF8uUaPGaMTJ07omWeecTmmatWq6tChg+x2u8789psOHDyoN2fN0qrVq7VyxQpVrlzZpX1UVJTuvusut74DAgLyHSFcGPv273c+B3PmzlWfPn08tnvp5Zf1/vvvq1SpUhowYICqVK6sM7//rq+++krPPvec7rnnHpUqVUqnT59Wr969FR8fryZNmjif452xsfp0+XJVqlRJ48aN+8N5C/OeyZWZleX8METMmjV67rnnVLFiRbdzbty4UY8+9phsNpu6du2qBvXrKzU1VZu/+UYzZszQ8k8/1SODBmnxBx/oxRdf1DvvvPO/PjIzNX7CBEnSyy+95PL+BgDAW7Jt2TqT/Ju3YwB/is1u1amEE4qsWNvbUQAAAFBMUQAGgBIqJSVFy1es0JDBg1227969W/uvGgWay8/PT88995zLtkmTJmnxBx/om2++0YMPPujcPnzECN1evbrz+86dOmnko49qzZo1zmLWu+++qwMHDqh9+/b68IMPnNPlPvH443rhn//UokWL9OKLL2runDlq1LChWrRooV27dum7rVvdCmKLFi+W3W7XsKFDC5wO95NPP1Wz5s3Vr2/fPNukp6drzNixysnJ0dy5c9W9WzeX/du2bdMd9ep5PLZXr17q1auX8/vVMTGy2WyaOmWKS8H96lGxhRUcHKwXPIwuLcgPP/ygIz//rLp16rhsX7p0qbKyXUcgJCcna8Lzz8tut2vp0qVq3aqVc9/QIUPU5d579dbbb6t79+664447nPvuqFtXr1wesSxdes7GT5igzz77TKNHj9aKFStc+qlfv36e1/JnC8Bz5syRJHW9916t37BBW7duVfv27V3a7N69W7Nnz1ZwcLC++vJLVb/imf3nCy9o+/btKlWqlCRp/IQJio+P1+BHHtHUqVNdzhMbG6vbb7/9T+UtzHsm14rly5WQkKBuXbvqq/XrtWjxYo2/6r2Zlpamcc88I4vFotnvv6+ePXs6902cOFFffvml2rRpo0aNGunbb7/VmrVrdf/99ztHJ7/62ms6deqUevfqpR49evypawMAoCjYHXadunBMDoe94MbATS7LmqmzSb8pomwVb0cBAABAMcQU0ABQgi1YsMBl7VFJmp/H6N+8VK5y6Q8Wqan5r8FW6fLIz5SUFOe2FZenEX5+wgS3tVLHjR2rwMBAbdq0SUlJSZKkESNGSJIWLlzo0jY9PV3Lly9X6dKl1Tefoq4kValSRSEhIZo0aZJ++umnPNutX79eCQkJatOmjVvxV5LuvPPOfNeIvVktuDytdy6LxaIPP/zQrd2GDRuUkpKiTp06uRR/pUujfAcPHiy73V7g1MqlS5fWa6++qpCQEO3YudNluvDr6fTp084C55SpU2U2m50F4St9+umncjgcGj5smEvxV7o0Cjl3xPSZM2f0/fffKzg42O1DEJLUsmVLjyNw/wxP7xnp0tq/8+bPV3BwsGbOnKlatWppyZIlysjIcGm3YcMGJSYmqlXLli7FX+nSOsO5Rd3AwEC9/vrrMhqNen7iRKWnp+v/9u3TwoULVbFiRbdiNwAA3pKYkaBsG9Pmovi4mHFR2UwFDQAAgOuAEcAAUEJVq1ZNJ06c0Ndff60uXbpIulTkWr9+vWrWrKlff/3V7Ri73a7//ve/kiSbzaajR49q3rx5MhqNatGihUvb38+cufQvDofOnTun119/XZLUtm1bSZdGmP7222/y8/NT/fr13foqW7asoiIjtf/AAf3nP/9R8+bNdW+XLqp+223asmWLjh8/7hxxuXzFCqWmpurRkSOdozXzUr58eT0/YYIeHjBAI0eO1JdffqnSpUu7tTt46JAkqXmzZvmeryhkZmZq0eLFbtt37d6dZ/slHtZCHjhwYL79VKtWTTFr1mjChAmqUKGCJOmzzz/Xubg4t3t++HJxvGke6+82a9rUpV1+goOD1bhxY3399dfav3+/atWq5dx3/Phxt2sJCwtzPpN/1PwFC2Sz2TRs6FBFhIere/fuWrdundsI6Nz73LJly3zPd+jQITkcDtWtW9fj81IUCnrP5Nq4aZOOHz+u4cOHq1SpUhoyeLCenzhRn3z6qYYOGeJsV9hry20zdOhQzZ8/Xy+99JJ27dolu92uV6ZNU7ly5YroCgEA+ONsdqviUn73dgygiDn0e/Jvuj0k/6VcAAAAgGtFARgASqjevXtr6dKlmr9ggbPYtmjRIknSoIED9eK//uV2TFpamjpetV6rv7+/XvznP92KuH379XP53mQyaeDAgRp0uUiZO/1x+fLl3dbzzVUhNFSSnCOAjUajhg4bpn/+859auGiRpkyeLIfDoUWLFslsNmvo0KGFuvZ27dpp3Lhxmj59usaOHav5V42KvbLP0CtGdW7dulVDrugjNDRUO3fsKFSf+UlLS7umKZ2Tk5P1/MSJbtsLKgAPGTxY/548WUuWLtWY0aMlSQsXLNDtt9+uDh06uBSAc+9PyOVC8dVyC8i5r1NBwsLCJLmPFN+3b5/27dvnsq11q1Z/qgCcnJysTz75RNWqVVPnzp0lXZq2et26dZozZ47enDnT2dZ5ny8/a3kpbLs/o6D3TK45c+bIaDRq8COPSJIeeOABvfLqq5o/f74eGTTIOQW6p2c4P+PHj9c333zjXFv4gQce+NOFeAAAisqF9AuyM/UziqH07FRl5KQr0Deo4MYAAABAIVEABoASyt/fXw8//LDeeecdHT58WLfffruWffKJunTu7JzW2dMxkydPlnSpGFuxYkVFN2jgLAZeafTTTyssLEzJyclaHROj5ORk9ezRwznVc+6owosXL8put8todF+V4Pz585IuFYlz9evbV2+8/rpWrFih5559Vrv37NGxY8fUq1cvVb48ZW5hjHrqKe3du1frN2zQ+7Nnu+3PzXc+Ls65rXr16ho7Zowk6Z1331V2dtFM11auXDkt9TCid+3atZo7b57b9tDQUC37+ONr7qdhw4Zq2rSpPvzwQz3x+OM6ePCg9u3fr8n//rdOnjrllkmS4i/fg6s5700hR4eePXtWklSmTBmX7Z06ddKE8eNdtgUGBhbqnHlZunSp0tPT9fBDDzmvK6RCBdWoUUNr167V+PHjFREeLunSdZ45c0bnz59X7dq18zyn83nI4/W4Uu6zfPX06lduM3pYp7qg94wk/d///Z92796t5s2byyHp+IkTki69jqtWrdJXX33lnO7Z0zOcnwB/f70ybZr+1revgoOD9W8PHwIBAMAb7A6bLqYV/P9g4FYVnxqn20JqeDsGAAAAihEKwABQgj3yyCOaPXu25i9YoEaNGik5OVlDhw5V8lVrjuby9fXVQ/37F+rcPXv2VJ3LU+3e06mTOnfurNFjxmj7tm3y8fFRcHCwbr/9dh0/flz79u1Tk6umGk5ISNB///tf+fv5uUwZHBgYqIcefljvvfeeli9fri1btkj63/rAhWUwGDRr1ix169ZNr776qmrUcP2DS4MGDSRJu3btcm6rVq2annzySUnSosWLZbPZrqnPvJjNZjVs2NBt++48poA2mUzO1/ZaDR82TI8/8YTWrl2rb7ZsUalSpfS3v/1N02fMcGkXHR0tyfX6r5S7vcHldvlJSkrSjz/+KElq3Lixy77g4OA/fC2eWCwW50j2ufPmeSygL1y4UP+4PIK6YcOGOnTokHbs2KF27drled4G0dEyGAw6cuSIkpKSVDaf9Z9z9507d85tX24h3NO0ygW9ZyRp9uV1jHfv3u0x7+w5c5wF4NxnasfOnXlmvVrVqlUlXSrUX12sBwDAW5Iykxj9i2ItNTtFObZs+Zr8vB0FAAAAxYT7cCsAQIkRER6uHt27a+3atZo9e7bq1Kmj1q1bF3k/devUUaOGDXX27Fl9vXmzc3v/y1PeTnvlFVksFpdjXps+XZmZmerRs6eCg4Nd9g0ZMkQ+Pj5697339N3WrWrevLkaN2p0zbnKlS2rObNny2Qy6ejRoy777u3SRSEhIdoZG6svvvjims99s+rWrZsqVaqkt956S+vXr9eDDz7ocd3kLp07KyQkRN9+9522bt3qsu/4iRP6cMkSmc1mPdCnT779JSYlady4cUpKSlLHDh3cCu1Fbc2aNToXF6dOnTpp2ssvu32Fhobqo48+UlpamiSpX79+MhqNWrR4sY4dO+ZyrrS0NOe9jwgP19133620tDS9+tprbv1u3brVWdxt3LixfHx8tH3bNp24PEI3V+70ylevmX01T++ZkydPav369apRo4bHa2vZooX27dun2NhYSZfuYWhoqHbv3q1169a5nN9ut2vlypVyOByFeVkBAPCqpIwEb0cArrvkrGRvRwAAAEAxwghgACjhhg8frrXr1un06dN6zUNhq6j07dtX+/bv16effqpuXbtKujRqd/PmzdqxY4c6d+mi7t26ycfXV1u3btXu3btVtWpV/dPD2rgR4eHq2bOnYmJinOf5oxo2bKh/vfii25q6QUFBmjVrlnPEbOdOnZyjV0+eOqXExESVLl36D/f7Z6SkpGjSpElu2/v376969erle6zZbNbgRx7Ry9OmyWAwaMjgwR7bBQUFacb06Rr56KN6ZPBg3XfffaoVFaWzZ89qdUyM0tPT9Y9//EORkZEuxx08dEhjxo6V3W7X72fO6PBPPyklJUU1a9bU66+/7tbP/v37PV7LxCvuR2Zmpp4aNcqtzZTJk91G4uaO+J3kIZskxcXF6c1Zs7Rs2TKNGDFCjRs10ujRo/XGG2+oa7du6tmzpypXqqRz585p/YYNyszMVIcOHVSqVCm9Mm2aevXurSVLlmjfvn1q3769JGnP7t2K3bVLT48apWeffVYhISEaPHiw5s2bp549e+qvf/2rypUrpx07dmjHzp0qX768hhViveqr3zPz58+XzWbTyBEjNGDAALf2NWrUUN9+/TRn7ly1bNlSgYGBmjlzpoYNG6Yn//53rY6JUf169ZSalqYtW7bo2LFjCg8PV9u2bQvMAgCAt1hsOcrISfd2DOC6S85IVGhQRW/HAAAAQDFBARgASrjGjRurcePGOn78uP76179et3569+6tf0+erC1btujcuXMKDw+Xj4+Pli1bprfeeksfL1umt95+W9Kl4uNDDz2kCePHu6z/e6VHR45UTEyMqlWrpq733vunsg0cOFB79u7VqlWrXLZ37NBB69at0xtvvKFvtmzRho0bJV2aCjsqKkp/+ctf/lS/f1RGRoYWf/CB2/bWrVsXWACWpP4PPaSZb76pVq1a5Tsit3Pnzlq1cqWmz5ihNWvWONevrV+/vkY99ZS6d+/udszvv/+uFStWSLp0HyNr1lS3bt00ZMgQBQUFubU/duyY28hbSRo7dqxMl9fJtVgszmL/lSY+/7xLAfi7777TkSNH1L59e4/FX0kaMGCA3nn3Xc1fsEBDhgyR2WzW2DFjFBUZqffef1/Lly+XdGkd3+joaD319787R0hHREToqy+/1GvTp2vdunU6ePCgpEtTPj8yaJCGDx/u7OeFSZMUUr68Fi1erEWLF0u6VHy/q2NH/etf/1L45TWI83Ple+bo0aP6dPlylSlTRvfff7/H9nfeeadq1aqlTZs26ddff1XNmjXVsUMHrYmJ0fQZM/Ttt9/q66+/lnRpOvNJkyZdlxH/AAAUpfScNG9HAG6ILEumbHabTEaTt6MAAACgGDA4mPsPAApl9Etvac6ytd6O4Wb/6vcVFBjo7RhFIjExURaLRaGhoTIYDN6O48Jutys+Pl5ms1nly5e/6fJdbxaLRRcuXFDZsmUVEBDg7TjXTWZWlhIuXlS5cuUUmM/7yuFw6MKFC7Lb7apYsWK+z8OFCxeUlZWlkAoVFODvfz1iF4rValV8fLz8AwJULp81jK9VekaGGt7/eJGdryCzX3xanVo3KbghAKBYOJN4UomZid6OAdwQt5W/XcH+ZbwdAyVUvfuGKdti9XYMoEBxO9epdCn3D5gDAFwxAhgAcNMoV66ctyPkyWg0KiwszNsxvMbHx0cRERHejnHdBfj7q3LlygW2MxgMCg0NLdQ5K1So8GdjFQmz2Vwi7iEAoHjJtGZ5OwJww2RYMikAAwAAoEgYvR0AAAAAAADAkxxrtrcj4P/Zu+/4qKr8/+Pv6amkEAi9JlQJEAlNAQsoSHEF/AmKCgqIu2sB/IK6oquoa9cVG8iKAhZQESmiZMWyqAgsAqIsTapLokAIkDKTzMzvD8gsw0xIAkluMnk9H495PJh7z73nfe8MJMxnzjmoNM4CvvAAAACA8kEBGAAAAAAAVEker8foCECl4QsPAAAAKC8UgAEAAAAAAACDecQXHgAAAFA+KAADAAAAAIAqxyuv0RGASuV2FxodAQAAACGCAjAAAAAAAAAAAAAAhAgKwAAAAAAAoMoxyWR0BKBSWSxWoyMAAAAgRFAABgAAAAAAAAxm4WM6AAAAlBN+swQAAAAAAFWS2cTHFqg5rBab0REAAAAQIphbBgAQsjwej1wul982i8Uim80W0MZkMsnhcAQ9T0FBgdxut6xWq6xW/x+dhYWFKiwslM1mk8ViCTjW6XTK6/XKbreXqR+PxyOPx+PbV9xxRf0HYzabZbfbg96HYNcSrN2ZinIUXVdYWFixmex2u8xms++8DodDJlPgVI5nnquwsFButzvo9Xq9XjmdTt+1SZLL5ZLH4/Gdv6zHn+nw4cM6duyYEhISFB0dfdb7AQAAKpbd6lB+QZ7RMYBK4bAF/m4NAAAAnAu+SgsACFkr09OVlJzs92jeooU6de6sSZMnKzMzU1lZWerWvbtaJiVp9erVAec4dOiQOqemKrlVK61duzZg//RHH1VScrLeeeedoBk6p6YqKTlZv/76a5n6GTR4sF/ulklJatW6tQYNHqxVq1YF9B/sMeCqq856H7p06aKp996rQ4cOFdvuzEf3Hj0kSX0uuURJycn67bffAq7lvvvuU1JyshYvXux33vvuvz/oPSo61+nX1DIpSR9//HFA2wMHDigpOVk33HCDb1vRvfr555/P6XjpZPH9hb//XV3S0tSxUyf16t1b7dq318CBA7Vs2bKguQEAQMULt1IQQ80Rbo80OgIAAABCBCOAAQAhr03r1rriiisknRxt+v3atVq4cKH+85//6JPly/X4Y4/ptgkTdO+99yr9n/9U+GmjWqc9+KCOHj2qMaNHq2fPnuecIT4+/pz6GTlypOokJMgrKTMzU8uXL9foMWO0YMEC9eje3deuT+/eatOmjV+fdRMTi70P+fn5Wrt2rd5++21t27ZNHy1apMaNGmnkiBG+9l9+9ZUOHjyoPr17q0GDBpJ0XiNi58+fr65paRo6dGip2k+ZOlXt2rVT8mnF4bIo7fGFhYW6/oYb9N1336lRo0YaP26c4uPjtW//fq1YsUJTpk7V5ZdfrvDw8HPKAQAAzl1kWLSy8rKMjgFUighbhNERAAAAECIoAAMAQl7bdu00ZcoU33O3263LLr9cmzdv1v79+zVw4EANGTJES5Ys0XPPPqu//OUvkqSVK1dq6dKlata0qe4vZvRqWZxLP6Nvvlnt27f3Pb/8sst024QJev/99/0KwAMHDdL1I0eW6T54PB71HzBA69ev1/79+9W+fXs9/fTTvv2jRo3SwYMHNWbMGPXt2/e8rr3I1HvvVbt27QKK1cHk5OTotgkTtGzpUkVElP3DsNIeP3PmTH333Xfq3LmzFi5Y4FfofejBB7Vu/XqKvwAAGIQRkagpbGabbKwBDAAAgHLCFNAAgBrHYrEoPDzcb13dxx59VHXq1NGs11/Xli1bdOzYMd1///0ym8169tlny60AeL79NGzUSJJ0/Nix885iNptVr149SdKxcjhfSTp06CCn06nxt92mEydOlNi+Y0qKtm/f7le0LovSHv/Ou+9Kkv7yl78E3P/IyEhd0qfPOfUPAADOn8PiUJiNL2Ih9MVExBkdAQAAACGEEcAAgJC3d+9eX5HP5XLp22+/1ZYtW3Trrbeqbt26kqS4uDg9+cQTuuXWW/V/U6bogvbtlZGZqXHjxqlbt24l9vHdmjUqdLsDtrtcLr/nZe1n/4EDviJ1RkaGnn7mGUlSj1Nr8RZZs2aN3IWFfttSUlLUsWNH3/PcnBzt3rNH0skpoNesWaOvv/5aiYmJ5zzNcln07NFDfS+/XM+/8IIm33OPZr722lnb33nnnXpjzhwt/vhjdUlL0+ibby5Tf6U5/tixY9q7d6/MZrMuTE0t0/kBAEDliIuorYPZB4yOAVSo2pEJRkcAAABACKEADAAIeRs2bNCGDRv8tjVt2lQjrrvOb9sVV1yhYcOG6cMPP9SPP/6oli1blnr06ZIlS7RkyZJStS1LP2PHjg3Yds011+jmM4qZixYt0qJFi/y2TZo40a8A/NnKlfps5Uq/No0bN9bLL73kKzJXtIkTJ2rDhg1avny5Zs+eHfT6ilgsFr380kvq37+/HnnkEXXs2FEJtWuXuq/SHH/06FFJUmxsrGy2/025N3z4cP2wcaPv+fTp00ucYhsAAFSMuIg4ZRz7r7xej9FRgAoRZY+SzWI3OgYAAABCCAVgAEDI69u3r+6dOlXSyXVvd+zYob8+/LCGDhumL7/4QomJib62jzz8sFauXKnjx4/rb48/rvCwsFL18ec//1kD+vcP2P7/rrtOOTk5AdtL28/Eu+9W/QYNJJ0sUrZp3VotWrQIaDd58uSA/hMS/EcRXHDBBbrh+uvl8Xr1008/6d1331WXCy/0KxKXltl8chUJjyfwg9iibWaLJehxM2bMUP8BA/TY44+rU6dOZ+0nISFBr7zyiv7fdddpwoQJen3WrDLlLOn4uLiTU+0dPXpULpdLdvvJD95GjhypSy+9VBs3bdKKFSsCRlcDAIDKYzZZFBseq6zcI0ZHASpEQnRiyY0AAACAMqAADAAIedHR0WrTpo3vebt27bR7zx4988wz+uyzz3TTTTf59sXExCgmJkbHjx9X48aNS91HwwYNghZSLUGKoGXpp3///mrfvn2J/ScmJvpdYzBNmjTRjTfe6HuelZWljxYvVteuXf22l0ZsbKz27dunjMxM3zrCRQ5mZEiS4mJjgx4bHx+v1159VcOGD9eE22+X0+k8a19du3bV/ffdp0emT9fke+4pU86Sjo+OjlazZs20Z88erV+/Xj179pQkDRs2TNLJ9YFXrFhR5j4BAED5qhNdjwIwQpLd6lCUI9roGAAAAAgxZqMDAABghIMHD0pSpU19XBWNHDFCkjR33rwyH5uWliZJevvtt/2279ixQ999950cDsdZRxanpqZq2rRpysjIUFZWVon9jR8/XldddZW2bt1a5qwlHX/99ddLkh7/29+Ul5d3TucHAAAVy26xq3YEa6Qi9DSIaWR0BAAAAIQgRgADAELeli1bNH36dEmS2+PRL7/8oi+++ELx8fG65JJLjA1XThYvXqyff/rJb1tiYqLuuOOOYo/p06eP6tWrp61bt2rz5s1KSUkpdX/jxo7VBx98oHfffVf79u1Tt65dlZWVpQ8XLVJBQYH+/Oc/K7aYEcBFbhkzRuvXry/12snPPvOMtm7dqt27d5c6Z2mOv238eK1evVpff/21Lrn0Ug0aOFB16tZVdna2vvrqq3PqCwAAlL/EWvV1NP+o3B6WZkBoiHbUYvQvAAAAKgQFYABAyNuxY4d27NghSTKZTKpTp476X3mlJk+e7Lf+b3X27bff6ttvv/Xb1rp167MWgC0Wi6699lrNmDFD7733XpkKwI0aNdKHH3ygR6ZP17fffqtvvvlGklSvXj3deeedum38+FKd5+mnntLWrVt9r8/ZREdHa9asWRoyZEipc/nZgOgAACAASURBVJbmeIvFonlz52rmrFl65+23NfO0dYJr166tgQMHqlu3bufUJwAAKD9ms0WN4ppo7+FfjI4CnDer2aqGcU2MjgEAAIAQZfJ6vV6jQwBAdXD3Yy9q5rsfGx0jwKZFryoyIsLoGKjB8vLzdfjQIYWFhSkhofpPzZiTk6Ps7GzFx8crLCzM6DhVXk5urjoOvb3S+nvtobvUt0dqpfUHAKh6Mo79V4dO/GZ0DOC8tEhIVoQ90ugYgE/7wbfKWcAMC6j6MtcsUa0o/v0EgJIwAhgAAJyX8LAwNWoUOmuXRUZGKjKS/0wCAFBV1avVQK5Cl47lHzU6CnBOGsU2ofgLAACACmU2OgAAAAAAAEBZNIlvplphMUbHAMqsUVwTxUbEGx0DAAAAIY4CMAAAAAAAqHYaxzVTfERto2MApWKSSY3jmik2nOIvAAAAKh5TQAMAAAAAgGrHZDKpQWxjmU0WHcphTWBUXWaTWU3imynKUcvoKAAAAKghKAADAAAAAIBqq15MA0WHRWvfkT1ye91GxwH8hNsi1SS+qWwWu9FRAAAAUIMwBTQAAAAAAKjWIh3RSk5sq1phsUZHAXwSo+urZZ1kir8AAACodIwABgAAAAAA1Z7VbFWT+GbKzstS5vEMuQqdRkdCDRUdVkuJ0fUVZgs3OgoAAABqKArAAAAAAAAgZMSExykmPE7HnceUlXNYx/KzjY6EGsBsMis2Il61IxPksIYZHQcAAAA1HAVgAAgBbjdrnQEwhtXKr5MAgKop2lFL0Y5aKnC7dDTvqHKcJ5RXkCu3p9DoaAgRdqtD4bZwRTmiFRseJ5OJldYAAABQNfCJHQBUc5mHj8pu459zAMZwezxGRwAA4KxsFrvqRNVVnai6kiSP16NCT6EK3QXyeD2+B1AckySTySyLySyL2Sqr2SqrxWZ0LAAAAKBYVAwAoJq7Ytx9RkcAAAAAqg2zySy7xS67xW50FAAAAACoEBSAAQAAUG1MePjvRkcAAAAAAAAAqjQWJwEAAAAAAAAAAACAEEEBGAAAAAAAAAAAAABCBAVgAAAAAAAAAAAAAAgRFIABAAAAAAAAAAAAIERQAAYAAAAAAAAAAACAEEEBGAAAAAAAAAAAAABChNXoAAAAAAAAAKh+TGbJ5DVJJpPRUYBAXq+8Jq+8HqODAAAAVD4KwABQzf3zH0/IbrMZHQNADeV2u3XpmCmV1p/ZbJaZD5kBAKhUcXVi1LJtIzVr3VBxCdGKjApXeFSY0bGAUss9ka+c47k68vsx7d56QDt/2q/j2TlGx6pSCt1uoyMAAIByRAEYAKq5hLgYhTscRscAUEO5Cgoqtb9Xpt2hvj1SK7VPAABqooO52dqbc1i/5hzRiUKX0XGA8xIRFaaIqDDVqR+v1inNJElx9gg1jIhV8+g6indEGhuwCmg/+FY5CwqNjgEAAMoJBWAAqOZMkiwWi9ExANRQHqfT6AgAAKAcHczL1g+H9+n3/ONGRwEqVJYrV1muXG05+l81iohVakIzxdkjjI4FAABQLigAAwAAAAAA1HAnCl36NnOHDuZlGx0FqHQHco/qwL6NalUrUV0Smslm5kvWAACgeqMADAAAAAAAUEN55dXW7Az9cGivCr0eo+MAhtp+LFP7co7oorpJahQZZ3QcAACAc0YBGAAAAAAAoAbKc7v0VcZ2ZeYdMzoKUGXkuwv0+cGtSq5VV2kJzRkNDAAAqiUKwAAAAAAAADVMtitPnx74UfmeQqOjAFXSjmO/6be84xrQqIMcFj5CBQAA1YvZ6AAAAAAAAACoPEecORR/gVLILsjT8gObled2GR0FAACgTCgAAwAAAAAA1BAnCp1a+etPFH+BUjpekK9P9v+oPHeB0VEAAABKjQIwAAAAAABADZDndumzA1vkpPgLlMmJQqfSf/1JBR630VEAAABKhQIwAAAAAABAiPPIq8//+x+dKHQaHQWolrJcufo6Y7vRMQAAAErFanQAAEDly8/Pl8lkksPhkCS5XC6ZTCbZbLaAtm63WwUFBbJarbJarcrPzy/x/A6HQ263W4WFwUcWmM1m2e32gO1Op1MZGRmyWq2qX7++zGb/7ym5XC55PB7f89OvoST5+fmyWCwB1+jxeORynX09p6J+CgsLVVhYKJvNJovF4jvW4XDIZDIFvR6v16uwsLCg5z1+/LgOHTqk6OhoJSQklHgNRTmD3bsiBQUF8ng8Qe+Lx+PRb7/9psLCQiUmJgZ9vYuusUiwe3ZmptNfk9MVvWfOvG8lKbqvxfVdUHBy6rXi9rndbt9rcvp7/WxZi9hsNplMphL7d7vdstvtAe/RImf7exLs/VJ0zcXdo7LcQ4/Ho8zMTOU7naqXmKjw8HC//UX3IViOovds0WsHAABCxw+H9+mw84TRMYBq7UBulrYfy1SrWolGRwEAADgrRgADQA2TnZ2tpORkdU5N9W0bNHiwUjp21C+//BLQ/sMPP1RScrJefPFF37ElPXbt2qXpjz5a7P4BV13l18emTZt04003qVXr1rro4ovVrXt3dUhJ0b333adDhw755Tz9PC2TktSqdWsNHDhQn6xYUew1f/PNN0pKTtZll18eUABcmZ5e4vV079FDknzXNGfOHL9j77v//qD99rnkEiUlJwds//jjj9V/wAC1bddOvXr3VqfOndWjZ0+99NJLvuJmMMOGD1e7du105MiRoPu9Xq8u79tXHVJS/Lbn5eVp+vTpSklJUZe0NHXv0UNt27bVXXffrczMTL+2Z75uzVu0UKvWrXXN0KF65513Au7fma/J6Y+//vWvQe9bSbZu3aqk5GRd2b9/wD6Px6MePXqoV+/e8nq9Afsvu/xytWnbVllZWQHv9bNlLXq88847vtf1rrvvDppvwoQJSkpO1qpVq4LuL+nvya5duwKOee6555SUnKypU6cGPWdp7qHb7dbzL7yg1AsvVFrXrurVq5fatmuna6+9VqtXr/a1K7oPP//8s9/xc+fO9f09ycjIKLYfAABQ/RzMy9aWrF+NjgGEhLW/79aJwrN/iRgAAMBoDO0AAEg6ORp1/PjxWrp0acCIwSJ2h0MjR4zwPd+6das2btqkNm3aqHOnTr7ttWrV8v25T+/eatOmjd956ib+79vSn3/+ucaNH6/CwkJd0a+fUlJS5HQ69f3332v+/Plq2KCB7rjjDr/jb77pJsXExMgrKSMjQ5988oluu+02zZs3T5f06ROQe+asWZKk3bt367OVKzXgtMJi40aN/K7py6++0sGDB9Wnd281aNBAkhQdHV3sfZOk+fPnq2tamoYOHXrWdpL01FNP6cUZMxQVFaWRI0eqaZMmOnLkiD5ftUpPPPmkunfvri5duhR7fL7TqXnz5+uuO+8M2Pf555/rl19+UURExP/a5+dr2PDh2rx5s9q2baux48bJbrfryy+/1IcffqjVq1dr2bJlql+vnt+5unTpojZt2sjlcmnvnj3auGmT1q1bpxUrVuiNN94IGBk7csQIv9ddktK6di3xfgTTvn17JScna/v27dq+fbtatWrl27dmzRplnCpa//DDD0o97YsMW7Zs0e7du3X55ZcrPj5e2dnZfucdMGCAOp4qjh8+ckQrV65UfHy8rrziCl+bpOTkgOPOVZjDoRtGjQrYHhsb6/c8Lz9fc+fNkyR9tHixpkyZorp165a5v4cfeURvvPGGWrRooZtuvFERkZHatm2bPvnkE93zf/+n7779NuhIdelk8fcvDzygpk2aaOHChb73PgAAqP48Xq/W/Bb4RU8A58bt9WjNbzvVt0E7o6MAAAAUiwIwAMDnP9u26b7779cLzz8fdH94WJiefvpp3/OXX35ZGzdtUp/evTVt2rSgxwwcNEjXjxwZdF9OTo4mTpokl8ulWbNm6aoBA/z2f/PNN2rXvn3AcWPHjVPzZs18z/v17avxt92mxYsXBxSAt2/fri+++EK9e/fW+vXrNXPmTL8CcPv27f2uadSoUTp48KDGjBmjvn37Bs0dzNR771W7du0Cit2nW79+vWa89JJq1aqlFZ98oqZNm/r2TZs2TSs+/fSsxd8ic+fO1e0TJgRMBf2PN94IaPvyyy9r8+bN6t27t+a+9ZZvWt8/3n67pj34oObMmaOHHnpIs2bO9Dtu0MCBGjt2rO/57t27NW7cOH3x5ZeaMWOGJk2a5Nf+j3/6k99rcr7+8Ic/6Omnn9ayZcv8+vpo8WLfn5csXepXAF6ydKnv2GAmnjaid8OGDVq5cqUaNWrk9/pL0qeffVYu1xAeEaGHT42CPpv3Fy7UkSNHNKB/f6349FPNefNNTZ0ypUx9uVwuzZ8/XxEREVq2dKlfMX7aAw/o559/LrH426xZMy1cuDDgywAAAKB625x1QMcK8oyOAYSUX3OP6kBOlhpFxhkdBQAAICimgAYA+HRMSdEHH3ygt99+u1L6+/TTT3XkyBH17NkzoPgrSRdddJHizhgtGUyDhg0lSceOHQvYN2vWLHm9Xt15550aNmyY1q9fr3//+9/nH/40HTp0kNPp1PjbbtOJE8Wvq/bee+/J6/Vq3LhxfsVf6eQ6w8HuQTCZmZlaeqrYWWTbtm3617/+FdD2/Q8+kCTdd++9AWu6Tp40SREREUpPT9fRo0fP2mfz5s315JNPSpLmzpsXdPrl8vSHq6+WJC1bvty3zeVyacUnn6hDhw6qX7++li1b5pdj2bJlioiI8BvRW9V5PB69Pnu2oqOj9fzzz6tVq1aaN2+ecnNzy3SegoIC31rdZxZ64+PjdfHFFwc9rqj426JFC71P8RcAgJDj9nq0PZulHYCKsPHIfqMjAAAAFIsRwAAAn5deeklDhw3Tgw89pA4dOijljLVkz8WaNWvkLiz025aSkqKOHTvqxy1bJElppRj1err//npq/TKvVxkZGXr22WclKaDI9fvvv+ujxYvVvn17de/WTbXj4zV//ny9NnOmXj81LXR56Nmjh/pefrmef+EFTb7nHs187bWg7c71ek9nsVhUr149vT57toYNG+bbPvsf/1BYWJji4+N9xdzs7GwdOHBADodDF1xwQcC5YmNjlZyUpE2bN2vHjh1KS0s7a98XXnihoqKidOjQIf36669q1KiRb9/HH3+s2vHxfu379euneudYUGzatKlSU1O1YcMGbdu2Ta1bt9aXX36po9nZuuuaa5SRkaGZs2Zp7dq16tatm37YuFH79u3TNddc4zcF9vnYvXu35rz5ZsD2fftL90GP0+kMOD4mJkZDr7nG93xlerp2796tsWPHKioqSmNGj9Z999+v9xYs0C1jxpQ6a2RkpHr27KlvvvlGffv107ChQ9Wrd291ufDCgOm6i8x/+23Nnz9fSUlJWvDee+c07TQAAKjadh7/XXnuAqNjACHpsPOEMvOOKTG8VsmNAQAAKhkFYACAT926dfXKK69oxIgRum3CBK345JPzPueiRYu0aNEiv22TJk5Ux44dfYXKOqcVnr7++muNueUW3/M6depozXff+R1/3Wlr9koni6I33nijbrrxRr/tc+bMkdPp9BXSkpOT1atXL3322Wfas2ePmpXjlMUTJ07Uhg0btHz5cs2ePdtv+uQivuutU8e37emnn9Zrp02/PGjQIP39hRfO2tfo0aP12GOPac3336t7t27KysrSRx99pGv+8Adt2rzZrwAsnRwBWtz0vwmnspQ0ArhI3bp1deLECR0/ftxv+zPPPBPQNikp6ZwLwNLJqZw3bNigZcuWqXXr1lr88ccym80aMmSIMjMzNXPWLC1dulTdunXT0iVLJEnXFDP987n48ccf9eOPP57z8bm5uQFTo7ds2dKvADxz5kyZzWaNvvlmSdLw4cP1xJNPavbs2br5pptksVhK3d8rL7+sBx98UMs/+UQvzpihF2fMUK1atTRs6FDdfffdql27tl/7d955R16vV9dddx3FXwAAQtS2oweNjgCEtP8cPUgBGAAAVElMAQ0A8NOje3dNnTJF+/fv190TJ573VL+TJ0/WP9PT/R433XSTJCku7uR6Sb9lZvraN2vWTJMmTtSkiRNlt9vldDoDznn3XXfpb48/rnunTlWrVq2UkJCgQQMH+k1xnJeXp7nz5ikyMlIdO3bU7j17tHvPHl1xxRUnp919/fXzuq4zmc1mzZgxQw0aNNBjjz+u9evXB7TxXe9vv/m2XdyrlyZNnKgxo0fL6XSqoKDkERojR4xQRESEZp+6hvnz5ys/P1+3nFY4P72/w4cPy+PxBD1XUZb4M0bvFicj4+QUgjExMX7b586dG/A6d+zYsVTnLM6QwYNlsVi0bPly5ebmKj09XRdddJESExOVkpKiFi1aaPknn6iwsFDLli9XfHy8evfufV59nq5P795avmxZwKNH9+6lOj4mJkafffqp3+Mfs2f79v/www9at26dLrzwQnkl7d6zRxmZmerbt6/27dunFStWlClv7dq19fLLL+uHDRv06iuv6IYbbpDVatWcN9/U0GHD5HK5/No/9uijio6O1uOPP64PTk0VDgAAQscRZ46yXGVbVgJA2ezJOawCj9voGAAAAAEYAQwACHD77bdr/b//rZUrV+rXoumWz1FiYqLatGkTdF+HDh0kSWvXrvVta9Kkif70pz9Jkua8+abc7sD/TA8aNMh3zsv79lW/fv1098SJ+vabb3zT3S5YuNA3qrVvv34B51j4/vu65557fEXS8hAfH6/XXn1Vw4YP14Tbbw8oXnfo0EFbtmzR2rVr1atXL0knC+49unfX7j17/EYCn01sbKyGDxum+W+/rZ07d+qtuXPVo3t3tW3b1q9ddHS0mjdvrt27d2vjxo1KTU3123/kyBHt3LlTYQ6HWrVqVWK/361Zo9zcXCUmJqpBgwZ++5o3b67m5TiiWpISEhLU6+KL9eVXX+nvL76ovLw839rA0sl1gp97/nnNeOkl/fe//9Xom28OWOf4fMTExgYtYteqVbpv+JvNZrVv377Y/UWv97p163zvhzP3Dxo0qJRp/ycuLk6DBw/W4MGD9dCDD2rgoEHasWOH1q9fr549e/rade7cWW/Pn68bRo3SpMmTZbXZ/O4vAACo3nYeyyy5EYDztjfniJKi65TcEAAAoBIxAhgAEMBkMun5555T06ZNtXXr1grr58orrlDt2rW15vvvtXz58nM6R9s2bdSpY0cdPHhQ//z8c0mSx+PR7Ndfl81m0/Tp0/W3xx/3e4wcMUJ5eXl6a+7c8rwcSVJqaqqmTZumjIwMZWVl+e0bOWKETCaTZv/jH9qzZ8959XPLLbfI6/Xq1rFjlZGR4Tdt9pl9StLfnngiYHTxU08/rby8PA0cNEjR0dFn7W/btm269957T/ZdhrVpz9cfTk3p/NprrynM4dCAAQN8+64+Vax88cUX/dpWB3v37tWnn36qFi1aBLw///b44+rWtas2btyo77//vtTnXLhwofLy8vy2hYWFyeFwSJLCg6yNnJqaqrfnz1dkZKTuuusuLVu27PwuDAAAVBkZeceMjgDUCBm5pVtOBwAAoDIxAhgAEFRMTIxmzZypq6++WvlBpmEurcWLF+vnn37y25aYmKg77rhDkZGR+vvf/66xt96q2//4R/Xr21edO3eWJO3dt09ZWVmlGm153XXXaeOmTVqwYIEG9O+vTz/9VHv27tXVQ4ZozOjRAe2PHz+uJUuX6s0339SE225TWFjYOV9fMLeMGaP169dryal1aYukpqZq0qRJevbZZ3Vl//4aMmSIWrRoofz8/DKvNZuUlKRL+vTRF19+qYYNG+rKK64I2m7cuHH6/PPP9d1336nfFVfoqgEDZLPb9fXXX2vdunVq3LixHjxjnVrp5Ov2088/y+V0au++ffrpp59UUFCgAQMGaMKECQHtn3/+edU6o4jcvXt3vxGsiz76SJs2b/Zr07NnT1+ROpj+/fsr7L77lJ+fr/79+/u9H1q2bKkLLrhAW7ZsUZMmTdSlS5diz1PVzJ49W263W+PHjdOoUaMC9rdo0ULXjRihmbNmqVu3br7txd3Dbl27atLkyXpk+nT169dPzZo1U4HLpS+/+kpbtmxR586d1amYKblTU1M1f9483TBqlP58xx2y2mzqf+WV5XvBAACgUnm8XqZ/BipJJl+2AAAAVRAFYABAsdq3b6/pjz6q//u//zvnc3z77bf69ttv/ba1bt1ad9xxhyTpkj59tGTJEj333HNa9cUX+mzlSkmS3W5XcnJyqUZ1Xn311Xr4kUf0xRdfKCMjQzNnzZIkjSlmpGp0dLSGDR2qufPmadGiRbr++uvP+fqK8/RTT2nr1q3asWOH3/aJd9+tNm3a6LXXXtN7773nW2M5MjJSPXv21DVlGMV6y6236osvv9TNN98si8UStI3NZtO7776rF198Ue+8+65enDHD19/111+ve6dODbr+78ZNm7Rx0yaZTCbFxMSoW7du+n/XXqtrrrlGJpMpoP2iRYuC9n96AXjz5s3afEbxMszhOGsBOCoqSv369dPSpUuDvheuvvpqbdmyxTcauDo4evSoFixcqJiYGA0dOjRom4suukitWrVSenq6du3a5dt+tnv4yssv66233tLixYt9o71jYmI0atQoTZ06NejrVuTCCy/0TQf9xz/+UbNmzlTfvn3L4WoBAIARcgtdRkcAaowThU4Vej2ymphoEQAAVB0mb9EnzwCAs7r7sRc1892PjY4RYNOiVxUZZGrX6sjj8ej333+X1WpVfHz8WQtWocDlcunw4cOKiooqcQrm8pKVlaWCggLVqVMn5O9vTVX0vrJYLEpISJDZXLEfROXk5qrj0NsrtI/TvfbQXerbI7XkhgAA1GCHnCe0fP/mkhsCKBfXNrtQEVaH0THOS/vBt8pZUGh0DKBEmWuWqFZUpNExAKDKYwQwAKDKMJvNSkxMNDpGpbHb7apfv36l9hkXF1ep/aHyGfG+AgAAVUt+YYHREYAaxeVxKzS+lg0AAEIFc5MAAAAAAACEEKeHUXxAZSr0uI2OAAAA4IcCMAAAAAAAQAhhtS+gchV6PUZHAAAA8EMBGAAAAAAAIIR4RAEYqEyFfOkCAABUMRSAAQAAAAAAAOAcWYwOAAAAcAYKwAAAAAAAACHEYuLjHqAymU0moyMAAAD44X8EAAAAAAAAIcRqZjwiUJn40gUAAKhq+O0EAAAAAAAghDgsVqMjADWK3czfOQAAULXw2wkAACHG4/HI5XLJZrPJYgkc/VG0/3RWq1VWa+CvBfn5+X7PzWaz7HZ7+QYGAABAuQo324yOANQofOkCAABUNYwABgAgxDz33HNKSk7W1KlTg+5fmZ6upORkv0fzFi3UJS1N06ZNU9bRo5Kk7OzsgHYtWrZUh5QU3XLrrdq+fXtlXhYAAABKKdLmMDoCUGPYTBY5LHzpAgAAVC18PQ0AgBCSl5+vufPmSZI+WrxYU6ZMUd26dYO2bdGihQYNHChJcjqd+n7tWs15803t2LlT7737rq+dw+HQbePHS5LcHo927Nih9PR0bdy4UekrV6p27doVfFUAAAAoC6vJrDh7hLJcuUZHAUJeg4gYoyMAAAAEoAAMAEAIeX/hQh05ckQD+vfXik8/1Zw339TUKVOCtk1OStKU0/Z5PB5d2b+/Vq9erQMHDig6OlrSyQLwlDPO8cADD+jNt97SqlWrdO2111bcBQEAAOCc1AuvRQEYqAQNIuOMjgAAABCAKaABAAgRHo9Hr8+erejoaD3//PNq1aqV5s2bp9zc0n3wZzabVb9+fUnS8ePHz9q2YaNGpWoHAAAAYzSPrmN0BKBGaBbFjEgAAKDqoQAMAECIWJmert27d+u6665TVFSUxoweraNHj+q9BQuCts/JzdXOnTu1c+dO/fTTT5o1a5a++uorJSQkqGXLlr52Ho/H127btm1aunSpXn/9dZnNZnXt2rWyLg8AAABlUCcsWtG2MKNjACGtfniM7GYmWAQAAFUPv6EAABAiZs6cKbPZrNE33yxJGj58uJ548knNnj1bN990kywWi1/71atX65JLL/XbVi8xUTNmzJDdbldeXp4k6cSJEwHtwsLC9NCDD+qCCy6owCsCAADA+WgaVVtbsn41OgYQslrF1DM6AgAAQFAUgAEACAE//PCD1q1bp7S0NHkl7d6zR5LUt29fffjhh1qxYoUGDRrkd0z79u1186lisc1qVcOGDdW5c2eFh4f7tQsLC9Mjjzwi6eQ00XXr1lVKhw5KSEio8OsCAADAuesQ10jbsjNU4HEbHQUIObVs4Uz/DAAAqiwKwAAAhIDXZs6UJK1bt069evUKuv/MAnCjhg11/ciRJZ7bbreXqh0AAACqFrvZog7xjbTh0F6jowAhJy2hmdERAAAAikUBGACAam7v3r369NNP1aJFC40bOzZg/+LFi/X92rX6/vvv1a1bNwMSAgAAwCjtYupr+9GDOlHoMjoKEDISwqLVKDLO6BgAAADFogAMAEA1N3v2bLndbo0fN06jRo0K2N+iRQtdN2KEZs6aRQEYAACghrGYzLowoZm+ythudBQgZHSv29LoCAAAAGdlNjoAAAA4d0ePHtWChQsVExOjoUOHBm1z0UUXqVWrVkpPT9euXbsqOSEAAACM1iwqQc2jEoyOAYSETvGNVdseYXQMAACAs2IEMAAA1VhsbKy2b9tWYrtVn3/u+3PLli11YP/+Eo+JiYkpVTsAAABUfT0Tk3TMlavDrlyjowDVVsOIWHWMb2x0DAAAgBIxAhgAAAAAACDEWU1mXdqgrcIsNqOjANVSLVu4+tRrbXQMAACAUqEADAAAAAAAUANEWh26tH4bmYwOAlQzNpNF/Rq2k81sMToKAABAqVAABgAAAAAAqCHqhkWrW92WRscAqg2ryay+DdspyuowOgoAAECpsQYwAAAAAABADdK6VqLi7BFadXCrnO5Co+MAVVaU1aF+Ddupli3c4ffPVAAAIABJREFU6CgAAABlwghgAAAAAACAGqZuWLQGNe6kOHuE0VGAKqleeIwGNe5I8RcAAFRLFIABAAAAAABqoCirXQMbp6hlVILRUYAq5YK4hrqyYXs5LEyeCAAAqid+iwEAAAAAAKihLCazLq7XSm2dDbT2t936zXnc6EiAYZpE1daFtZsw6hcAAFR7FIABAAAAAABquNqOKA1o3EEHc7P1w+G9+t15wuhIQKVpGBGnzglNVZsp0QEAQIigAAwA1ZzX65Xb4zE6BoAaymKxGB0BAACUo/oRMaofkaL/5h7Vf7IztD/niNGRgAphMZnVPDpBbWLrq7Y90ug4AAAA5YoCMABUc8dO5CrP6TI6BoAayu3mCygAAISiBhGxahARqzx3gQ7mHtXh/BPKcuXqkPOECjxuo+MBZRZhtSveHqk4R6QSwqJUPzxGNjNfZgQAAKGJAjAAVHO9b77H6AgAAAAAQlS4xaYW0XXUIrqOb5tXXgMTAWVnksnoCAAAAJWKAjAAAACqjT89OkNmk9noGAAAAEBIKSgsNDoCAAAoRxSAAQAAUG243R65xbTTAAAAAAAAQHEYPgEAAAAAAAAAAAAAIYICMAAAAAAAAAAAAACECArAAAAAAAAAAAAAABAiKAADAAAAAAAAAAAAQIigAAwAAAAAAAAAAAAAIYICMAAAAAAAAAAAAACECKvRAQAA52fWw3fLbuWfcwDG8Hi9uuWBZyulr14XXqAX7/9zpfQFAABQlRz3Slkek/K8Xrk8JhVIcnq9cnpN8hodDhXCKq/sJslukmwmkxzyKtJiUm2T5DCV76t+zZ1/1Z5fM8r1nAAAwFhUDACgmktr30rhYQ6jYwCooQrd7krry2q1KjoyvNL6AwAAMEqBV8oscOugy6NMl1suX73PdForU5AjESoKZVK+V9Lpr/2pX71rWcyqZzOrvsOq2tbzfx+YzbyXAAAINRSAAaCaM5tNsjICGIBBnC6X0REAAABCRr5X2p5boF/y3fIYHQZV1jG3V8fcbm3PdyvCJLWNtKmxw8JafwAAwIeKAQAAAAAAAGAgp9erbbmFFH5RZrle6d8nCvSf3EK1i7CqkcPC2HAAAEABGAAAAAAAADDKUbdX64+7dMzNar44dzker9adKFCGy62UKJscJsrAAADUZBSAAQAAAAAAgErmlUk/5RZoR16hKP2ivOx3efT7Uac6R9lV38ak0AAA1FQUgAEAAAAAAIBKlO32av1xp7IZ9YsKkO+RvjvmUlOHRR0jbbIyGBgAgBqHr4EBAAAAAAAAlcTpldafcFH8RYXb63RrS26B0TEAAIABGAEMAAAAAAAAVAKnV/oq26kTFH9RSX7Jd0uSOkXaDE4CAAAqEyOAAQAAAAAAgApW4PXqG4q/MMAv+W5tP1UIBgAANQMFYAAAAAAAAKACeSR9d7xARyn+wiBbcgr0i5MiMAAANQUFYAAAAAAAAKAC7XG6dajAY3QM1HA/5RQox8OXEAAAqAkoAAMAAAAAAAAV5Ljbqx9PFBgdA1CBV1p3vECUgAEACH0UgAEAAAAAAIAK8kNOgZh4F1XFkUKPdrEeMAAAIY8CMAAAAAAAAFAB9jH1M6qgn3MLlMdU0AAAhDQKwAAAAAAAAEA580j6T16h0TGAAIVeMQoYAIAQRwEYAAAAAAAAKGf/dXl0ws0oS1RNu/MLVcDbEwCAkEUBGAAAAAAAAChn23MLjI4AFKvAK+12MgoYAIBQRQEYAAAAAAAAKEe5Hukoo39Rxe3PZ4pyAABCFQVgAAAAAAAAoBztobCGaiDb7dXRQo/RMQAAQAWgAAwAAAAAAACUo4MuptZF9XCokJHqAACEIqvRAQAAKK3CwkIVFgb/Jr3FYpHNZpPL5ZLH45HD4ZDJZJLH45HL5fI9P5PT6ZTX61VYWFjQ87pcLnm9XjkcjqD78/PzZTKZit1f3DFWq1VWa/E/hp1Op8xms2w2W8A+j8ej3377TYWFhUpMTAzapug+FLHZbLJYLMX2d2b70xVlLbr/JZ2rOKXJXVBQILfbLbvdLrPZHHC8y+Xy5cnPzy+xT4fDIbfbHfC+CXZ+r9fru+92uz3gXEX3KCws7KzvxSJF70kAAADULB7vyZGVQHXwG19WAAAgJDECGABQbUx/9FElJScHfdx1992SpEGDByspOVk///yzJGllerqSkpN13/33Bz1nn0suUVJyctB9x44dU0rHjmrVurX2798fsD87O1tJycnqnJpa6mvIz89XUnKyrr766mLbHDhwQK1at9bYceP8tufl5Wn69OlKSUlRl7Q0de/RQ23bttVdd9+tzMxMv7ZF96Ho0bRZM3VISdGYW27R6tWrA/o8s/3pj7/+9a+S/nf/58yZU+rrLWvuKVOnKik5WUuXLg04z+LFi0++lvfd57v3JT127doV9H3TMilJvXr31uuvv+4rfB84cEBJycnqd8UVQa/jsssuU1Jysg4ePHjW9+KZ70kAAADULDkeir+oPo4wBTQAACGJEcAAgGqnR48eateund+2DhdccNZj5s+fr65paRo6dGip+3n7nXd04sQJSdLrs2frkYcfLnvYYmzavFlr165V165dA/bNmTNHbrf/t7Dz8/M1bPhwbd68WW3bttXYceNkt9v15Zdf6sMPP9Tq1au1bNky1a9Xz++4gQMHKi4uTieOH9euX35Renq60tPTdc899+juu+4K6HvkiBGqVauW37a0IBlL61xzl8TucGjkiBG+51u3btXGTZvUpk0bde7Uybf99Gvp3bu3OnXsKEk6fvy4Plu5Ug8/8ohycnOD3ouzuTA1Vbk5Ob7nC99/X263W9dee62sp0ZHdzotBwAAAGqOPArAqEZcXslkZowQAAChhgIwAKDaueqqqzRm9OgyHzf13nvVrl07tWnTpsS2BQUFeuONN5SYmKgGDRpowYIFmjRxomJjY88hcXCz//GPgAJwbm6u3luwIKDtyy+/rM2bN6t3796a+9Zbvumj/3j77Zr24IOaM2eOHnroIc2aOdPvuDvvuEPt27f3Pf/Xv/6lsePG6ZlnnlHXtDT17NnTr/0f//QnNW/WrJyu8NxzlyQ8LExPP/20Xz8bN21Sn969NW3atKDHXHbppRo7dqzv+Z133qkuaWlasGBBmQvAQ4YM0ZAhQ3zPF330kdxutx6dPl2RkZFlOhcAAABCSz4FYFQzNjtL1wAAEGr4ehcAoEbo0KGDnE6nxt92m29U79ksWbJEBw8e1KhRozRu7Fjl5ORo/vz55Zrps88+C5haeuH77ys7Ozug7fsffCBJuu/eewPWDp48aZIiIiKUnp6uo0ePnrXPXr166Y4//1mSNHfevPOJXyrllbsi1K5dW2FhYTp+7Fil9w0AAIDQ5aIAjGrGYmWMEAAAoYaf7gCAauf7778P2HZJnz5q3rx5scf07NFDfS+/XM+/8IIm33OPZr722ln7mDlrlhwOh0bdcIPi4uJUv359zXnzTY0fP152u/28r6Fx48Y6cOCA3pgzRw89+KAkyev1as6cOWrZsqV27drla5udna0DBw7I4XDogiBTXcfGxio5KUmbNm/Wjh07lJaWdta+e/furSeefFKbNm0K2Pfxxx+rdny837Z+/fqpXhmnaK6I3Ofr0OHD2rlzp6STU0C//fbbysnJ0YD+/Su0XwAAANQsrKiK6sZ8ahkbAAAQOigAAwCqnWXLlmnZsmV+215+6aWzFoAlaeLEidqwYYOWL1+u2bNn+00HfLp//etf+vnnnzV8+HDVqVNHknTTjTfqyaee0kcffaTrrrvuvK+hadOmSk5O1nvvvafJkyYpKipKq1at0q5duzR9+nS/aYyLRgTHx8fLZDIFPV/CqZylGUmbmJgoSUFHvj7zzDMB25KSks65ACyVX+7z9dJLL+mll17y25aSkqLp06dXeN8AAACoOQoZAIxqhjWAAQAIPRSAAQDVzp/+9CcNGTzYb1ujRo1KPM5sNmvGjBnqP2CAHnv8cXXq1Clou5mn1qO9/LLLtHvPHknSRRddJIvFolmvv14uBWBJuvWWW7Rq1SotWLBAt956q/7xxhuqU6eOBg8a5FcAjouLkyQdPnxYHo9H5iD/Of/tt98knSy2luRgRoYkKSbIesZz585Vg/r1/bY1adKk9Bd1mnPJbT5VKPZ4Az8183hOjqU412+nDxkyRBdffLEkKTw8XM2aNVOnjh19xemifEX9BPR/KlOw6wAAAACAaivI/78AAED1RgEYAFDt1KtXT+3btz+nY+Pj4/Xaq69q2PDhmnD77XI6nX77t23bpi+/+kqSdPsf/xhw/LZt27Tqiy902aWXnlP/p+vTp49atWqlN+bMUc+LLtLXX3+tSRMnymaz+bWLjo5W8+bNtXv3bm3cuFGpqal++48cOaKdO3cqzOFQq1atSux31apVkqTOQQrgzZs3V/Nmzc79os4zd+yponTGqSL16Q4ePCjpf4Xlskrt3FnXjxxZ7P6YmBhJUmZmprxer9+oZY/Ho8zMTJnNZl87AAAAIBhr8MlvgCrLSwEYAICQwxAWAECNk5qaqmnTpikjI0NZWVl++2bOmiVJGj9unP72+ON+j/vvv/9km1MjhMvDLWPGaO/evZowYYLsdrtGjRoVtN3IESMkSX974gkVFBT47Xvq6aeVl5engYMGKTo6+qz9paen69VXX5XJZNLo0aPL5RrOpqy507p2lSR98MEHfsX5vPx8LXz/fUlS11NtyltUVJTatWun3NxcfbR4sd++BQsXyul0KiUlRWFhYRXSPwAAAEKDmQIwqhlPodvoCAAAoJwxAhgAUCPdMmaM1q9fryVLlvi2ZWZmavHixapfv77uv/9+Wa2BPyY//+c/9c0332jLli1q3LixJCkvL0933HlnQNvpjzziG9FanGHDh+uJJ5/Url27dM0116hu3bq+tXNPN27cOH3++ef67rvv1O+KK3TVgAGy2e36+uuvtW7dOjVu3FgPnjZtdJFnnn1WsbGxOnH8uHb98ou2b98uk8mkBx54QF26dAlo//zzz6vWGUXk7t27a9CgQb7niz76SJs2b/Zr07NnT1+x93xy9+vbV506dtTGTZt0Zf/+uvLKK+X1erVixQrt3r1baWlpuvSSS856T8/H5EmTdOvYsZo4caK++OILtWjRQrt27tSSpUtlMpk0efLkCusbAAAAocFhogKM6qWgsKDkRgAAoFqhAAwAqLGefuopbd26VTt27JAkzXnzTblcLt10441Bi7+SNHr0aH2/dq1mzpypRx99VJJUUFCgjz76KKDt/ffdV2IBODwsTNdff71eeeUV3XLLLcW2s9lsevfdd/Xiiy/qnXff1YszZkiSIiMjdf311+veqVODrv+bnp4uSbJarUpISNDgwYN1y5gxSktLC9rPokWLgm4/vQC8efNmbT6jABzmcAQtAJc1t8Vi0fz58/Xoo49qydKlevnllyWdHJ17ww036IG//MVvaubyduWVV2r27Nl65pln/F7Tdu3aaeqUKRVafAYAAEBoCLNQAEb1YZLkLqAADABAqDF5WeQBAErl7sde1Mx3PzY6RoBNi15VZESE0TFQybKyslRQUKA6depUaEG0vJUld2FhoX7//XfJZFLdOnVksVgqKeVJx44dU3Z2tmJiYlSrVq1K7bs6ycnNVceht1dKX5d266TXH55YKX0BAACcq2Nuj/551GV0DKBUIkzSc1P/ql/2HzQ6ClAqmWuWqFZUpNExAKDKYwQwAADVUFxcnNERzklZclutVtWvX78C05xdrVq1KPwCAACgzKItZtlMUgFDLlANJNrNRkcAAAAVgJ/wAAAAAAAAQDkxSapt5SM3VA/17IwPAgAgFPHbKAAAAAAAAFCOmoRRVEPVZ/J6lWCrPksKAQCA0qMADAAAAAAAAJSjRJtJJjEHNKq2RLtFNhMFYAAAQhEFYAAAAAAAAKAc2Uwm1bFZjI4BnBUj1QEACF0UgAEAAAAAAIBydkGkzegIQLFqWUxqaOejYQAAQhU/5QEAAAAAAIByFkuBDVVY+wibmPwZAIDQxW+hAAAAAAAAQAXoEGnnwzdUOfFWs+rz5QQAAEIaP+kBAAAAAACAChBhlpLCWWcVVUtKJO9JAABCHQVgAAAAAAAAoIK0ibCKchuqioZ2s+KtfCQMAECo46c9AAAAAAAAUEGsknrHOmQxOghqvHirSV2jHUbHAAAAlYACMAAAAAAAAFCBYi0mpUbZjI6BGizcbFKPaLtM8hodBQAAVAIKwAAAAAAAAEAFa+yw6IJIisCofGZJPaJtcphNRkcBAACVhAIwAAAAAAAAUAlahVnU0M7HcahcadF2xbLuLwAANQo/+f9/e3ewGlcZgGH4P8nMZJJa2qK40KK4UYtQBEHBjYpbV96FWy/DO/A2vACXegeCRYXiykKx3aRJJ5Nx40YQN216zJvnuYCZbzdnznvmHwAAAAB4QT66vhrvHPpHYC7eahrjkxsHHjoAgCvIpz8AAAAAvEDvHS3Hh9eXbsxxYY72xvjs5sF4eeHYZwC4ihZzDwAAAACAq+b2an9cv7k3fnx8Oo53c6+h5PXV3vjg+sqNXwC4wlwHAAAAAMAMbuxP4/NbB+PXk+249+RsnAnBPIOX9qfx3tHSkc8AgAAMAAAAAHNZTtN493Ax3lovxs/Hm/HbyXaczz2KS2U9jXHn2mq8ebDnWHEAYIwhAANcetM0jd3OY+LAPKbJf4oBADwPB9MYd68tx9tHy3HveDPun27Hxlc9/sPh3jTuHC7GG+t94RcA+AcBGOCSO9/txvGTJ3PPAK4oARgA4Pla/x2C715bjt9Pt+PBZjsene3G460afNUtpzFuLPbGrf1p3D5YjFsL1+IAwL8TgAEuufe//GruCQAvxE+/3B9ff/Pt3DMAAGazOlyPxfpwLNarsb9cjv39xZj2/Paz6Px8O843Z2P7dDM2Jydjc3oyzk6fXsh7PXj46EJeFwCYjwAMAMCl8MfDP8d33/8w9wwAAAAA+F/ziCAAAAAAAABAhAAMAAAAAAAAECEAAwAAAAAAAEQIwAAAAAAAAAARAjAAAAAAAABAhAAMAAAAAAAAECEAAwAAAAAAAEQIwAAAAAAAAAARAjAAAAAAAABAhAAMAAAAAAAAECEAAwAAAAAAAEQIwAAAAAAAAAARAjAAAAAAAABAhAAMAAAAAAAAECEAAwAAAAAAAEQIwAAAAAAAAAARAjAAAAAAAABAhAAMAAAAAAAAECEAAwAAAAAAAEQIwAAAAAAAAAARAjAAAAAAAABAhAAMAAAAAAAAECEAAwAAAAAAAEQIwAAAAAAAAAARAjAAAAAAAABAhAAMAAAAAAAAECEAAwAAAAAAAEQIwAAAAAAAAAARAjAAAAAAAABAhAAMAAAAAAAAECEAAwAAAAAAAEQIwAAAAAAAAAARAjAAAAAAAABAhAAMAAAAAAAAECEAAwAAAAAAAEQIwAAAAAAAAAARAjAAAAAAAABAhAAMAAAAAAAAECEAAwAAAAAAAEQIwAAAAAAAAAARAjAAAAAAAABAhAAMAAAAAAAAECEAAwAAAAAAAEQIwAAAAAAAAAARAjAAAAAAAABAhAAMAAAAAAAAECEAAwAAAAAAAEQIwAAAAAAAAAARAjAAAAAAAABAhAAMAAAAAAAAECEAAwAAAAAAAEQIwAAAAAAAAAARAjAAAAAAAABAhAAMAAAAAAAAECEAAwAAAAAAAEQIwAAAAAAAAAARAjAAAAAAAABAhAAMAAAAAAAAECEAAwAAAAAAAEQIwAAAAAAAAAARAjAAAAAAAABAhAAMAAAAAAAAECEAAwAAAAAAAEQIwAAAAAAAAAARAjAAAAAAAABAhAAMAAAAAAAAECEAAwAAAAAAAEQIwAAAAAAAAAARAjAAAAAAAABAhAAMAAAAAAAAECEAAwAAAAAAAEQIwAAAAAAAAAARAjAAAAAAAABAhAAMAAAAAAAAECEAAwAAAAAAAEQIwAAAAAAAAAARAjAAAAAAAABAhAAMAAAAAAAAECEAAwAAAAAAAEQIwAAAAAAAAAARAjAAAAAAAABAhAAMAAAAAAAAECEAAwAAAAAAAEQIwAAAAAAAAAARAjAAAAAAAABAhAAMAAAAAAAAECEAAwAAAAAAAEQIwAAAAAAAAAARAjAAAAAAAABAhAAMAAAAAAAAECEAAwAAAAAAAEQIwAAAAAAAAAARAjAAAAAAAABAhAAMAAAAAAAAECEAAwAAAAAAAEQIwAAAAAAAAAARAjAAAAAAAABAhAAMAAAAAAAAECEAAwAAAAAAAEQIwAAAAAAAAAARAjAAAAAAAABAhAAMAAAAAAAAECEAAwAAAAAAAEQIwAAAAAAAAAARAjAAAAAAAABAhAAMAAAAAAAAECEAAwAAAAAAAEQIwAAAAAAAAAARAjAAAAAAAABAhAAMAAAAAAAAECEAAwAAAAAAAEQIwAAAAAAAAAARAjAAAAAAAABAhAAMAAAAAAAAECEAAwAAAAAAAEQIwAAAAAAAAAARAjAAAAAAAABAhAAMAAAAAAAAECEAAwAAAAAAAEQIwAAAAAAAAAARAjAAAAAAAABAhAAMAAAAAAAAECEAAwAAAAAAAEQIwAAAAAAAAAARAjAAAAAAAABAhAAMAAAAAAAAECEAAwAAAAAAAEQIwAAAAAAAAAARAjAAAAAAAABAhAAMAAAAAAAAECEAAwAAAAAAAEQIwAAAAAAAAAARAjAAAAAAAABAhAAMAAAAAAAAECEAAwAAAAAAAEQIwAAAAAAAAAARAjAAAAAAAABAhAAMAAAAAAAAECEAAwAAAAAAAEQIwAAAAAAAAAARAjAAAAAAAABAhAAMAAAAAAAAECEAAwAAAAAAAEQIwAAAAAAAAAARAjAAAAAAAABAhAAMAAAAAAAAECEAAwAAAAAAAEQIwAAAAAAAAAARAjAAAAAAAABAhAAMAAAAAAAAECEAAwAAAAAAAEQIwAAAAAAAAAARAjAAAAAAAABAhAAMAAAAAAAAECEAAwAAAAAAAEQIwAAAAAAAAAARAjAAAAAAAABAhAAMAAAAAAAAECEAAwAAAAAAAEQIwAAAAAAAAAARAjAAAAAAAABAhAAMAAAAAAAAECEAAwAAAAAAAEQIwAAAAAAAAAARAjAAAAAAAABAhAAMAAAAAAAAECEAAwAAAAAAAEQIwAAAAAAAAAARAjAAAAAAAABAhAAMAAAAAAAAECEAAwAAAAAAAEQIwAAAAAAAAAARAjAAAAAAAABAhAAMAAAAAAAAECEAAwAAAAAAAEQIwAAAAAAAAAARAjAAAAAAAABAhAAMAAAAAAAAECEAAwAAAAAAAEQIwAAAAAAAAAARAjAAAAAAAABAhAAMAAAAAAAAECEAAwAAAAAAAEQIwAAAAAAAAAARAjAAAAAAAABAhAAMAAAAAAAAECEAAwAAAAAAAEQIwAAAAAAAAAARAjAAAAAAAABAhAAMAAAAAAAAECEAAwAAAAAAAEQIwAAAAAAAAAARAjAAAAAAAABAhAAMAAAAAAAAECEAAwAAAAAAAEQIwAAAAAAAAAARAjAAAAAAAABAhAAMAAAAAAAAECEAAwAAAAAAAEQIwAAAAAAAAAARAjAAAAAAAABAhAAMAAAAAAAAECEAAwAAAAAAAEQIwAAAAAAAAAARAjAAAAAAAABAhAAMAAAAAAAAECEAAwAAAAAAAEQIwAAAAAAAAAARAjAAAAAAAABAhAAMAAAAAAAAECEAAwAAAAAAAEQIwAAAAAAAAAARAjAAAAAAAABAhAAMAAAAAAAAECEAAwAAAAAAAEQIwAAAAAAAAAARAjAAAAAAAABAhAAMAAAAAAAAECEAAwAAAAAAAEQIwAAAAAAAAAARAjAAAAAAAABAxGLuAQCXxReffjxee/WVuWcAAAAAwJW0PljNPQHgUph2u91u7hEAAAAAAAAAPDtHQAMAAAAAAABECMAAAAAAAAAAEQIwAAAAAAAAQIQADAAAAAAAABAhAAMAAAAAAABECMAAAAAAAAAAEQIwAAAAAAAAQIQADAAAAAAAABAhAAMAAAAAAABECMAAAAAAAAAAEQIwAAAAAAAAQIQADAAAAAAAABAhAAMAAAAAAABECMAAAAAAAAAAEQIwAAAAAAAAQIQADAAAAAAAABAhAAMAAAAAAABECMAAAAAAAAAAEQIwAAAAAAAAQIQADAAAAAAAABAhAAMAAAAAAABECMAAAAAAAAAAEQIwAAAAAAAAQIQADAAAAAAAABAhAAMAAAAAAABECMAAAAAAAAAAEQIwAAAAAAAAQIQADAAAAAAAABAhAAMAAAAAAABECMAAAAAAAAAAEQIwAAAAAAAAQIQADAAAAAAAABAhAAMAAAAAAABECMAAAAAAAAAAEQIwAAAAAAAAQIQADAAAAAAAABAhAAMAAAAAAABECMAAAAAAAAAAEQIwAAAAAAAAQIQADAAAAAAAABAhAAMAAAAAAABECMAAAAAAAAAAEQIwAAAAAAAAQIQADAAAAAAAABAhAAMAAAAAAABECMAAAAAAAAAAEQIwAAAAAAAAQIQADAAAAAAAABAhAAMAAAAAAABECMAAAAAAAAAAEQIwAAAAAAAAQIQADAAAAAAAABAhAAMAAAAAAABECMAAAAAAAAAAEQIwAAAAAAAAQIQADAAAAAAAABAhAAMAAAAAAABECMAAAAAAAAAAEQIwAAAAAAAAQIQADAAAAAAAABAhAAMAAAAAAABECMAAAAAAAAAAEQIwAAAAAAAAQIQADAAAAAAAABAhAAMAAAAAAABECMAAAAAAAAAAEQIwAAAAAAAAQIQADAAAAAAAABAhAAMAAAAAAABECMAAAAAAAAAAEQIwAAAAAAAAQIQADAAAAAAAABAhAAMAAAAAAABECMAAAAAAAAAAEQIwAAAAAAAAQIQADAAAAACk4dxnAAAAzElEQVQAABAhAAMAAAAAAABECMAAAAAAAAAAEQIwAAAAAAAAQIQADAAAAAAAABAhAAMAAAAAAABECMAAAAAAAAAAEQIwAAAAAAAAQIQADAAAAAAAABAhAAMAAAAAAABECMAAAAAAAAAAEQIwAAAAAAAAQIQADAAAAAAAABAhAAMAAAAAAABECMAAAAAAAAAAEQIwAAAAAAAAQIQADAAAAAAAABAhAAMAAAAAAABECMAAAAAAAAAAEQIwAAAAAAAAQIQADAAAAAAAABDxF1RWMDJgasJ1AAAAAElFTkSuQmCC;" vertex="1" parent="1">
                    <mxGeometry x="110" y="-10" width="1920" height="1080" as="geometry"/>
                </mxCell>
            </root>
        </mxGraphModel>
    </diagram>
</mxfile>